<svg width="156" height="78" viewBox="0 0 156 78" fill="none" xmlns="http://www.w3.org/2000/svg">
<path d="M130.413 10.6781C130.413 10.6781 124.857 5.29947 116.857 3.7888C113.117 3.08214 107.107 2.54348 100.495 2.19548C108.709 3.96881 117.567 6.27681 124.813 10.6301C125.273 10.9075 124.968 11.6421 124.447 11.4968C116.312 9.20748 108.548 5.98347 100.275 4.07147C95.62 2.99547 90.94 2.3248 86.2414 1.7528C83.34 1.7248 80.5401 1.73414 77.9894 1.7888C75.8347 1.83414 73.8361 1.99148 71.9534 2.23148C74.6081 2.69281 77.2147 3.25014 79.7054 3.82214C84.6801 4.96747 89.5841 6.40214 94.4534 7.92748C98.7281 9.26881 103.215 10.4168 107.285 12.3035C107.743 12.5155 107.388 13.1261 106.968 13.0555C98.0147 11.5408 89.3414 7.86213 80.4841 5.78613C75.7587 4.67947 70.9827 3.78348 66.1481 3.33015C62.8894 4.16748 60.0574 5.29281 57.5041 6.58215C61.5534 6.51148 65.6094 6.80881 69.4921 7.28081C74.6961 7.91548 79.8414 8.93281 84.9667 10.0248C89.7174 11.0341 95.648 11.4968 99.9374 13.8141C100.107 13.9075 100.013 14.1421 99.844 14.1541C95.3374 14.4995 90.2334 12.6861 85.8201 11.7821C80.7921 10.7528 75.7547 9.75947 70.6614 9.1048C64.7787 8.3488 59.1174 8.27947 53.4841 8.85414C52.8174 9.27014 52.1614 9.6928 51.5241 10.1221C49.3667 11.5741 47.4627 12.8541 45.7534 14.0261C49.1907 13.5715 52.6321 13.3248 55.9281 13.1795C61.0654 12.9541 66.2094 13.0901 71.3347 13.4715C76.2947 13.8395 82.0427 13.9555 86.7787 15.5648C87.1867 15.7021 87.1041 16.2741 86.6801 16.3008C81.6667 16.6155 76.3614 15.4675 71.3347 15.1541C66.6014 14.8595 61.8481 14.7341 57.1067 14.8928C51.7441 15.0728 46.6627 15.8541 41.6361 16.9381C39.5507 18.4848 38.0347 19.7848 37.0801 20.9448C41.2881 19.9155 45.6387 19.3261 49.5907 18.8955C57.6427 18.0168 67.4254 17.5088 75.1894 20.2595C75.5707 20.3955 75.5241 20.9915 75.0907 20.9861C70.9521 20.9408 66.8227 20.1448 62.6707 20.0275C58.7027 19.9141 54.7227 20.0675 50.7747 20.4781C46.3134 20.9435 41.8787 21.7515 37.5387 22.8875C36.9827 23.0341 36.4334 23.2101 35.8827 23.3768C35.7787 24.2941 36.1014 25.1795 36.8827 26.1101C40.4561 25.2621 44.2934 24.9781 47.6201 24.8128C53.2254 24.5341 60.2201 24.4861 65.4027 26.9341C65.9387 27.1875 65.6547 28.0141 65.1107 28.0115C62.0947 28.0008 59.1214 27.2395 56.1201 26.9621C53.2947 26.6995 50.4561 26.6275 47.6201 26.7141C44.5347 26.8088 41.4681 27.1288 38.4214 27.6141C42.2734 30.9688 46.8574 33.5635 46.8574 33.5635L130.413 10.6781Z" fill="#FEDB00"/>
<path d="M124.447 11.4968C124.968 11.6421 125.273 10.9075 124.813 10.6301C117.567 6.27679 108.709 3.96879 100.495 2.19545C95.8468 1.94879 90.9135 1.79945 86.2415 1.75278C90.9401 2.32478 95.6201 2.99545 100.275 4.07145C108.548 5.98345 116.312 9.20746 124.447 11.4968Z" fill="#FCC000"/>
<path d="M106.968 13.0559C107.388 13.1265 107.743 12.5159 107.286 12.3039C103.215 10.4172 98.7282 9.2692 94.4535 7.92787C89.5842 6.40254 84.6802 4.96787 79.7055 3.82253C77.2149 3.25053 74.6082 2.69321 71.9535 2.23187C69.8735 2.49587 67.9442 2.86787 66.1482 3.33054C70.9829 3.78387 75.7589 4.67986 80.4842 5.78653C89.3415 7.86253 98.0148 11.5412 106.968 13.0559Z" fill="#FCC000"/>
<path d="M70.6615 9.10478C75.7548 9.75944 80.7921 10.7528 85.8201 11.7821C90.2335 12.6861 95.3375 14.4994 99.8441 14.1541C100.013 14.1421 100.107 13.9075 99.9374 13.8141C95.6481 11.4968 89.7175 11.0341 84.9668 10.0248C79.8415 8.93278 74.6961 7.91545 69.4921 7.28079C65.6095 6.80879 61.5535 6.51146 57.5041 6.58212C56.0868 7.29679 54.7548 8.06078 53.4841 8.85411C59.1175 8.27944 64.7788 8.34878 70.6615 9.10478Z" fill="#FCC000"/>
<path d="M71.3349 15.1545C76.3616 15.4678 81.6669 16.6158 86.6802 16.3012C87.1042 16.2745 87.1869 15.7025 86.7789 15.5652C82.0429 13.9558 76.2949 13.8398 71.3349 13.4718C66.2096 13.0905 61.0656 12.9545 55.9282 13.1798C52.6322 13.3252 49.1909 13.5718 45.7536 14.0265C44.1962 15.0918 42.8229 16.0585 41.6362 16.9385C46.6629 15.8545 51.7442 15.0731 57.1069 14.8931C61.8482 14.7345 66.6016 14.8598 71.3349 15.1545Z" fill="#FCC000"/>
<path d="M50.7748 20.4783C54.7228 20.0676 58.7028 19.9143 62.6708 20.0276C66.8228 20.145 70.9522 20.9409 75.0908 20.9863C75.5242 20.9916 75.5708 20.3956 75.1895 20.2596C67.4255 17.509 57.6428 18.017 49.5908 18.8956C45.6388 19.3263 41.2881 19.9156 37.0801 20.945C36.3668 21.8116 35.9681 22.609 35.8828 23.377C36.4335 23.2103 36.9828 23.0343 37.5388 22.8876C41.8788 21.7516 46.3135 20.9436 50.7748 20.4783Z" fill="#FCC000"/>
<path d="M56.1201 26.9624C59.1215 27.2397 62.0948 28.001 65.1108 28.0117C65.6548 28.0144 65.9388 27.1877 65.4028 26.9344C60.2201 24.4864 53.2255 24.5344 47.6201 24.813C44.2935 24.9784 40.4561 25.2624 36.8828 26.1104C37.1295 26.4064 37.4121 26.7037 37.7455 27.013C37.9681 27.2157 38.1935 27.4157 38.4215 27.6144C41.4682 27.129 44.5348 26.809 47.6201 26.7144C50.4561 26.6277 53.2948 26.6997 56.1201 26.9624Z" fill="#FCC000"/>
<path d="M43.9681 47.3342C43.9681 47.3342 35.1281 49.7516 36.9894 55.4246C38.4454 59.8637 47.9268 66.4956 58.7454 71.4554C69.8574 76.5476 85.0787 79.4022 100.635 77.2956C116.191 75.1902 119.909 69.4022 119.909 69.4022L43.9681 47.3342Z" fill="#8098FF"/>
<path d="M46.6227 48.3786C46.6227 48.3786 39.0681 52.4892 42.2907 56.9892C45.5121 61.4906 60.7174 71.5906 72.8454 72.5239C84.972 73.4558 94.0014 71.9282 94.0014 71.9282L46.6227 48.3786Z" fill="#A4BAFF"/>
<path d="M38.3108 42.4347C43.4988 43.4441 47.8295 45.6027 53.4841 50.1C60.6348 55.7892 77.0788 67.496 89.0801 69.0866C101.08 70.6788 122.123 67.7892 133.524 62.0574C137.493 60.0627 140.465 58.0043 143.077 56.4002C142.336 55.4841 141.475 54.7054 140.303 54.283C138.107 53.4882 135.643 53.8918 133.441 53.0308C131.733 52.3616 130.361 51.1254 129.337 49.62C126.403 45.2987 127.083 39.8547 127.549 34.944C128.101 29.144 127.839 22.7321 129.5 17.1347C130.356 14.2534 133.216 12.5587 136.544 11.7054C131.112 9.04671 122.76 8.00806 108.857 9.56672C85.5228 12.1841 75.3015 17.7894 62.7228 22.6787C52.6241 26.6027 47.6495 31.3801 40.3841 32.5147C38.8921 35.5121 38.0855 39.1321 38.3108 42.4347Z" fill="#4354F7"/>
<path d="M33.968 41.8495C35.504 41.9761 36.936 42.1668 38.3107 42.4348C38.0854 39.1321 38.892 35.5121 40.384 32.5148C38.6027 32.7935 36.6867 32.8615 34.5174 32.6335C30.704 32.2321 26.9067 30.6455 23.5574 28.7535C24.152 29.3335 24.7054 29.9561 25.156 30.6908C26.6534 33.1308 26.904 36.2055 26.6787 39.0095C26.5667 40.4028 26.2934 41.6561 25.9107 42.8281C28.28 42.1135 31.0667 41.6081 33.968 41.8495Z" fill="#FEDB00"/>
<path d="M129.5 17.1349C127.839 22.7323 128.101 29.1443 127.549 34.9443C127.083 39.8549 126.403 45.2989 129.337 49.6203C130.361 51.1256 131.733 52.3619 133.441 53.0311C135.643 53.892 138.107 53.4884 140.303 54.2832C141.475 54.7056 142.336 55.4843 143.077 56.4004C146.559 54.2619 149.397 52.9296 153.08 53.6457C154.013 53.8285 154.843 54.0311 155.599 54.2441C156.133 53.1415 156.197 51.7469 155.143 49.9043C153.876 47.6909 151.859 46.3202 149.425 41.4549C146.993 36.5869 149.08 27.1229 144.635 19.4763C142.789 16.2989 140.401 13.5949 136.544 11.7056C133.216 12.5589 130.356 14.2536 129.5 17.1349Z" fill="#383838"/>
<path d="M133.524 62.057C122.123 67.7888 101.08 70.6784 89.0801 69.0862C77.0788 67.4956 60.6348 55.7888 53.4841 50.0996C47.8295 45.6023 43.4988 43.4437 38.3108 42.4343C38.4295 44.1757 38.8201 45.833 39.5801 47.253C44.9255 49.589 50.4135 53.6612 56.1908 58.0118C75.0788 72.2331 90.5375 77.6998 115.309 73.4649C137.968 69.5903 142.857 63.1222 145.968 60.6159L145.988 60.6009C144.943 59.305 144.139 57.7091 143.077 56.3998C140.465 58.0039 137.493 60.0623 133.524 62.057Z" fill="#334BDD"/>
<path d="M32.9629 45.3416C35.1496 45.6016 37.3522 46.2816 39.5802 47.2536C38.8202 45.8336 38.4296 44.1763 38.3109 42.435C36.9362 42.167 35.5042 41.9763 33.9682 41.8496C31.0669 41.6083 28.2802 42.1136 25.9109 42.8283C25.3829 44.4483 24.6416 45.911 23.7749 47.335C27.0029 45.9443 30.2376 45.0176 32.9629 45.3416Z" fill="#FCC000"/>
<path d="M143.077 56.4005C144.139 57.7098 144.943 59.3057 145.988 60.6016C149.093 58.1082 152.495 57.5322 154.191 56.0125C154.744 55.515 155.263 54.9364 155.599 54.2442C154.843 54.0312 154.013 53.8286 153.08 53.6458C149.397 52.9297 146.559 54.262 143.077 56.4005Z" fill="#2D2D2D"/>
<path d="M116.66 27.0163C114.612 24.3829 111.275 23.8149 108.167 23.3736C104.051 22.7896 99.8642 22.1429 95.7335 22.6229C70.3015 25.5669 59.8668 34.2776 58.0348 38.7896C55.8908 44.0669 59.2748 48.7656 64.0055 51.3189C75.8241 57.7004 91.6041 59.5405 103.769 53.1895C108.972 50.4723 113.529 46.3056 116.248 41.0603C118.395 36.9176 119.807 31.0629 116.66 27.0163Z" fill="#5069FF"/>
<path d="M65.8575 2.67817C57.2388 4.40084 46.0655 11.3648 39.5375 16.9008C37.5082 18.6222 34.5682 21.4702 35.1908 24.3462C35.9162 27.6995 39.4482 29.0888 42.8762 31.0342C41.4202 29.6035 39.0215 27.2742 38.3015 25.3448C36.9682 21.7662 40.0628 19.8755 42.4922 17.8542C46.2735 14.7035 50.5108 11.8888 54.7748 9.44084C56.6842 8.34617 67.5722 3.5595 79.7242 2.6035C95.3095 1.37683 107.413 2.4555 120.083 4.68883C113.08 3.0115 97.5242 -3.65516 65.8575 2.67817Z" fill="#8098FF"/>
<path d="M122.123 48.8996C116.583 44.9249 108.709 42.1916 101.925 43.0729C95.4734 43.9116 92.8827 49.1836 93.4147 55.2809C93.9454 61.3435 98.656 62.9648 104.107 61.6101C111.157 59.8612 114.857 56.0117 122.123 48.8996Z" fill="#8098FF"/>
<path d="M143.339 28.0677C143.339 30.1237 141.672 31.7891 139.617 31.7891C137.561 31.7891 135.895 30.1237 135.895 28.0677C135.895 26.0117 137.561 24.3464 139.617 24.3464C141.672 24.3464 143.339 26.0117 143.339 28.0677Z" fill="white"/>
<path d="M141.996 28.0682C141.996 29.1922 141.085 30.1016 139.963 30.1016C138.839 30.1016 137.929 29.1922 137.929 28.0682C137.929 26.9442 138.839 26.0336 139.963 26.0336C141.085 26.0336 141.996 26.9442 141.996 28.0682Z" fill="#383838"/>
<path d="M141.08 27.936C141.08 28.34 140.752 28.668 140.348 28.668C139.944 28.668 139.617 28.34 139.617 27.936C139.617 27.532 139.944 27.2053 140.348 27.2053C140.752 27.2053 141.08 27.532 141.08 27.936Z" fill="white"/>
<path d="M121.429 48.1783C114.101 44.3477 104.435 43.6343 98.0454 49.345C101.413 47.789 106.565 46.3543 111.683 47.3343C106.504 47.9423 101.743 50.7597 98.6908 54.2331C102.968 51.549 106.417 50.5663 110.457 49.8717C112.745 49.4783 114.737 49.4623 116.849 50.0743C113.976 50.609 111.692 50.7597 108.975 51.9183C106.087 53.1461 102.524 54.7837 101.337 57.917C104.301 55.3451 110.763 53.1851 114.996 52.481C118.929 51.829 119.58 52.0623 121.788 51.1263C122.216 50.945 124.191 49.6223 121.429 48.1783Z" fill="#383838"/>
<path d="M25.156 30.6902C24.7053 29.9556 24.152 29.3329 23.5573 28.7529C8.85734 17.3449 0 17.3449 0 17.3449C0 17.3449 1.23333 18.4836 2.71333 20.6369C4.07866 21.0182 5.768 21.6116 7.74533 22.5489C13.3013 25.1823 22.6347 32.7356 22.6347 32.7356C22.6347 32.7356 14.412 28.8463 8.41199 26.3476C7.17066 25.8303 6.04 25.2529 5.01733 24.6623C5.88533 26.5196 6.66267 28.7169 7.16934 31.2303C9.12667 31.7396 11.2827 32.3943 13.3747 33.2249C18.0333 35.0716 23.5573 37.3649 23.5573 37.3649C23.5573 37.3649 18.1907 36.7316 11.412 35.0316C10.0453 34.6903 8.772 34.3409 7.59866 33.9996C7.66666 34.6529 7.71999 35.3209 7.74533 36.0116C7.79066 37.2049 7.656 38.4636 7.41333 39.7382C7.66133 39.7596 7.90933 39.7836 8.16266 39.8076C14.8253 40.4236 22.912 40.8823 22.912 40.8823C22.912 40.8823 17.5787 42.0916 11.3173 42.6956C9.85333 42.8369 8.27333 42.7943 6.684 42.6596C5.788 45.5383 4.46399 48.3583 3.22799 50.6596C5.16933 50.1929 7.73201 49.5503 10.1907 48.8609C15.0787 47.4863 22.6347 44.2889 22.6347 44.2889C22.6347 44.2889 16.5787 49.3276 9.57866 51.5489C6.17466 52.6304 3.396 53.2741 1.51733 53.6451C0.629334 55.1049 0 56.0117 0 56.0117C0 56.0117 13.3747 54.2331 23.7747 47.3343C25.268 44.8769 26.412 42.3263 26.6787 39.0089C26.904 36.2049 26.6533 33.1302 25.156 30.6902Z" fill="#4354F7"/>
<path d="M22.6347 32.7363C22.6347 32.7363 13.3014 25.183 7.74538 22.5497C5.76804 21.6123 4.07871 21.019 2.71338 20.6377C3.46138 21.723 4.26672 23.063 5.01738 24.663C6.04005 25.2537 7.17071 25.831 8.41204 26.3483C14.412 28.847 22.6347 32.7363 22.6347 32.7363Z" fill="#8098FF"/>
<path d="M23.5574 37.3652C23.5574 37.3652 18.0334 35.0719 13.3748 33.2252C11.2828 32.3946 9.12677 31.7399 7.16943 31.2306C7.34943 32.1172 7.49876 33.0346 7.59876 33.9999C8.7721 34.3412 10.0454 34.6906 11.4121 35.0319C18.1908 36.7319 23.5574 37.3652 23.5574 37.3652Z" fill="#8098FF"/>
<path d="M22.6347 44.2894C22.6347 44.2894 15.0787 47.4867 10.1907 48.8614C7.73201 49.5507 5.16933 50.1934 3.22799 50.66C2.61066 51.8107 2.024 52.8122 1.51733 53.6455C3.396 53.2746 6.17466 52.6308 9.57866 51.5494C16.5787 49.328 22.6347 44.2894 22.6347 44.2894Z" fill="#8098FF"/>
<path d="M11.3174 42.6956C17.5787 42.0916 22.9121 40.8823 22.9121 40.8823C22.9121 40.8823 14.8254 40.4236 8.16274 39.8076C7.90941 39.7836 7.66141 39.7596 7.41341 39.7383C7.22941 40.7063 6.98675 41.6863 6.68408 42.6596C8.27342 42.7943 9.85342 42.837 11.3174 42.6956Z" fill="#8098FF"/>
<path d="M39.4121 19.7051C39.4121 19.7051 45.3014 18.3638 52.5508 17.6504C59.1201 17.0064 67.7454 16.9384 67.7454 16.9384C67.7454 16.9384 60.3294 15.5171 52.5508 16.4557C49.5934 16.8117 40.6948 17.6504 40.6948 17.6504L39.4121 19.7051Z" fill="#8098FF"/>
<path d="M46.9961 12.4561C46.9961 12.4561 52.5788 11.7441 60.4961 11.5161C68.4121 11.2894 74.6628 11.9854 74.6628 11.9854C74.6628 11.9854 66.8841 10.4694 60.8294 9.95605C54.7748 9.44139 51.5241 10.1227 51.5241 10.1227L46.9961 12.4561Z" fill="#8098FF"/>
<path d="M36.4121 25.2051C36.4121 25.2051 42.3254 24.0131 47.8294 23.3771C52.8854 22.7958 59.1628 22.4557 59.1628 22.4557C59.1628 22.4557 53.5788 21.7051 46.9961 22.4557C42.5241 22.9651 36.4121 23.8104 36.4121 23.8104V25.2051Z" fill="#8098FF"/>
<path d="M62.7454 5.03861C62.7454 5.03861 70.6627 5.93861 74.6627 6.57194C78.6627 7.20527 83.6627 8.83594 83.6627 8.83594C83.6627 8.83594 78.848 6.69461 73.912 5.53861C68.9787 4.38394 66.148 4.20527 66.148 4.20527L62.7454 5.03861Z" fill="#8098FF"/>
<path d="M79.0789 1.73848C79.0789 1.73848 86.0789 3.03848 90.4135 4.20514C94.7469 5.37181 101.663 7.64648 101.663 7.64648C101.663 7.64648 94.3309 4.24648 90.9962 3.20514C87.6615 2.16381 84.4962 1.28914 84.4962 1.28914L79.0789 1.73848Z" fill="#8098FF"/>
</svg>
