<svg width="148" height="85" viewBox="0 0 148 85" fill="none" xmlns="http://www.w3.org/2000/svg">
<path d="M131.922 57.0271C131.12 55.6981 129.587 54.6099 127.967 55.2235C125.6 56.1194 124.738 60.6673 123.839 62.7527C121.138 69.0142 119.71 73.9673 122.483 80.5647C122.586 80.8099 122.686 81.0673 122.787 81.3271C127.244 80.2433 130.488 79.0219 133.11 77.8886C129.786 71.2183 135.763 63.4142 131.922 57.0271Z" fill="#383838"/>
<path d="M62.8482 19.0809C58.6709 22.2996 54.2188 24.685 51.1042 29.109C47.5335 34.1809 47.6309 39.5954 46.8442 45.4793C46.2815 49.6834 44.5882 53.1605 42.0522 56.5329C40.4482 58.6673 38.6495 60.6433 37.0242 62.7605C35.7162 64.4689 33.2242 66.9793 33.5882 69.5246C33.6348 69.846 33.7295 70.1594 33.8242 70.4741C37.2482 72.1288 48.1522 75.5876 61.4375 78.3757C66.6842 79.4766 75.3188 80.1954 80.6748 80.2126C92.4588 80.2517 104.287 79.3782 115.855 77.0757C117.635 76.7209 119.39 76.2928 121.142 75.846C120.51 71.3886 121.818 67.4366 123.839 62.7528C124.738 60.6673 125.6 56.1194 127.967 55.2236C129.587 54.61 131.12 55.6981 131.921 57.0272C134.855 61.9048 132.071 67.609 132.07 73.0048C134.098 72.5433 136.11 72.2366 138.206 72.2116C138.636 72.2064 139.063 72.209 139.486 72.21C141.727 72.2209 143.846 72.2314 145.883 71.1809C145.475 70.5329 144.504 70.1261 144.504 70.1261C144.504 70.1261 150.284 68.1996 144.756 65.846C139.267 63.51 138.372 61.2033 134.076 55.4168C129.779 49.6288 131.616 35.2006 124.362 25.8006C117.106 16.3981 103.363 8.87929 87.4509 6.47822C79.3989 5.26369 74.3308 4.24329 66.7375 3.62609C67.1468 5.06209 67.4548 7.29702 67.9975 9.82195C68.8108 13.6048 65.6722 16.9048 62.8482 19.0809Z" fill="#D1A7FC"/>
<path d="M32.9937 70.0245C33.1803 70.1516 33.4777 70.3073 33.8243 70.4756C33.7297 70.1593 33.635 69.8459 33.5883 69.5245C33.2243 66.9792 35.715 64.4688 37.0243 62.7604C38.6497 60.6448 40.4484 58.6672 42.0524 56.5328C44.5884 53.1604 46.2817 49.6833 46.8443 45.4792C47.631 39.5953 47.5337 34.1808 51.1043 29.1089C54.219 24.6849 58.671 22.2995 62.8484 19.0808C65.6723 16.9047 67.6617 12.6057 66.495 8.91826C66.0203 7.41252 65.583 4.92079 65.1417 3.49799C65.699 3.53653 66.207 3.58332 66.7377 3.62599L66.6763 3.40733C60.239 2.95786 47.595 0.993725 40.1217 1.62346C42.7417 2.79799 43.3737 4.22079 37.9817 7.44999C34.251 9.68492 30.9817 13.8141 30.1737 18.3396C28.4417 28.0541 32.9897 39.7765 32.9897 39.7765C32.9897 39.7765 28.531 44.2339 32.9897 48.338C32.4377 49.0885 31.595 50.1432 30.631 51.3953C29.8937 56.4287 27.7683 66.4661 32.9937 70.0245Z" fill="#FEDB00"/>
<path d="M66.4948 8.91852C67.6615 12.606 65.6721 16.9049 62.8481 19.0811C65.6721 16.9049 68.8108 13.6049 67.9975 9.82212C67.4548 7.29719 67.1468 5.06225 66.7375 3.62625C66.2068 3.58359 65.6988 3.53679 65.1415 3.49826C65.5828 4.92106 66.0201 7.41279 66.4948 8.91852Z" fill="#FEDB00"/>
<path d="M80.6749 80.2128C75.3189 80.1956 66.6842 79.4768 61.4376 78.3758C48.1522 75.5877 37.2482 72.1289 33.8242 70.4742C35.7656 76.9862 47.6189 81.7305 57.8656 84.2117C77.8536 85.0997 97.9909 85.181 113.508 83.057C117.127 82.5622 120.159 81.9674 122.787 81.3273C122.686 81.0674 122.586 80.8092 122.483 80.5649C121.783 78.9034 121.354 77.3461 121.142 75.8461C119.39 76.2929 117.635 76.721 115.855 77.0758C104.287 79.3784 92.4589 80.2518 80.6749 80.2128Z" fill="#A072DB"/>
<path d="M138.206 72.2116C136.11 72.2367 134.098 72.5433 132.07 73.0048C132.068 74.6731 132.326 76.3127 133.11 77.8887C136.299 76.5127 138.606 75.27 141.168 74.5819C145.995 73.2851 146.42 72.0272 145.883 71.1809C143.462 72.4288 140.924 72.1793 138.206 72.2116Z" fill="#A072DB"/>
<path d="M51.3349 83.8964C53.5056 84.0109 55.6843 84.1145 57.8656 84.2109C47.6189 81.7297 35.7656 76.9855 33.8243 70.4751C33.4776 70.3068 33.1803 70.1511 32.9936 70.024C27.7683 66.4656 29.8936 56.4281 30.6309 51.3948C28.0949 54.6932 24.6923 59.4213 23.3216 64.0255C19.3309 77.4161 34.8829 83.0308 51.3349 83.8964Z" fill="#FCC000"/>
<path d="M9.62284 41.3434C10.0535 34.8701 13.3255 28.3434 18.5602 24.6851C16.5895 21.9425 14.7989 19.2851 14.7989 19.2851C14.7989 19.2851 2.58686 28.4289 1.70953 41.4247C0.830861 54.421 12.3922 66.2783 12.3922 66.2783C12.3922 66.2783 13.9762 64.5971 15.8842 62.6367C11.1442 56.357 9.08817 49.3595 9.62284 41.3434Z" fill="#FEDB00"/>
<path d="M31.6603 43.9923C31.6603 41.7028 33.5883 39.295 33.5883 39.295C33.5883 39.295 31.5883 37.8695 29.0123 35.7564C23.5683 37.959 22.2163 48.5575 27.6669 52.7324C30.7043 50.6762 33.5883 48.8095 33.5883 48.8095C33.5883 48.8095 31.6603 47.0028 31.6603 43.9923Z" fill="#FEDB00"/>
<path d="M29.0123 35.757C27.0296 34.1315 24.7056 32.0955 22.6883 29.9862C21.6909 28.9434 20.0723 26.7887 18.5603 24.6851C13.3256 28.3434 10.0536 34.8701 9.62294 41.3434C9.08827 49.3595 11.1443 56.357 15.8843 62.6367C17.8963 60.569 20.271 58.1903 21.5456 57.1273C22.7843 56.0929 25.2723 54.3554 27.667 52.733C22.2163 48.5581 23.5683 37.9595 29.0123 35.757Z" fill="#FCC000"/>
<path d="M14.7988 19.2851C14.7988 19.2851 3.9095 28.081 3.8415 41.8247C3.77483 55.5701 12.3921 66.2783 12.3921 66.2783C12.3921 66.2783 -0.157175 56.9997 0.00149199 41.3289C0.173492 24.5315 14.7988 19.2851 14.7988 19.2851Z" fill="#383838"/>
<path d="M38.6454 7.04068C34.2548 8.11255 29.3041 14.2995 28.8934 18.6448C28.6414 21.3208 28.2081 27.0875 31.9494 36.6328C31.0828 31.9219 30.1574 23.0875 30.9988 18.2208C31.7228 14.0355 34.3774 10.086 38.6454 7.04068Z" fill="#383838"/>
<path d="M48.6388 83.71C37.2015 81.6272 30.0548 79.6116 25.3388 74.7023C19.6548 68.7851 30.0695 52.1315 30.0601 52.1424C25.6068 57.3152 18.5255 68.6887 23.0148 75.61C25.1002 78.8247 29.4921 80.71 32.9268 81.8673C37.7161 83.4809 46.5948 84.2116 48.6388 83.71Z" fill="#383838"/>
<path d="M131.618 61.2141C131.618 62.6098 130.487 63.7432 129.09 63.7432C127.694 63.7432 126.56 62.6098 126.56 61.2141C126.56 59.8166 127.694 58.6849 129.09 58.6849C130.487 58.6849 131.618 59.8166 131.618 61.2141Z" fill="white"/>
<path d="M130.715 61.5303C130.715 62.2032 130.169 62.75 129.495 62.75C128.823 62.75 128.276 62.2032 128.276 61.5303C128.276 60.8568 128.823 60.3115 129.495 60.3115C130.169 60.3115 130.715 60.8568 130.715 61.5303Z" fill="#383838"/>
<path d="M130.264 61.2138C130.264 61.5376 130 61.8018 129.676 61.8018C129.352 61.8018 129.09 61.5376 129.09 61.2138C129.09 60.8898 129.352 60.6267 129.676 60.6267C130 60.6267 130.264 60.8898 130.264 61.2138Z" fill="white"/>
<path d="M86.4348 77.2852C80.4602 77.2852 74.4602 76.4649 68.6295 75.2716C62.3495 73.9877 55.7122 71.8477 51.7482 66.4518C43.5575 55.2997 54.6642 43.8596 64.8308 39.8316C69.7415 37.8877 75.1909 36.9701 80.6815 36.9701C84.2575 36.9701 87.8495 37.3581 91.3215 38.106C101.95 40.3972 113.03 46.2434 115.782 56.1929C119.826 70.8076 101.827 76.345 90.7935 77.133C89.3442 77.2357 87.8908 77.2852 86.4348 77.2852Z" fill="#DABAFE"/>
<path d="M85.103 26.305C84.3776 21.9222 82.6296 18.0888 80.135 14.3368C77.7056 10.682 73.835 8.30351 69.567 7.42631C64.2576 6.33831 59.9563 5.71177 54.631 6.88631C70.155 8.37591 75.3336 13.4836 78.7043 23.365C79.2416 24.9451 79.8483 27.0702 79.3243 28.665C78.5096 31.1426 76.523 31.8008 74.4443 32.4743C71.5683 33.4076 68.5256 34.0222 65.591 34.7451C61.0056 35.8732 56.3763 36.8544 51.7883 37.9811C53.4456 37.1144 55.3456 36.6639 57.163 36.094C59.9656 35.2211 62.719 34.2024 65.419 33.0503C67.7817 32.041 73.5336 30.4691 74.495 27.6316C75.4456 24.8263 72.3936 19.2092 70.8776 17.0008C69.843 15.4972 67.667 13.3795 65.715 12.241C63.699 11.0639 58.2616 9.43311 54.327 9.30498C55.5536 9.83578 59.0403 11.1426 60.8576 12.8519C62.0483 13.9727 63.283 15.8811 62.6177 17.2983C60.5243 21.7555 55.2123 23.4435 51.8283 27.0035C49.3803 29.5811 48.2857 32.3664 47.6177 35.4727C46.467 40.8358 46.851 45.182 44.231 51.2342C42.355 55.5702 40.663 58.1435 37.0936 62.1024C35.5683 63.793 32.6856 67.4768 33.7683 70.3623C34.6123 65.053 38.4496 62.6555 41.2963 58.6852C44.9536 53.582 45.8856 50.7154 48.0616 46.6331C51.1256 40.8852 59.7576 39.4222 65.599 38.2795C71.339 37.1555 76.6456 36.6811 82.0763 34.3888C85.6563 32.8784 85.6523 29.6186 85.103 26.305Z" fill="#383838"/>
<path d="M89.3816 5.43271C73.3296 1.47911 56.0522 -0.604759 39.2682 0.155107C23.3216 0.87804 0.000244141 5.08737 0.000244141 5.08737C0.000244141 5.08737 24.6989 4.22071 36.4736 3.76871C47.6722 3.33791 63.0563 4.54218 75.3536 6.04311C80.9976 8.72444 86.4576 16.654 87.9629 22.7791C88.5896 25.3312 89.9469 29.1884 89.5629 31.79C88.8029 36.9474 76.4682 38.9218 72.2989 39.7832C63.5869 41.5832 53.5802 44.9567 48.0256 50.6458C55.7362 46.4218 65.1322 44.0635 73.6309 42.2458C79.2149 41.0526 85.9656 38.9483 91.9376 38.4671C93.1109 38.3712 95.5203 40.3952 92.4189 41.8244C89.3523 43.2379 84.8869 43.8192 81.8216 44.2458C76.9709 44.9182 72.8443 46.127 68.0509 47.127C60.8723 48.6259 51.1109 52.7327 46.3536 55.9755C54.6043 52.7327 62.9082 50.6056 71.5242 48.8698C75.7149 48.0259 80.2109 47.5739 84.4456 46.9926C89.2083 46.3395 93.1109 44.9327 96.5203 46.09C98.3203 46.702 98.0789 48.4483 95.8509 49.0499C92.4416 49.9723 85.5523 51.5259 83.3856 51.8207C79.0923 52.4062 56.1083 56.4567 46.4149 61.515C53.8789 60.1207 63.8536 57.9046 69.8976 56.9379C71.7869 56.6364 89.8762 54.3234 99.1029 52.7327C102.535 52.1422 103.799 55.3124 101.15 55.7338C100.604 56.0004 80.9482 60.1884 76.4016 60.9739C66.9576 62.602 55.0856 65.9712 49.3349 68.4406C67.6629 65.5114 84.8509 62.4114 103.228 59.8098C104.528 59.6259 108.676 59.9499 106.575 61.9218C106.147 62.3259 99.0523 64.6192 96.8149 65.2483C92.3589 66.4994 87.4242 67.814 82.9042 68.802C73.7136 70.8088 64.9109 73.2723 55.6869 75.1234C72.5016 73.5474 92.1789 69.2911 109.67 64.4364C112.168 63.7431 112.288 65.0114 111.568 66.1072C110.98 67.0046 106.028 69.2114 104.574 69.778C102.112 70.7379 99.5789 71.4859 97.0656 72.2936C92.1962 73.8592 86.1122 75.1698 81.3989 77.1816C88.7456 76.1458 94.7629 74.7244 100.126 73.0764C104.178 71.8312 108.486 70.478 112.108 68.1884C113.74 67.1567 116.387 65.5072 115.602 63.2004C115.182 61.9723 112.644 60.7312 111.643 59.9244C108.143 57.1031 102.255 49.6114 100.35 45.927C98.1336 41.6431 96.2829 35.9526 95.0749 32.5728C94.1082 29.8712 91.9589 22.6458 91.4549 21.3515C89.1882 15.5302 87.2989 9.77231 81.9536 6.92071C88.2643 7.32071 90.9843 12.3338 92.7189 15.8114C94.8269 20.0327 96.7963 26.29 98.3203 30.7458C100.591 37.3874 107.352 52.5422 113.192 55.614C107.171 47.4848 102.454 36.8619 99.4642 25.9874C97.7802 19.8687 94.2842 11.5968 91.6949 8.58591C96.5136 9.66978 102.32 25.314 105.184 33.6968C107.164 39.49 110.784 47.7259 116.023 51.8207C113.072 47.1848 110.622 41.3968 109.159 37.1884C107.65 32.8474 106.64 28.2379 105.184 23.8807C103.847 19.8807 101.347 14.0088 98.9216 10.5739C102.234 11.2354 107.86 22.1379 110.423 28.7578C111.842 32.4244 117.419 45.8698 119.636 47.7259C117.167 41.4031 114.555 32.0807 113.192 27.2526C111.666 21.8406 109.346 16.6447 105.546 12.5603C108.627 13.578 112.931 18.9431 115.662 23.9406C122.046 35.6234 124.011 44.9422 124.032 45.1364C124.032 38.1848 121.06 22.2431 112.651 15.39C107.772 11.4166 100.042 8.05671 89.3816 5.43271Z" fill="#383838"/>
</svg>
