<svg width="138" height="74" viewBox="0 0 138 74" fill="none" xmlns="http://www.w3.org/2000/svg">
<path d="M74.2683 57.6597C74.2683 57.6597 76.479 63.5247 77.643 66.0529C78.8083 68.5795 79.2523 69.9129 80.1417 71.1357C81.0297 72.3581 83.0443 69.8571 83.8083 65.469C84.8377 59.5529 84.1203 56.3023 84.1203 56.3023L74.2683 57.6597Z" fill="#E8571F"/>
<path d="M65.5762 55.5588C65.5762 55.5588 64.7322 65.2604 63.1549 72.5536C62.9509 74.4698 65.8655 73.5802 69.4882 70.8458C73.5709 67.762 75.3962 65.6312 76.6202 57.9953C77.8429 50.3588 65.5762 55.5588 65.5762 55.5588Z" fill="#FF6E2E"/>
<path d="M67.7842 55.5585C67.7842 55.5585 67.1789 59.4867 66.4189 63.6175C65.5509 68.3347 64.7349 71.7617 64.7349 71.7617C64.7349 71.7617 71.3322 69.1028 73.0709 63.7028C74.8122 58.3028 75.1522 55.3456 75.1522 55.3456L67.7842 55.5585Z" fill="#383838"/>
<path d="M49.8002 51.6641C49.8002 51.6641 51.3922 51.4532 53.3456 51.1949L43.4816 46.4678L37.6535 49.3693C37.6535 49.3693 38.7016 53.9856 36.6136 58.3318C35.4269 60.7985 33.7402 63.1069 32.4976 64.6465C35.9562 63.537 42.6682 61.1668 45.1976 58.7465C49.0856 55.025 49.8002 51.6641 49.8002 51.6641Z" fill="#383838"/>
<path d="M33.727 65.858C36.5483 65.0904 41.8203 64.1008 44.947 61.8023C51.1977 57.2076 55.3643 52.1612 55.3643 52.1612L53.3457 51.1946C51.3923 51.4528 49.8004 51.6638 49.8004 51.6638C49.8004 51.6638 49.0857 55.0247 45.1977 58.7462C42.6683 61.1664 35.9563 63.5367 32.4977 64.6462L32.295 64.8998C31.4537 65.9279 32.0137 66.3263 33.727 65.858Z" fill="#FF6E2E"/>
<path d="M67.7844 2.30256C64.5364 0.47349 64.3644 3.63589 64.3644 3.63589C64.735 11.8864 63.3284 17.624 63.3284 17.624L76.7564 13.6052C74.527 10.1359 70.1444 3.63176 67.7844 2.30256Z" fill="#383838"/>
<path d="M68.9189 0.807073C62.9189 -1.64146 64.2949 2.1216 64.3643 3.63613C64.3643 3.63613 64.5363 0.473734 67.7843 2.3028C70.1443 3.632 74.5269 10.1361 76.7563 13.6055L80.8163 12.3909C80.8163 12.3909 74.9189 3.25601 68.9189 0.807073Z" fill="#E8571F"/>
<path d="M34.659 40.7174C34.8497 36.1773 31.679 32.495 31.9057 28.0414C31.9657 26.8508 32.275 25.7388 32.779 24.732C31.3337 24.0762 14.0257 16.1866 7.57637 10.7346C5.1577 8.69089 3.37636 7.61996 2.20303 7.39862C6.60836 12.4866 11.7497 16.6508 16.7244 21.2148C21.135 25.2617 26.5204 29.5669 26.1417 36.1361C25.7617 42.7081 21.367 45.0346 14.8084 48.6918C10.235 51.2429 5.0257 54.0216 0.311035 57.2081C1.4857 58.3909 5.64703 56.9226 6.56836 56.5388C13.4377 53.6773 28.919 45.8242 34.3044 45.7456L34.4484 45.7549C34.3644 44.0961 34.591 42.3653 34.659 40.7174Z" fill="#FF6E2E"/>
<path d="M26.1417 36.136C26.5203 29.5668 21.135 25.2616 16.7243 21.2147C11.7497 16.6507 6.60833 12.4865 2.203 7.39854C0.106998 7.00374 -0.0249958 9.35321 1.79234 13.9575C3.735 18.8761 10.6123 26.7496 14.7563 31.2293C16.667 33.2917 17.2217 35.2813 15.6137 36.8881C13.2363 39.2641 9.03767 43.7403 2.82967 51.3251C-0.0209918 54.808 -0.400994 56.4933 0.311006 57.208C5.02567 54.0215 10.235 51.2428 14.8083 48.6917C21.367 45.0345 25.7617 42.708 26.1417 36.136Z" fill="#E8571F"/>
<path d="M129.572 51.279C133.514 49.468 135.759 47.9748 136.7 46.4482C130.399 46.5216 126.208 50.2467 119.142 51.6643C111.371 53.2227 100.362 53.5722 91.3069 53.5216C91.3709 55.1268 91.5056 56.732 91.7456 58.332C112.843 57.1602 122.044 54.7388 129.572 51.279Z" fill="#E8571F"/>
<path d="M79.6709 58.7471C78.1643 56.9657 76.9989 54.8127 76.0989 52.5195C70.0909 51.534 64.291 49.8537 58.3616 47.8059C56.7443 47.2471 55.0976 46.7127 53.4336 46.246C52.511 48.2075 51.2296 49.9955 49.8003 51.6647C57.9403 54.9991 68.3789 58.5324 79.6709 58.7471Z" fill="#E8571F"/>
<path d="M91.2802 50.9392C91.2922 50.1887 91.3256 49.4419 91.3762 48.6955L91.3989 48.3804C91.4536 47.646 91.5229 46.9152 91.6136 46.1861L91.6563 45.8621L91.6962 45.5632C85.9736 46.7632 79.9589 46.8152 74.2056 45.6778C74.2296 45.7991 74.2442 45.9179 74.2682 46.0408C74.3242 46.3256 74.3842 46.6111 74.4456 46.898C74.5989 47.6086 74.7762 48.3204 74.9709 49.0324C75.0322 49.258 75.0869 49.4829 75.1522 49.7085C75.4296 50.658 75.7389 51.6007 76.0989 52.5195C76.9989 54.8127 78.1642 56.9658 79.6709 58.7471C80.6496 58.7658 81.6323 58.7684 82.6229 58.7351C85.8963 58.6247 88.9229 58.4887 91.7456 58.3324C91.3869 55.9502 91.2482 53.5564 91.2776 51.171L91.2802 50.9392Z" fill="#383838"/>
<path d="M100.047 24.7558C99.7722 25.1359 99.5015 25.5173 99.2375 25.9053C99.5015 25.5173 99.7722 25.1345 100.047 24.7558Z" fill="#FF6E2E"/>
<path d="M101.726 22.587C101.4 22.9818 101.079 23.3752 100.77 23.7793C101.079 23.3752 101.4 22.9804 101.726 22.587Z" fill="#FF6E2E"/>
<path d="M76.099 52.5195C75.739 51.6007 75.4297 50.6581 75.1523 49.7086C75.4297 50.659 75.739 51.6007 76.099 52.5195Z" fill="#FF6E2E"/>
<path d="M74.2683 46.04C74.2443 45.9171 74.2296 45.7983 74.2056 45.677L74.1936 45.6744C74.2163 45.7958 74.2456 45.9187 74.2683 46.04Z" fill="#FF6E2E"/>
<path d="M74.4456 46.8978C74.5989 47.6098 74.7762 48.3193 74.9709 49.0322C74.7762 48.3202 74.5989 47.6084 74.4456 46.8978Z" fill="#FF6E2E"/>
<path d="M95.5136 32.5107C95.2736 33.031 95.0323 33.5509 94.8123 34.0801C95.0323 33.5509 95.2749 33.031 95.5136 32.5107Z" fill="#FF8555"/>
<path d="M73.8057 43.2774C73.8403 43.5295 73.8843 43.7858 73.923 44.043C73.8843 43.7883 73.8403 43.5284 73.8057 43.2774Z" fill="#FF8555"/>
<path d="M97.1443 29.292L97.159 29.2681H97.1576L97.1443 29.292Z" fill="#FF8555"/>
<path d="M94.6975 34.3719C93.5055 37.2907 92.6162 40.3281 92.0388 43.4307C92.6135 40.3281 93.5081 37.2907 94.6975 34.3719Z" fill="#FF8555"/>
<path d="M91.6963 45.5625L91.703 45.5614C91.7883 44.9292 91.8803 44.2984 91.9923 43.6692C91.879 44.2984 91.783 44.9292 91.6963 45.5625Z" fill="#FF8555"/>
<path d="M92.0389 43.4313C92.6162 40.3287 93.5055 37.2913 94.6975 34.3725L94.8122 34.0803C95.0322 33.5511 95.2735 33.0313 95.5135 32.511C95.6442 32.2255 95.7709 31.9391 95.9069 31.6563C96.1269 31.2031 96.3615 30.7589 96.5962 30.3137C96.7762 29.9709 96.9549 29.6298 97.1442 29.2922L97.1576 29.2683C96.9376 29.1818 96.7175 29.0979 96.4989 29.0219C92.5789 27.6323 83.3629 26.5683 75.0629 27.2391C73.8189 31.5751 73.1202 36.0298 73.5162 40.711C73.5855 41.5323 73.6855 42.3979 73.8055 43.2777C73.8402 43.5287 73.8842 43.7886 73.9229 44.0433C74.0042 44.5803 74.1029 45.1287 74.2055 45.6777C79.9589 46.8151 85.9735 46.7631 91.6962 45.5631C91.7829 44.9298 91.8789 44.299 91.9922 43.6698L92.0389 43.4313Z" fill="#494949"/>
<path d="M96.5962 30.3131C96.3615 30.7583 96.1269 31.2026 95.9069 31.6558C95.7709 31.9386 95.6442 32.225 95.5136 32.5105C95.2749 33.0307 95.0322 33.5506 94.8122 34.0798L94.6975 34.3719C93.5082 37.2907 92.6136 40.3282 92.0389 43.4307L91.9922 43.6693C91.8802 44.2985 91.7882 44.9293 91.7029 45.5615C93.3682 45.2121 95.0109 44.7761 96.6136 44.2307C100.083 43.0506 104.083 41.0917 103.884 36.8438C103.702 32.9667 100.475 30.5813 97.1589 29.2678L97.1442 29.2917C96.9549 29.6293 96.7762 29.9703 96.5962 30.3131Z" fill="#FF8555"/>
<path d="M73.8055 43.2773C73.6855 42.3961 73.5855 41.532 73.5162 40.7107C73.1202 36.0295 73.8188 31.5748 75.0628 27.2388C67.1002 27.8831 59.9788 30.1252 59.1962 35.2295C58.6348 38.8909 61.8228 41.2013 64.7548 42.5883C67.7455 44.0039 70.9268 45.0268 74.1935 45.6748C74.0908 45.1227 74.0042 44.5831 73.9228 44.0429C73.8842 43.7857 73.8402 43.5295 73.8055 43.2773Z" fill="#FF8555"/>
<path d="M73.5164 40.7107C73.5857 41.532 73.6857 42.3961 73.8057 43.2773C73.6857 42.3976 73.5857 41.532 73.5164 40.7107Z" fill="#FF8555"/>
<path d="M74.1935 45.6752L74.2055 45.6777C74.1029 45.1288 74.0042 44.5804 73.9229 44.0433C74.0042 44.5835 74.0909 45.1231 74.1935 45.6752Z" fill="#FF8555"/>
<path d="M54.0163 44.8547C54.179 44.4105 54.3257 43.9615 54.4443 43.4974C55.9163 37.7693 51.567 30.4495 56.455 25.8479C59.9363 22.5693 65.379 22.2865 69.447 19.9798C71.4257 18.8574 73.1003 17.3719 74.471 15.6427C60.207 16.1651 49.843 21.6855 43.4817 24.2678C36.0443 27.2881 32.779 24.7318 32.779 24.7318C32.275 25.7386 31.9656 26.8506 31.9056 28.0413C31.679 32.4949 34.8497 36.1771 34.659 40.7173C34.591 42.3651 34.3643 44.0959 34.4483 45.7547C36.979 45.8214 42.451 48.6547 49.8003 51.6641C51.2297 49.9949 52.511 48.2069 53.435 46.2438C53.6256 45.837 53.8003 45.4214 53.9603 45.0001L54.0163 44.8547Z" fill="#383838"/>
<path d="M106.052 20.2459C106.064 25.874 107.778 31.4312 110.252 36.5484C113.418 43.0912 115.775 45.2792 117.61 47.1828C120.03 49.6921 121.808 48.9136 121.284 46.6953C120.199 42.0989 120.12 37.1041 120.232 35.3109C120.696 27.8031 124.84 32.6125 127.363 35.0469C129.2 36.8193 132.582 39.8417 135.776 41.1349C135.191 40.3041 134.456 39.4099 133.574 38.4099C132.048 36.6844 129.776 33.5177 126.079 29.7193C123.686 29.2297 120.768 28.1511 117.607 25.9057C114.523 23.7125 110.799 21.8193 106.052 20.2459Z" fill="#383838"/>
<path d="M99.2377 25.905C99.5017 25.517 99.7723 25.1357 100.047 24.7556C100.286 24.428 100.523 24.1009 100.77 23.7785C101.079 23.3744 101.4 22.981 101.726 22.5862C101.959 22.2998 102.191 22.0118 102.434 21.7316C102.814 21.293 103.208 20.8665 103.606 20.4425C103.814 20.2196 104.014 19.9914 104.227 19.7733L104.303 19.6982C98.515 17.9649 91.2963 16.6638 82.0297 15.8305C81.1377 15.7493 80.271 15.7066 79.403 15.6665C77.7683 19.4758 76.191 23.3077 75.063 27.2384C83.363 26.5676 92.579 27.6316 96.499 29.0212C96.7177 29.0972 96.9377 29.181 97.1577 29.2676C97.3803 28.8701 97.611 28.4796 97.8443 28.0905C98.0657 27.7212 98.291 27.3545 98.523 26.9889C98.7563 26.6248 98.995 26.2624 99.2377 25.905Z" fill="#383838"/>
<path d="M135.776 41.1348C132.582 39.8416 129.2 36.8192 127.363 35.0468C124.84 32.6124 120.696 27.803 120.232 35.3108C120.12 37.104 120.199 42.0988 121.284 46.6952C121.808 48.9135 120.03 49.692 117.61 47.1827C115.775 45.2791 113.418 43.0911 110.252 36.5483C107.778 31.4311 106.064 25.8739 106.052 20.2458C105.486 20.0587 104.899 19.8775 104.303 19.6988L104.227 19.7739C104.014 19.992 103.814 20.2202 103.606 20.4431C103.208 20.8671 102.814 21.2936 102.434 21.7322C102.191 22.0124 101.959 22.3004 101.726 22.5868C101.4 22.9816 101.079 23.375 100.77 23.7791C100.523 24.1015 100.286 24.4286 100.047 24.7562C99.7722 25.1363 99.5016 25.5176 99.2376 25.9056C98.9949 26.263 98.7562 26.6254 98.5229 26.9895C98.2909 27.3551 98.0656 27.7218 97.8442 28.0911C97.6109 28.4802 97.3802 28.8707 97.1589 29.2682C100.475 30.5816 103.702 32.9671 103.884 36.8442C104.083 41.092 100.083 43.051 96.6136 44.2311C95.0109 44.7764 93.3682 45.2124 91.7029 45.5619L91.6562 45.8619L91.6136 46.1859C91.5229 46.9135 91.4535 47.6468 91.3989 48.3802L91.3762 48.6952C91.3269 49.4416 91.2922 50.1884 91.2802 50.939L91.2776 51.1707C91.2682 51.9535 91.2749 52.739 91.3069 53.5218C100.362 53.5723 111.371 53.2228 119.142 51.6644C126.208 50.2468 130.399 46.5218 136.7 46.4483C137.683 44.851 137.24 43.2135 135.776 41.1348Z" fill="#FF6E2E"/>
<path d="M74.4709 15.6434C73.1002 17.3726 71.4256 18.8581 69.4469 19.9805C65.3789 22.2871 59.9362 22.5699 56.4549 25.8486C51.5669 30.4502 55.9163 37.7699 54.4443 43.4981C54.3256 43.9622 54.1776 44.4101 54.0163 44.8554L53.9603 45.0007C53.8029 45.4231 53.6256 45.8377 53.4349 46.2445L53.4336 46.2461C55.0976 46.7127 56.7443 47.2471 58.3616 47.8059C64.2909 49.8538 70.0909 51.5341 76.0989 52.5195C75.7389 51.6007 75.4296 50.659 75.1523 49.7086C75.0856 49.483 75.0322 49.2581 74.9709 49.0325C74.7762 48.3195 74.5989 47.6101 74.4456 46.8981C74.3829 46.6101 74.3242 46.3273 74.2682 46.0409C74.2456 45.9195 74.2163 45.7966 74.1936 45.6753C70.9269 45.0273 67.7456 44.0043 64.7549 42.5887C61.8229 41.2018 58.6349 38.8914 59.1963 35.2299C59.9789 30.1257 67.1002 27.8835 75.0629 27.2393C76.1909 23.3086 77.7682 19.4767 79.4029 15.6674C77.7096 15.5887 76.0669 15.5846 74.4709 15.6434Z" fill="#FF6E2E"/>
<path d="M53.4348 46.2441C53.6255 45.8373 53.8028 45.4228 53.9602 45.0004C53.8002 45.4217 53.6255 45.8373 53.4348 46.2441Z" fill="#FF6E2E"/>
<path d="M54.4444 43.4972C54.3257 43.9613 54.179 44.4102 54.0164 44.8545C54.1777 44.4092 54.3257 43.9613 54.4444 43.4972Z" fill="#FF6E2E"/>
<path d="M43.4815 24.268C49.8428 21.6857 60.2068 16.1653 74.4708 15.6429C75.1695 14.7617 75.7921 13.8216 76.3268 12.8243C73.9935 13.1243 71.6148 13.5243 69.1895 14.0456C54.0161 17.3013 45.1481 20.92 32.8855 24.78L32.7788 24.732C32.7788 24.732 36.0441 27.2883 43.4815 24.268Z" fill="#494949"/>
<path d="M114.765 20.2426C106.068 14.3036 94.3668 11.4478 80.8162 12.3906C80.3455 13.4811 79.8735 14.5745 79.4028 15.6666C80.2708 15.7068 81.1375 15.7494 82.0295 15.8306C91.2962 16.6639 98.5148 17.965 104.303 19.6984C104.899 19.088 105.51 18.4906 106.144 17.913C106.078 18.6916 106.051 19.4692 106.052 20.2453C110.799 21.8188 114.523 23.712 117.607 25.9052C120.768 28.1505 123.686 29.2291 126.079 29.7188C123.247 26.8093 119.58 23.5306 114.765 20.2426Z" fill="#494949"/>
<path d="M104.303 19.6992C104.899 19.8778 105.486 20.059 106.052 20.2461C106.051 19.47 106.078 18.6924 106.144 17.9138C105.51 18.4914 104.899 19.0888 104.303 19.6992Z" fill="#FF8555"/>
<path d="M76.3269 12.8243C75.7923 13.8217 75.1696 14.7618 74.4709 15.643C76.0669 15.5842 77.7096 15.5883 79.4029 15.667C79.8736 14.5749 80.3456 13.4815 80.8163 12.391C79.339 12.4935 77.8456 12.631 76.3269 12.8243Z" fill="#FF8555"/>
<path d="M119.195 35.1657C119.195 36.8684 117.815 38.2471 116.114 38.2471C114.41 38.2471 113.03 36.8684 113.03 35.1657C113.03 33.4647 114.41 32.0835 116.114 32.0835C117.815 32.0835 119.195 33.4647 119.195 35.1657Z" fill="white"/>
<path d="M118.278 35.1654C118.278 36.1243 117.502 36.9014 116.543 36.9014C115.584 36.9014 114.808 36.1243 114.808 35.1654C114.808 34.2071 115.584 33.431 116.543 33.431C117.502 33.431 118.278 34.2071 118.278 35.1654Z" fill="#383838"/>
<path d="M117.607 34.9735C117.607 35.3855 117.272 35.7197 116.859 35.7197C116.447 35.7197 116.114 35.3855 116.114 34.9735C116.114 34.5615 116.447 34.2265 116.859 34.2265C117.272 34.2265 117.607 34.5615 117.607 34.9735Z" fill="white"/>
<path d="M100.778 45.2601C96.6949 44.9721 91.3656 44.6361 88.4229 44.6164C83.2149 44.58 81.9403 46.8508 84.0216 49.1601C86.1043 51.4695 89.6376 52.4071 94.6483 50.9388C96.8016 50.3071 99.2589 49.2467 101.364 48.2429C100.91 47.2909 100.691 46.2585 100.778 45.2601Z" fill="#E8571F"/>
</svg>
