<svg width="174" height="77" viewBox="0 0 174 77" fill="none" xmlns="http://www.w3.org/2000/svg">
<path d="M51.4615 31.832C51.4615 31.832 47.2055 31.2027 45.2962 29.0907C42.9629 26.5121 48.1749 22.816 57.5189 16.98C66.1122 11.612 79.0308 4.20268 96.0748 1.98001C113.118 -0.242655 128.675 2.18801 136.852 5.31334C147.742 9.47601 154.592 18.7574 154.592 18.7574L51.4615 31.832Z" fill="#8098FF"/>
<path d="M109.533 73.999C98.0228 70.6484 87.2481 65.4044 76.5308 60.1124C71.4934 57.6257 66.4521 55.1417 61.3121 52.8764C58.4494 51.6164 53.9481 48.6577 50.7734 50.3257C50.6907 50.2377 50.5801 50.171 50.4308 50.159C47.4294 49.9097 42.3628 48.059 41.7681 50.3777C41.0641 53.1324 43.1707 55.5364 45.6467 58.1097C49.9187 62.5497 63.9974 70.2004 70.2588 72.391C82.8534 76.795 96.4441 77.7804 109.533 75.2337C110.179 75.1097 110.107 74.1657 109.533 73.999Z" fill="#8098FF"/>
<path d="M88.4413 41.2418C91.8307 40.3071 94.8507 38.7698 98.388 38.3218C101.887 37.8778 105.421 38.0924 108.936 38.0964C112.352 38.1004 115.771 37.8858 119.015 36.7218C122.24 35.5645 126.84 32.5484 126.631 28.5298C126.367 23.4658 118.488 22.9991 114.888 22.5711C112.76 22.3178 110.612 22.1645 108.461 22.0911C101.508 22.3951 94.5173 23.6085 88.4507 27.1898C85.268 29.0671 81.972 31.7418 80.1653 35.0418C76.9627 40.8911 84.524 42.3218 88.4413 41.2418Z" fill="#4354F7"/>
<path d="M148.424 68.87C160.344 64.1887 167.13 58.5887 170.259 55.478C169.387 54.5633 167.759 52.87 167.759 52.87C167.759 52.87 173.894 51.5007 173.428 47.046C172.852 41.518 167.186 23.6474 146.852 13.2034C143.752 11.6114 139.696 10.3554 135.035 9.47668C146.019 14.758 155.362 22.986 158.919 32.5367C160.408 36.5367 159.796 41.362 155.195 41.1594C149.36 40.9034 149.48 33.5314 146.809 30.026C144.718 27.2834 141.323 25.5607 137.998 24.826C133.738 23.8834 131.558 26.8394 129.186 32.9807C127.732 36.7434 124.741 40.314 121.408 42.9807C115.031 48.0834 106.636 50.0047 98.6442 51.03C87.8788 52.41 76.9082 51.398 66.0868 51.8113C63.1122 51.9247 60.1375 52.0433 57.1655 52.1073C62.6295 55.8327 72.5282 61.8247 84.0828 65.314C101.742 70.6474 130.887 75.758 148.424 68.87Z" fill="#4354F7"/>
<path d="M49.3347 52.0894C55.5814 56.6707 64.0961 62.544 74.1721 66.792C97.1854 76.4934 120.793 77.3987 135.185 76.2027C157.069 74.384 167.487 63.3333 170.769 59C171.588 57.9213 171.685 56.98 170.575 55.8093C170.488 55.7187 170.38 55.6053 170.259 55.4773C167.129 58.588 160.344 64.188 148.424 68.8693C130.887 75.7573 101.741 70.6467 84.0827 65.3133C72.528 61.824 62.6294 55.832 57.1654 52.1067C54.5507 52.1627 51.9387 52.1774 49.3347 52.0894Z" fill="#334BDD"/>
<path d="M158.919 32.5367C155.361 22.986 146.613 13.2794 135.035 9.4767C117.564 3.73804 95.0747 5.09138 72.6 19.4914C60.66 27.1434 48.5186 32.614 39.852 31.37C37.1267 30.978 27.8053 26.6274 20.3506 24.6474C8.65332 21.542 0 21.0914 0 21.0914C0 21.0914 1.008 23.0527 2.064 25.846C6.11333 26.5954 10.656 27.2234 12.8773 27.6394C23.436 29.614 33.552 33.366 42.9547 38.5274C29.964 42.874 16.4 45.4127 2.70798 45.9074C1.78664 48.53 0.843978 50.23 0.843978 50.23C0.843978 50.23 11.7427 50.7274 22.852 48.5367C29.404 47.2447 36.1 44.258 39.0533 45.0754C40.7373 45.542 44.3 48.3954 49.3347 52.09C54.9 52.2767 60.496 52.0247 66.0866 51.8114C67.5986 51.7527 69.1147 51.726 70.632 51.714C69.9173 50.706 69.3 49.6167 68.8333 48.4167C65.868 40.794 71.7973 33.1474 77.1667 28.3167C85.4733 20.846 96.4413 17.714 107.239 18.1487C116.737 18.5314 127.28 20.9527 132.533 26.6354C133.984 24.9607 135.684 24.3141 137.997 24.8261C141.323 25.5607 144.717 27.2834 146.809 30.0261C149.48 33.5314 149.36 40.9034 155.195 41.1594C159.796 41.3621 160.408 36.5367 158.919 32.5367Z" fill="#383838"/>
<path d="M114.888 22.5711C112.76 22.3178 110.612 22.1645 108.461 22.0911C101.508 22.3951 94.5173 23.6085 88.4507 27.1898C85.268 29.0671 81.972 31.7418 80.1653 35.0418C76.9627 40.8911 84.524 42.3218 88.4413 41.2418C91.8307 40.3071 94.8507 38.7698 98.388 38.3218C101.887 37.8778 105.421 38.0924 108.936 38.0964C112.352 38.1004 115.771 37.8858 119.015 36.7218C122.24 35.5645 126.84 32.5484 126.631 28.5298C126.367 23.4658 118.488 22.9991 114.888 22.5711Z" fill="#5069FF"/>
<path d="M121.408 42.9804C115.031 48.0831 106.636 50.0044 98.6441 51.0297C89.3841 52.2164 79.9721 51.6378 70.6321 51.7138C74.7787 57.5618 82.6614 60.3151 89.2961 60.9804C105.527 62.6098 126.975 59.8484 134.299 42.2671C137.145 35.4351 135.963 30.3431 132.533 26.6351C131.313 28.0431 130.268 30.1751 129.185 32.9804C127.732 36.7431 124.741 40.3138 121.408 42.9804Z" fill="#5069FF"/>
<path d="M119.015 36.7216C115.771 37.8856 112.352 38.1002 108.936 38.0962C105.421 38.0922 101.887 37.8776 98.388 38.3216C94.8507 38.7696 91.8307 40.3069 88.4414 41.2416C84.524 42.3216 76.9627 40.8909 80.1654 35.0416C81.972 31.7416 85.268 29.0669 88.4507 27.1896C94.5174 23.6083 101.508 22.3949 108.461 22.0909C110.612 22.1643 112.76 22.3176 114.888 22.5709C118.488 22.9989 126.367 23.4656 126.631 28.5296C126.84 32.5482 122.24 35.5643 119.015 36.7216ZM107.239 18.1483C96.4414 17.7136 85.4734 20.8456 77.1667 28.3163C71.7974 33.1469 65.868 40.7936 68.8334 48.4163C69.3 49.6163 69.9174 50.7056 70.632 51.7136C79.972 51.6376 89.384 52.2162 98.644 51.0296C106.636 50.0042 115.031 48.0829 121.408 42.9803C124.741 40.3136 127.732 36.7429 129.185 32.9803C130.268 30.1749 131.313 28.0429 132.533 26.6349C127.28 20.9523 116.737 18.5309 107.239 18.1483Z" fill="#494949"/>
<path d="M158 35.2408C158 37.1221 156.475 38.6475 154.592 38.6475C152.709 38.6475 151.185 37.1221 151.185 35.2408C151.185 33.3581 152.709 31.8328 154.592 31.8328C156.475 31.8328 158 33.3581 158 35.2408Z" fill="white"/>
<path d="M156.768 35.4951C156.768 36.3925 156.04 37.1191 155.144 37.1191C154.247 37.1191 153.519 36.3925 153.519 35.4951C153.519 34.5965 154.247 33.8698 155.144 33.8698C156.04 33.8698 156.768 34.5965 156.768 35.4951Z" fill="#383838"/>
<path d="M156.257 35.0741C156.257 35.4675 155.939 35.7861 155.545 35.7861C155.152 35.7861 154.835 35.4675 154.835 35.0741C154.835 34.6821 155.152 34.3621 155.545 34.3621C155.939 34.3621 156.257 34.6821 156.257 35.0741Z" fill="white"/>
<path d="M155.963 58.9246C151.195 57.878 147.011 56.0233 144.629 51.6473C143.121 48.8753 142.439 47.986 143.796 45.0366C144.423 43.6766 145.241 41.258 145.519 38.6473C144.511 40.682 141.361 44.2833 140.963 46.5913C140.588 48.7686 141.664 51.2646 142.741 53.0913C145.273 57.3953 150.741 59.4246 155.963 58.9246Z" fill="#383838"/>
<path d="M130.963 50.9804C130.963 50.9804 114.629 50.091 110.265 57.5364C106.263 64.3644 111.265 71.0484 119.225 66.7924C127.185 62.5364 130.963 50.9804 130.963 50.9804Z" fill="#FEDB00"/>
<path d="M122.185 53.5365C115.144 55.8911 112.748 60.2031 112.748 60.2031C112.748 60.2031 117.4 56.9165 120.268 56.2658C119.748 56.6818 116.921 59.1818 115.477 61.1818C114.032 63.1818 112.748 65.3698 112.748 65.3698C112.748 65.3698 116.685 61.1405 120.727 58.4738C119.852 59.3871 118.303 61.3338 116.852 63.3138C115.789 64.7658 115.268 66.3485 115.268 66.3485C115.268 66.3485 118.253 62.9031 122.519 60.2858C118.727 64.9325 117.811 66.6191 117.811 66.6191C117.811 66.6191 123.965 63.0858 125.503 61.2005C129.144 56.7445 130.531 52.1551 130.531 52.1551C130.531 52.1551 125.255 52.5098 122.185 53.5365Z" fill="#383838"/>
<path d="M138.483 5.98796C129.944 1.11463 117.615 -0.247991 108.019 0.0360085C98.3881 0.321342 89.0055 1.87463 79.8201 4.78529C70.5881 7.71196 61.7908 12.2226 53.7681 17.6613C50.9508 19.5706 45.5041 23.1066 44.3521 26.536C43.6121 28.736 45.0535 31.392 48.1855 31.328C48.4148 31.3226 55.5868 30.8933 51.4348 30.5386C47.9615 30.2426 44.3641 28.712 46.9481 25.8453C48.2308 24.4227 52.8268 20.6 54.7308 19.2706C57.8975 17.0586 61.2161 15.0666 64.6321 13.2626C71.9281 9.41064 79.5455 6.33734 87.5575 4.33601C104.033 0.218675 125.255 1.57729 138.483 5.98796Z" fill="#383838"/>
<path d="M84.0827 75.7988C68.6281 72.2495 55.8521 64.9948 50.8494 61.1442C49.4494 60.0668 45.7267 57.2442 44.2681 54.6188C43.4867 53.2135 43.1414 50.1282 46.8521 49.9522C47.1614 49.9375 46.8547 49.0389 46.5601 48.9882C39.6854 47.7855 41.3147 52.7682 42.1681 54.7962C44.4774 60.2855 62.3934 74.5775 84.0827 75.7988Z" fill="#383838"/>
<path d="M42.9549 38.5272C33.5522 33.3659 23.4362 29.6139 12.8775 27.6392C10.6562 27.2232 6.11354 26.5952 2.06421 25.8459C2.38554 26.6952 2.70953 27.6272 3.01353 28.6006C5.80019 28.8339 9.56421 29.2286 13.2962 29.8699C21.7962 31.3286 32.9629 35.8766 32.9629 35.8766C32.9629 35.8766 18.5189 32.9059 11.9629 31.8326C9.01621 31.3499 6.02954 31.0179 3.62821 30.7966C3.95087 32.0912 4.20021 33.4166 4.33621 34.7246C6.27888 34.8699 8.79487 35.0486 11.9629 35.2579C21.2962 35.8766 30.5189 37.4806 30.5189 37.4806C30.5189 37.4806 18.2975 37.8566 11.1855 37.6472C8.65086 37.5726 6.3322 37.4912 4.42153 37.4192C4.3682 38.6606 4.21355 39.8552 4.00288 41.0032C6.25755 40.9686 9.55885 40.9139 13.4082 40.8379C20.6295 40.6939 34.5189 38.7579 34.5189 38.7579C34.5189 38.7579 19.1855 42.5366 12.8522 43.0912C9.43353 43.3912 5.97088 43.3672 3.49888 43.2819C3.25088 44.2192 2.98552 45.1166 2.70819 45.9072C16.4002 45.4126 29.9642 42.8739 42.9549 38.5272Z" fill="#FEDB00"/>
<path d="M12.8521 43.0909C19.1854 42.5363 34.5188 38.7576 34.5188 38.7576C34.5188 38.7576 20.6294 40.6936 13.4081 40.8376C9.55876 40.9136 6.25745 40.9682 4.00278 41.0029C3.85745 41.7962 3.69078 42.5549 3.49878 43.2816C5.97078 43.3669 9.43343 43.3909 12.8521 43.0909Z" fill="#FCC000"/>
<path d="M32.9628 35.876C32.9628 35.876 21.7961 31.328 13.2961 29.8693C9.56411 29.228 5.80009 28.8333 3.01343 28.6C3.23476 29.312 3.44011 30.048 3.62811 30.796C6.02944 31.0173 9.01611 31.3493 11.9628 31.832C18.5188 32.9053 32.9628 35.876 32.9628 35.876Z" fill="#FCC000"/>
<path d="M30.5188 37.4809C30.5188 37.4809 21.2962 35.8769 11.9628 35.2582C8.79484 35.0489 6.27885 34.8702 4.33618 34.7249C4.41885 35.5275 4.46816 36.3222 4.44683 37.0915L4.4215 37.4195C6.33217 37.4915 8.65083 37.5729 11.1855 37.6475C18.2975 37.8569 30.5188 37.4809 30.5188 37.4809Z" fill="#FCC000"/>
</svg>
