<svg width="149" height="112" viewBox="0 0 149 112" fill="none" xmlns="http://www.w3.org/2000/svg">
<path d="M92.0068 108.621C100.354 106.472 101.245 96.7203 101.245 96.7203L106.622 94.9402C107.253 93.811 107.617 93.1017 107.617 93.1017C107.617 93.1017 90.0901 100.662 84.7973 105.179C83.1453 106.59 82.4297 108.182 82.7754 109.456C84.9193 109.69 88.0079 109.65 92.0068 108.621Z" fill="#FEDB00"/>
<path d="M91.9895 111.342C97.5953 110.192 104.167 99.3344 106.622 94.9396L101.245 96.7198C101.245 96.7198 100.354 106.472 92.0067 108.621C88.0078 109.649 84.9193 109.689 82.7754 109.456C83.289 111.349 86.1697 112.537 91.9895 111.342Z" fill="#FCC000"/>
<path d="M34.324 76.9147C34.1598 77.3799 34.0172 77.9037 33.888 78.4559C33.7802 78.9209 33.6806 79.4053 33.603 79.9199C33.4202 81.1225 33.3317 82.4455 33.3666 83.8267C33.377 84.2704 33.4016 84.7184 33.4401 85.1731C33.5593 86.5985 33.824 88.06 34.2578 89.4944C34.3781 89.896 34.5104 90.2933 34.6593 90.6892C35.201 92.1241 35.9401 93.5053 36.8994 94.7756C37.2994 95.3037 37.736 95.8147 38.2177 96.2996L38.4614 96.5585C39.5494 97.5985 40.912 98.5319 42.4526 99.3626C43.3172 99.8303 44.2469 100.257 45.2088 100.657C46.9328 101.373 48.7792 101.982 50.6697 102.484C51.5437 102.716 52.4224 102.93 53.3026 103.116C55.5885 103.597 57.8568 103.915 59.9656 104.079C61.165 104.172 62.3052 104.213 63.3656 104.204C64.1432 104.196 64.8912 104.172 65.5661 104.108C72.8473 103.427 85.4817 98.6907 85.4817 98.6907L109.099 87.5543L42.8125 69.3053C42.8125 69.3053 35.9541 72.2663 34.324 76.9147Z" fill="#1B97DB"/>
<path d="M38.8645 73.0912C38.8931 72.9724 38.7947 72.8068 38.627 73.0604C37.9682 74.0536 37.6171 75.4401 37.4093 76.6032C37.2374 77.5641 37.3213 78.5426 37.8197 79.4109C38.0411 79.7964 38.2682 79.7869 38.1395 79.3322C37.5713 77.3245 38.3874 75.0828 38.8645 73.0912Z" fill="#4FC7FC"/>
<path d="M52.9078 99.185C49.8521 98.573 49.9759 94.6293 47.8417 92.7865C46.165 91.3387 43.7431 90.6064 41.551 90.2319C40.2469 88.284 39.053 86.9543 40.003 83.7919C40.3442 82.6559 40.6926 82.1361 40.7557 80.8637C40.8874 78.2225 39.8103 72.6944 43.0969 71.2543C43.275 71.1772 43.1333 70.948 42.9765 70.9695C40.1119 71.3627 40.1145 74.4028 40.0447 76.6668C40.0021 78.0637 40.0879 79.096 40.0447 80.4209C39.9718 82.66 39.1937 83.5423 38.9469 85.608C38.7587 87.1756 39.2661 88.4637 40.2802 89.7799C41.0139 90.7329 41.5478 91.5012 42.0838 93.1209C42.727 95.0637 44.7754 95.672 47.4645 95.9611C47.8302 96.0001 47.8593 95.6304 47.4973 95.56C46.0333 95.2747 44.5254 95.072 43.4447 93.9507C42.5973 93.072 42.6202 91.9731 42.0343 90.9851C44.4526 91.3799 47.3707 92.2173 48.9234 95.396C49.7693 97.1277 50.7431 99.5371 52.9067 99.5371C53.5661 99.5371 53.3963 99.284 52.9078 99.185Z" fill="#4FC7FC"/>
<path d="M45.5031 89.2877C43.8312 88.309 42.4172 87.1747 42.2093 85.1466C42.1328 84.4029 42.8203 81.7653 42.8521 80.9945C42.986 77.8038 42.5188 75.6575 44.7375 72.9122L44.6432 72.7893C41.2235 74.6611 42.4927 78.9158 42.2021 82.0825C42.0541 83.6893 41.2693 85.2185 41.9536 86.7971C42.5521 88.1773 44.0312 89.0029 45.3052 89.6371C45.7636 89.8653 45.9531 89.5507 45.5031 89.2877Z" fill="#4FC7FC"/>
<path d="M45.5067 86.4349C45.1483 85.9869 44.6687 85.6948 44.3436 85.1989C44.0562 84.7589 43.8728 84.2656 43.6196 83.8068C43.5316 83.6484 43.313 83.7349 43.2994 83.8948C43.2072 85.0057 44.253 86.3828 45.3228 86.751C45.6436 86.8614 45.6775 86.6494 45.5067 86.4349Z" fill="#4FC7FC"/>
<path d="M76.0098 97.3532C73.6953 97.6558 71.4338 98.2318 69.1026 98.5267C67.3442 98.7506 66.0395 99.4543 64.303 99.8079C59.8593 100.715 54.5797 99.2131 52.1958 94.7892C50.8863 92.3585 50.0707 90.4304 47.2051 89.6756C47.1223 89.6532 46.9379 89.7626 47.4797 90.061C49.5973 91.2304 50.4639 92.9454 51.5786 95.1449C52.1958 96.3637 52.9109 97.3386 54.0109 98.1506C56.9369 100.313 61.8901 101.015 64.7109 100.311C66.239 99.9293 68.9067 99.1131 71.1739 98.7574C72.9182 98.484 75.0302 98.2788 76.4917 97.2506L76.0098 97.3532Z" fill="#4FC7FC"/>
<path d="M56.2684 100.797C55.7376 100.554 55.3152 100.425 54.747 100.422C54.3517 100.421 54.0225 100.604 54.5725 100.864C55.1225 101.125 55.7162 101.178 56.3438 101.168C56.6241 101.164 56.549 100.924 56.2684 100.797Z" fill="#4FC7FC"/>
<path d="M48.1973 88.2512C47.8 87.8247 47.4588 87.5428 46.9354 87.3231C46.5708 87.171 46.1973 87.2127 46.6057 87.6643C47.013 88.1152 47.5412 88.3939 48.1245 88.6258C48.3844 88.7283 48.4068 88.4778 48.1973 88.2512Z" fill="#4FC7FC"/>
<path d="M62.512 97.1321C62.1104 97.0243 61.614 96.9545 61.1984 96.9159C60.8145 96.8801 60.6432 97.0493 60.8912 97.2107C61.3917 97.5363 62.0417 97.6867 62.5959 97.5681C62.9584 97.491 62.8636 97.2269 62.512 97.1321Z" fill="#4FC7FC"/>
<path d="M48.9171 83.8939C49.125 84.2537 49.4275 84.6537 49.6936 84.9736C49.9406 85.2709 50.1822 85.2725 50.1202 84.9819C49.9952 84.3991 49.6416 83.834 49.1671 83.5272C48.8556 83.3231 48.7359 83.5793 48.9171 83.8939Z" fill="#4FC7FC"/>
<path d="M44.3276 78.4246C44.1869 77.9605 44.2093 77.1402 44.2989 76.6642C44.4645 75.7736 44.1396 75.9033 43.9328 76.3632C43.6505 76.9949 43.6823 77.8913 43.8281 78.4324C43.9869 79.0246 44.5079 79.023 44.3276 78.4246Z" fill="#4FC7FC"/>
<path d="M59.2245 96.8439C56.1177 95.8481 56.0983 92.2081 53.4327 90.9267C49.6619 89.1147 49.1859 86.1695 49.0639 85.8825C48.3327 84.1773 43.8639 83.1439 44.9161 80.7601C45.2994 79.8919 46.5259 78.6971 46.7937 78.0081C46.9171 77.6877 46.8489 77.9705 46.665 77.4877L46.5417 77.4721C45.7057 78.8866 43.8197 80.2414 44.063 82.0825C44.1947 83.0757 45.2535 83.6147 46.013 84.1971C46.3906 84.4877 47.7057 85.2757 48.0578 85.5731C48.8193 86.2174 48.7447 87.0575 49.2035 87.9695C50.4478 90.4398 52.2155 90.4387 53.9849 92.4491C55.6562 94.3481 56.3978 96.7695 59.1515 97.2491C59.5885 97.3242 59.6587 96.9825 59.2245 96.8439Z" fill="#4FC7FC"/>
<path d="M48.1172 82.5204C47.8355 82.2845 47.4511 81.9668 47.2 81.6965C46.9213 81.399 46.6844 80.9793 46.4391 80.658C46.238 80.3965 46.0516 80.4761 46.1531 80.8444C46.3724 81.6392 47.1104 82.4616 47.8203 82.8605C48.1631 83.0512 48.4417 82.7897 48.1172 82.5204Z" fill="#4FC7FC"/>
<path d="M72.1396 94.4933C68.55 96.772 63.375 96.3788 60.1874 93.685C57.8442 91.7037 50.5677 85.7678 51.4322 82.3517L51.2245 81.4064C50.326 82.784 50.8593 84.7558 51.836 86.1012C53.9016 88.9454 57.1636 91.9704 59.8697 94.2184C63.1578 96.949 68.9224 97.7585 72.4745 95.0454C72.8614 94.749 72.576 94.2173 72.1396 94.4933Z" fill="#4FC7FC"/>
<path d="M78.7236 97.9199C76.6308 101.069 74.1752 99.5919 71.6517 99.9814C70.0007 100.237 68.2939 101.441 66.6308 101.576C65.86 101.639 65.9225 101.963 66.6933 101.903C67.7548 101.818 69.0376 101.397 70.0475 101.069C71.7392 100.517 73.2215 100.915 74.9752 100.739C76.7231 100.564 78.4532 100.011 79.2064 98.2934C79.3319 98.0054 78.9345 97.6029 78.7236 97.9199Z" fill="#4FC7FC"/>
<path d="M47.9219 99.3015C44.8845 96.6937 40.1219 95.5281 38.9085 91.4032C38.6563 90.5469 38.337 90.0161 38.0266 89.2084C37.4131 87.615 36.9787 85.9109 37.2282 84.2666C37.3995 83.1297 37.8162 82.0041 38.0079 80.8604C38.0495 80.6093 37.8183 80.5521 37.7261 80.7922C37.0303 82.5964 36.2886 84.8256 36.6282 86.8308C36.9427 88.6912 37.9235 90.4546 38.5261 92.4469C39.6954 96.3084 44.3703 97.7136 47.7506 99.588C48.0391 99.7495 48.3146 99.639 47.9219 99.3015Z" fill="#4FC7FC"/>
<path d="M36.0931 79.0754C36.128 78.7369 35.851 78.7208 35.7598 79.0303C35.6015 79.5755 35.578 80.2276 35.5764 80.7917C35.5754 81.4969 35.915 81.253 35.9707 80.9172C36.063 80.3599 36.0354 79.6396 36.0931 79.0754Z" fill="#4FC7FC"/>
<path d="M63.1093 101.467C61.9999 101.426 61.7963 101.4 61.2817 101.375C60.7062 101.35 59.8306 101.388 59.1718 101.327C59.0869 101.32 58.6311 101.347 59.203 101.568C59.7197 101.767 62.2969 101.873 62.8338 101.808C63.3286 101.75 63.5478 101.482 63.1093 101.467Z" fill="#4FC7FC"/>
<path d="M64.0208 13.1705C74.5672 11.2199 87.1522 16.6851 87.1522 16.6851L58.5 47.4893L122.467 34.5133C122.467 34.5133 114.015 17.621 107.871 12.2893C103.779 8.73713 94.5203 4.07993 82.9839 2.17313C82.0479 2.01846 81.1036 1.87473 80.1402 1.7586C79.2912 1.65593 78.4219 1.58659 77.5531 1.51739C76.423 1.42526 75.2771 1.36792 74.1172 1.33872C71.9328 1.28139 69.7042 1.34553 67.4391 1.5346C66.7536 1.5934 66.0724 1.6398 65.3823 1.7242C64.0058 1.88926 62.6208 2.09606 61.2282 2.36793L61.1063 2.39713C60.3979 2.5414 59.6922 2.74139 58.9918 2.99859C58 3.36273 57.0188 3.84392 56.0516 4.41472C55.5312 4.72099 55.0156 5.05432 54.5052 5.41579C53.7011 5.98659 52.911 6.62672 52.1364 7.32099C51.6746 7.73712 51.2167 8.16793 50.7678 8.6242C49.9042 9.4986 49.0672 10.4481 48.2579 11.4575C47.8896 11.9158 47.5266 12.3877 47.1703 12.8721C46.3672 13.9653 45.5984 15.1174 44.8678 16.3199C44.5886 16.7799 44.3156 17.2466 44.049 17.7199C43.3172 19.0158 42.6298 20.3586 41.9943 21.7423C41.826 22.1081 41.6599 22.4731 41.5 22.8423C40.8964 24.2335 40.349 25.6586 39.8568 27.1038C39.7099 27.5362 39.5698 27.9695 39.4328 28.4054C39.0031 29.7731 38.6266 31.1559 38.3088 32.5455C38.2188 32.9398 38.1298 33.3346 38.049 33.7294C37.785 35.0199 37.5792 36.3106 37.4224 37.5971C37.373 38.0065 37.3266 38.4147 37.2886 38.8199C37.2479 39.2507 37.2088 39.6825 37.1818 40.1106C37.1031 41.3423 37.8079 42.7757 38.8172 44.1721C39.6203 40.8945 41.0755 35.6934 42.9751 32.0747C45.9402 26.4253 53.4751 15.121 64.0208 13.1705Z" fill="#1B97DB"/>
<path d="M44.9057 50.248L58.4999 47.4892L87.1521 16.6851C87.1521 16.6851 74.5671 11.2199 64.0207 13.1704C53.475 15.121 45.9401 26.4252 42.975 32.0747C41.0754 35.6934 39.6202 40.8944 38.8171 44.172C41.0863 47.3064 44.9057 50.248 44.9057 50.248Z" fill="#FCC000"/>
<path d="M98.8485 6.89175C93.6974 3.84215 86.2085 1.52507 80.0037 0.653075C73.8933 -0.204125 67.5861 -0.392124 61.5709 1.17454C52.0496 3.65308 44.8085 10.0088 40.8085 18.7505C38.9094 22.9027 34.9308 32.9156 35.0418 36.0729C35.149 39.1531 36.8761 41.9932 38.8173 44.1719C38.0308 42.2875 37.5418 39.9437 37.587 38.4917C37.7157 34.4489 39.4042 27.9969 41.9324 22.9088C44.3856 17.9719 46.6418 12.3984 53.3928 8.00268C64.4173 0.822409 78.2532 2.28748 98.8485 6.89175Z" fill="#4FC7FC"/>
<path d="M44.5306 99.5095C35.0259 94.2033 31.753 83.3428 36.7187 73.3793C33.753 74.899 31.8359 82.7512 32.6666 87.2392C33.627 92.4272 34.5306 96.1214 41.177 100.739C46.1087 104.163 53.6166 105.114 59.475 105.176C66.0202 105.249 73.9587 103.792 79.8145 100.611C64.6417 103.566 53.7863 104.678 44.5306 99.5095Z" fill="#4FC7FC"/>
<path d="M110.745 18.1563C109.568 16.188 107.996 14.0989 106.177 12.6375C102.011 9.288 96.3402 7.9948 91.1224 7.47347C88.2094 7.1828 85.864 7.3604 82.95 7.3792C79.624 7.4032 75.9418 5.95786 72.6396 5.87759C71.2136 5.84426 69.9328 6.11773 68.6922 6.56307C65.8203 5.5604 60.2531 7.34947 56.6667 8.50933C52.9995 9.6948 51.412 13.0828 48.7855 15.6459C45.9088 18.4536 43.9167 21.1948 42.4339 24.9136C40.688 29.2855 38.6694 33.8443 38.6672 38.5948C38.6672 39.1631 38.9542 39.1213 39.0312 38.5896C40.0755 31.3459 42.823 22.4151 48.0355 17.0375C49.123 15.9161 50.3027 14.8989 51.3203 13.7057C51.9162 13.0084 52.6636 12.0401 53.2766 11.3271C53.2803 12.4604 52.6746 14.1297 52.1683 14.976C51.7672 15.6484 51.1516 16.4271 50.6932 17.0656C49.6724 18.4855 48.626 19.7989 47.4307 21.0751C46.1599 22.4297 44.7604 24.4923 44.5464 25.5855C44.5307 25.6656 44.6282 25.9776 44.764 25.6641C46.1058 22.5699 48.8246 20.4245 50.8084 17.7297C52.3307 15.6604 54.4307 13.5521 53.7558 10.8245C54.162 10.4229 54.5912 10.0469 55.0864 9.75213C56.7631 8.7604 58.9735 8.58173 60.8208 8.03493C63.1219 7.35627 65.3646 6.48693 67.7495 6.94013C67.1636 7.19747 66.4438 7.53653 65.8516 7.84693C62.3484 9.68026 59.1198 10.5136 55.3678 11.5281C55.1558 11.5855 55.1855 11.8177 55.3886 11.788C59.5615 11.1604 63.4922 9.72453 67.3104 7.8656C69.3792 6.8604 71.5214 6.39119 73.6011 6.54839C76.8574 6.79639 80.0703 8.14267 83.4542 8.03493C88.3792 7.8776 93.287 7.8136 98.024 9.34013C100.405 10.1084 103.148 11.3109 105.208 12.7459C106.632 13.7375 111.938 19.5057 110.45 21.3855C110.083 21.8495 111.004 22.3964 111.251 21.8536C111.808 20.6245 111.46 19.3511 110.745 18.1563Z" fill="#4FC7FC"/>
<path d="M43.4574 27.7559C43.1558 28.4772 42.8381 29.1933 42.4949 29.9001C42.284 30.3335 41.9246 30.7731 41.7298 31.1772C41.6714 31.2996 41.8386 31.3944 41.948 31.2876C42.8522 30.4012 43.4793 29.0064 43.7845 27.8387C43.8752 27.4908 43.587 27.4439 43.4574 27.7559Z" fill="#4FC7FC"/>
<path d="M52.8506 16.9721C53.3927 16.4091 53.9479 15.856 54.5235 15.3227C54.876 14.9945 55.3719 14.7148 55.699 14.4091C55.7974 14.3159 55.6766 14.1669 55.536 14.2268C54.3719 14.7253 53.2823 15.7987 52.5751 16.7757C52.3646 17.068 52.6156 17.2159 52.8506 16.9721Z" fill="#4FC7FC"/>
<path d="M68.7735 11.3635C69.5553 11.3488 70.3391 11.3504 71.123 11.3785C71.6042 11.3968 72.1531 11.5477 72.6011 11.5624C72.7361 11.5676 72.7553 11.3744 72.6137 11.3181C71.4375 10.8488 69.9085 10.8384 68.7167 11.0301C68.3621 11.0873 68.435 11.3701 68.7735 11.3635Z" fill="#4FC7FC"/>
<path d="M99.9589 13.016C98.961 12.0588 98.5829 11.227 97.2146 10.6416C95.3146 9.82963 93.0746 9.91603 91.1198 10.416C90.7298 10.5176 90.6949 10.7666 91.185 10.6895C93.1011 10.3879 95.1839 10.2546 97.0047 11.0974C98.5709 11.8212 99.1105 13.2603 100.464 14.2187C100.951 14.564 102 14.9843 102.557 15.1759C105.113 16.0546 106.69 16.915 107.318 20.027C107.344 20.1578 107.519 20.1092 107.533 19.9974C108.126 15.104 102.547 15.4963 99.9589 13.016Z" fill="#4FC7FC"/>
<path d="M95.9537 16.6348C94.1006 13.6816 90.6246 11.4854 87.461 10.2458C84.0162 8.89363 80.498 9.74683 76.9433 10.0843C76.1928 9.71243 75.4684 9.2947 74.599 8.93643C72.3304 7.99883 69.8928 8.4775 67.6881 9.35777C66.2626 9.9255 64.935 10.7124 63.5444 11.3562C61.5777 12.2666 59.2162 13.1056 57.0048 13.5911C56.7189 13.6535 56.5184 13.9988 57.4698 13.8671C59.2861 13.615 61.0272 13.1015 62.7413 12.4108C65.998 11.0963 69.5646 8.34937 73.2876 9.27337C75.222 9.7535 76.6454 11.0212 78.6048 11.4588C82.2194 12.264 85.2553 12.2578 86.6621 16.4707C86.8266 16.9666 87.573 16.5348 87.3637 16.0603C86.5428 14.2015 85.2865 12.6895 83.4173 11.8056C82.0938 11.1791 80.9537 11.2244 79.5465 10.9843C79.1698 10.9187 78.1793 10.7458 77.8517 10.6416C80.237 10.439 83.547 9.67496 86.0709 10.4083C89.5028 11.4031 93.4256 14.175 95.6241 16.9426C95.8928 17.2827 96.1804 16.9963 95.9537 16.6348Z" fill="#4FC7FC"/>
<path d="M96.5969 14.172C96.3079 13.4756 95.7235 12.8064 94.9719 12.5704C94.4792 12.4157 94.4636 12.6652 94.6937 12.9037C94.8901 13.1053 95.1255 13.261 95.338 13.4517C95.6547 13.7361 96 14.0064 96.2271 14.3626C96.4713 14.7454 96.736 14.5053 96.5969 14.172Z" fill="#4FC7FC"/>
<path d="M76.7863 12.4009C76.2297 11.8941 75.4161 11.5367 74.6349 11.6419C74.1223 11.7118 74.2145 11.9451 74.525 12.0623C74.7874 12.1607 75.0677 12.2008 75.3411 12.2836C75.7483 12.406 76.1765 12.505 76.5338 12.7301C76.9166 12.9717 77.0541 12.6419 76.7863 12.4009Z" fill="#4FC7FC"/>
<path d="M31.058 67.4003C31.9361 67.0681 32.7345 66.8415 33.4662 66.7066C32.6788 65.0519 31.9356 63.2201 31.4422 61.4279C28.9985 62.1373 26.3881 63.3467 23.4381 64.5243C18.0528 66.6706 10.8262 73.4577 6.6897 77.6482C8.62563 81.1066 11.0267 83.8389 11.0267 83.8389C11.0267 83.8389 21.584 70.9842 31.058 67.4003Z" fill="#FCC000"/>
<path d="M30.8598 57.2855C31.0171 53.7214 32.742 50.2735 34.1452 48.023C23.992 46.1282 7.89833 26.8522 7.89833 26.8522C7.89833 26.8522 6.80197 31.8938 4.98582 37.6683C6.89207 39.4203 8.99207 40.887 11.3754 42.0547C16.2942 44.4642 21.9119 47.0948 27.9614 50.2708C23.1426 48.7402 15.2712 45.3511 10.6593 43.3912C8.36395 42.4151 6.19729 41.3136 4.25197 39.9162C3.46134 42.2522 2.56552 44.6162 1.58634 46.7418C2.11968 47.1948 2.65926 47.6391 3.26082 47.9162C7.52541 49.8751 16.2598 51.4136 18.6092 51.647C22.4264 52.0271 27.2056 53.4896 27.2056 53.4896C27.2056 53.4896 20.2135 52.8536 18.6436 52.6563C8.29103 51.359 3.7577 50.0818 0.733222 48.5178C-1.04959 52.1418 0.766034 55.2427 2.47801 58.7948C6.21759 58.1203 9.90093 57.3964 13.7994 56.8126C16.7874 56.3656 19.6327 56.0604 22.3302 56.0683C23.4764 55.9522 27.6416 56.6708 27.6416 56.6708C27.6416 56.6708 21.4863 56.8604 17.8119 57.4402C12.9134 58.2126 8.14259 59.5683 3.29156 60.5964C4.29467 62.976 4.99415 65.6068 4.43218 68.747C5.97073 67.8656 7.50145 67.0402 9.22697 66.1964C21.9291 59.9844 27.3884 59.4162 27.3884 59.4162C27.3884 59.4162 15.7296 64.0188 4.29989 70.3246C4.31812 72.6948 5.3926 75.3323 6.68948 77.6484C10.8259 73.4579 18.0526 66.6708 23.4379 64.5246C26.3879 63.347 28.9983 62.1375 31.442 61.4282C31.0426 59.9828 30.803 58.5631 30.8598 57.2855Z" fill="#FEDB00"/>
<path d="M9.227 66.1961C7.50148 67.0398 5.97076 67.8653 4.43222 68.7466L4.40566 68.9508C4.31919 69.3934 4.29628 69.856 4.29992 70.3242C15.7297 64.0185 27.3885 59.4158 27.3885 59.4158C27.3885 59.4158 21.9291 59.9841 9.227 66.1961Z" fill="#FCC000"/>
<path d="M27.6416 56.6701C27.6416 56.6701 23.4764 55.9514 22.3302 56.0676C19.6327 56.0597 16.7874 56.3649 13.7994 56.8118C9.90095 57.3957 6.21761 58.1196 2.47803 58.7941C2.76032 59.3796 3.0322 59.981 3.29157 60.5957C8.14261 59.5676 12.9135 58.2118 17.8119 57.4394C21.4863 56.8597 27.6416 56.6701 27.6416 56.6701Z" fill="#FCC000"/>
<path d="M27.2058 53.4893C27.2058 53.4893 22.4266 52.0267 18.6094 51.6466C16.2599 51.4133 7.52558 49.8747 3.261 47.9158C2.65944 47.6387 2.11985 47.1945 1.58652 46.7414C1.32663 47.3054 1.06204 47.8533 0.790169 48.3789L0.733398 48.5174C3.75788 50.0814 8.29121 51.3586 18.6438 52.6559C20.2137 52.8533 27.2058 53.4893 27.2058 53.4893Z" fill="#FCC000"/>
<path d="M27.9616 50.2705C21.9121 47.0945 16.2944 44.4638 11.3756 42.0544C8.9923 40.8866 6.8923 39.42 4.98605 37.668C4.75272 38.409 4.50793 39.1601 4.2522 39.9158C6.19752 41.3133 8.36418 42.4148 10.6595 43.3909C15.2714 45.3508 23.1428 48.7398 27.9616 50.2705Z" fill="#FCC000"/>
<path d="M43.3041 64.8971C49.6817 71.9081 55.814 82.0387 67.613 87.2491C74.7969 90.4226 86.8969 94.0387 99.1417 90.6174C100.429 87.0002 100.88 83.1267 100.031 79.321C99.0521 74.9362 96.8926 70.9695 96.1478 66.5013C94.701 57.8185 96.426 49.0387 96.6374 40.3319C96.8297 32.4439 94.8932 25.6387 92.0068 18.7507C89.6688 18.6439 87.1281 18.7038 84.3333 18.9773C70.8729 20.2997 65.314 23.8439 57.6702 29.7226C50.0271 35.6013 44.1177 46.9185 40.0672 48.9611C37.4844 50.2627 35.3062 49.1423 34.0625 48.1601C32.6745 50.4147 31.0145 53.7909 30.8599 57.2851C30.8031 58.5627 31.0426 59.9825 31.4421 61.4278C35.6073 60.221 39.2833 60.4789 43.3041 64.8971Z" fill="#1B97DB"/>
<path d="M114.625 26.5579C121.84 30.8281 127.319 43.7349 134.692 46.0401C135.164 46.1896 135.621 46.3188 136.064 46.4365C134.039 43.5391 131.705 40.1536 128.339 36.2417C123.358 30.4521 117.911 25.0641 111.231 21.1125C111.648 22.4459 111.984 23.7989 112.255 25.1641C113.057 25.6297 113.846 26.0964 114.625 26.5579Z" fill="#4FC7FC"/>
<path d="M40.0672 48.9613C44.1177 46.9186 50.027 35.6014 57.6702 29.7228C65.314 23.8441 70.8729 20.2998 84.3333 18.9774C87.1281 18.704 89.6688 18.6441 92.0068 18.7509C91.4489 17.4212 90.8557 16.0878 90.236 14.7457C76.1734 13.7244 60.5478 17.8296 50.5026 31.9602C45.476 39.0306 42.4489 47.9149 35.9417 48.1733C35.3693 48.1962 34.7677 48.1389 34.1453 48.0228L34.0625 48.1602C35.3062 49.1425 37.4844 50.2629 40.0672 48.9613Z" fill="#4FC7FC"/>
<path d="M140.831 63.8627C132.732 64.0747 129.473 68.748 118.339 78.5986C118.39 82.6132 117.935 87.0319 116.922 91.2627C119.193 89.3731 121.412 87.1866 123.673 84.6866C130.604 77.0226 136.921 71.3064 141.397 68.2242C140.556 67.1174 139.683 65.6971 139.077 63.9986C139.64 63.9304 140.217 63.8788 140.831 63.8627Z" fill="#1D77D8"/>
<path d="M148.643 64.6402C146.708 64.1391 144.151 63.7777 140.831 63.8631C140.217 63.8793 139.64 63.9309 139.077 63.999C139.683 65.6975 140.556 67.1178 141.397 68.2246C143.121 67.0366 144.581 66.2257 145.685 65.8631C146.843 65.4829 147.825 65.0751 148.643 64.6402Z" fill="#E8571F"/>
<path d="M99.1417 90.6174C86.8973 94.0387 74.7969 90.4226 67.6136 87.2491C55.814 82.0387 49.6817 71.9081 43.3041 64.8971C39.2833 60.4789 35.6073 60.221 31.4421 61.4278C31.9355 63.2199 32.6792 65.0518 33.4661 66.7065C38.6229 65.7533 40.4255 69.3814 42.8751 73.1757C49.6208 83.6278 62.0584 95.8174 78.5751 98.5919C84.3052 99.5544 89.2604 99.9721 93.6563 99.8575C95.2344 98.021 96.6375 96.0267 97.7751 93.8013C98.3011 92.7695 98.7552 91.7029 99.1417 90.6174Z" fill="#1D77D8"/>
<path d="M112.255 25.1641C111.984 23.7989 111.648 22.4458 111.231 21.1125C106.483 18.3041 101.117 16.2135 94.8298 15.2469C93.3256 15.0161 91.787 14.8589 90.2361 14.7458C90.8558 16.0879 91.449 17.4213 92.0069 18.751C101.057 19.1641 106.993 22.1125 112.255 25.1641Z" fill="#FF895A"/>
<path d="M96.2042 66.8241C96.2027 66.8146 96.2011 66.8079 96.1995 66.7985C96.2011 66.8063 96.2027 66.8146 96.2042 66.8241Z" fill="#9DDEFB"/>
<path d="M82.0121 81.5654C79.8251 81.5654 77.5771 81.3936 75.2974 81.0681C61.8938 79.1509 43.6094 67.7482 49.6183 50.4493C54.0777 37.6134 67.5157 32.1545 81.5198 32.1545C81.9954 32.1545 82.473 32.1602 82.949 32.1733C87.8803 32.303 92.511 33.5134 96.4735 35.5681C96.6058 37.1201 96.6771 38.6973 96.6375 40.3321C96.4875 46.5056 95.5766 52.7149 95.5751 58.9004C95.5746 61.44 95.7266 63.9749 96.1479 66.5014C96.1506 66.5176 96.1531 66.5321 96.1558 66.5468C96.1569 66.5545 96.1579 66.5613 96.1589 66.5681C96.1605 66.5758 96.1621 66.5853 96.1631 66.5936C96.1646 66.6014 96.1662 66.6092 96.1678 66.6176C96.1689 66.6244 96.1698 66.6321 96.1709 66.6389C96.1725 66.6468 96.1741 66.6561 96.1755 66.6654C96.1766 66.6706 96.1777 66.6749 96.1787 66.6816C96.1813 66.6973 96.1845 66.7149 96.1875 66.7321C96.1886 66.7389 96.1902 66.7457 96.1913 66.752C96.1927 66.7602 96.1943 66.7697 96.1959 66.7774C96.197 66.7853 96.1985 66.7921 96.1995 66.7988C96.2011 66.8082 96.2027 66.8149 96.2042 66.8244C96.2058 66.8337 96.2079 66.8441 96.2094 66.8534C96.2105 66.8588 96.2115 66.864 96.2126 66.8681C96.2151 66.8842 96.2183 66.9004 96.2209 66.916C96.2219 66.9186 96.2225 66.9228 96.223 66.9254C96.2255 66.9389 96.2282 66.9534 96.2307 66.9665C96.2313 66.9697 96.2318 66.9722 96.2323 66.9749C96.861 70.2878 98.2235 73.3425 99.2474 76.5186C94.5266 80.0373 88.537 81.5654 82.0121 81.5654Z" fill="#2CABE9"/>
<path d="M108.982 58.8576C110.657 48.6815 105.18 40.0842 96.4734 35.568C96.6057 37.12 96.677 38.6972 96.6374 40.332C96.4254 49.0388 94.701 57.8186 96.1478 66.5014C96.7311 69.9987 98.175 73.1935 99.2473 76.5186C104.1 72.9014 107.612 67.1842 108.982 58.8576Z" fill="#FEDB00"/>
<path d="M108.982 58.8576C110.657 48.6815 105.18 40.0842 96.4734 35.568C96.6057 37.12 96.677 38.6972 96.6374 40.332C96.4254 49.0388 94.701 57.8186 96.1478 66.5014C96.7311 69.9987 98.175 73.1935 99.2473 76.5186C104.1 72.9014 107.612 67.1842 108.982 58.8576Z" fill="#FF895A"/>
<path d="M138.308 58.7876C138.456 56.1293 139.765 53.4662 140.848 51.6865C139.103 50.1173 137.437 48.4012 136.064 46.4361C135.621 46.3184 135.164 46.1892 134.692 46.0397C127.319 43.7345 121.84 30.8277 114.626 26.5575C113.846 26.096 113.057 25.6293 112.255 25.1637C113.665 32.2585 113.331 39.7252 113.406 46.885C113.464 52.3252 109.487 61.7225 110.753 67.0318C111.614 70.6438 115.094 72.0876 115.753 75.7318C118.614 76.8304 123.715 73.3037 126.781 70.9277C128.489 69.3944 129.99 68.1304 131.438 67.1037L131.525 67.0318L131.522 67.0438C133.944 65.3422 136.232 64.3422 139.077 63.9985C138.532 62.472 138.2 60.7277 138.308 58.7876Z" fill="#1B97DB"/>
<path d="M148.643 64.6396C149.975 62.3292 146.141 60.8063 146.141 60.8063C146.141 60.8063 151.1 59.9542 147.433 57.037C145.371 55.397 143.045 53.661 140.848 51.6865C139.765 53.4662 138.456 56.1293 138.308 58.7875C138.2 60.7276 138.532 62.4719 139.077 63.9984C139.64 63.9303 140.217 63.8787 140.831 63.8626C144.151 63.7771 146.708 64.1386 148.643 64.6396Z" fill="#FF6E2E"/>
<path d="M116.893 79.8651C116.407 79.7661 115.921 79.6385 115.437 79.4421C108.645 76.6932 107.475 66.6208 112.963 59.1303C113.253 55.3516 113.464 52.3251 113.406 46.8849C113.331 39.7251 113.665 32.2584 112.255 25.1636C106.993 22.112 101.057 19.1636 92.0068 18.7505C94.2948 24.212 95.9662 29.6303 96.4735 35.5677C105.18 40.0839 110.657 48.6812 108.982 58.8573C107.613 67.1839 104.101 72.9011 99.2474 76.5183C99.5443 77.4396 99.8183 78.3693 100.031 79.3208C100.88 83.1265 100.429 87 99.1418 90.6172C103.675 89.3505 108.229 87.1251 112.559 83.5453C114.126 82.2489 115.561 81.0265 116.893 79.8651Z" fill="#FF6E2E"/>
<path d="M118.339 78.5986C121.781 75.5518 124.469 73.0054 126.781 70.9278C123.715 73.3038 120.779 74.9294 117.917 73.8305C118.09 74.7825 118.225 75.7414 118.277 76.7133C118.31 77.3294 118.331 77.9586 118.339 78.5986Z" fill="#1D77D8"/>
<path d="M131.438 67.1035L131.522 67.0436L131.525 67.0316L131.438 67.1035Z" fill="#1D77D8"/>
<path d="M119.114 79.2876C119.003 77.5575 118.42 74.7627 117.917 73.8304C117.378 73.6225 116.839 73.3335 116.304 72.9173C113.383 70.6455 112.367 66.848 112.518 63.1575C112.577 61.7361 112.849 60.3772 112.963 59.1304C107.475 66.6209 108.645 76.6933 115.437 79.4423C115.921 79.6387 116.407 79.7663 116.893 79.8652C115.561 81.0267 114.126 82.2491 112.559 83.5455C108.229 87.1252 103.675 89.3507 99.1417 90.6173C98.7552 91.7028 98.301 92.7695 97.775 93.8012C96.6374 96.0267 95.2344 98.0209 93.6562 99.8574C103.395 99.5986 110.38 96.7028 116.922 91.2627C117.917 89.7319 119.514 85.5252 119.114 79.2876Z" fill="#E8571F"/>
<path d="M128.455 51.7484C128.54 54.4844 126.389 56.7735 123.651 56.859C120.913 56.9427 118.625 54.7912 118.541 52.0536C118.456 49.3151 120.607 47.0271 123.345 46.9427C126.083 46.859 128.371 49.0094 128.455 51.7484Z" fill="white"/>
<path d="M127.208 51.7852C127.253 53.2347 126.114 54.4456 124.665 54.491C123.216 54.5347 122.005 53.3972 121.96 51.9482C121.915 50.4987 123.054 49.2878 124.503 49.2424C125.953 49.1972 127.163 50.3363 127.208 51.7852Z" fill="#2A34F2"/>
<path d="M125.757 51.2087C125.777 51.8666 125.26 52.4171 124.602 52.4369C123.944 52.4583 123.394 51.9411 123.374 51.2838C123.354 50.625 123.87 50.0754 124.529 50.0541C125.186 50.0343 125.737 50.5515 125.757 51.2087Z" fill="white"/>
<path d="M118.209 88.6437C114.856 91.8026 111.159 94.713 106.917 96.5838C101.215 99.0995 94.9402 99.2328 88.8121 99.0291C77.8225 98.6625 67.9772 96.3344 58.9198 89.7156C50.5621 83.6088 42.9766 70.9693 39.2517 68.224C42.1361 72.9265 49.5089 84.7942 57.5376 90.9822C66.1714 97.6385 75.3949 100.709 86.1361 101.169C97.0542 101.637 106.688 100.093 115.469 93.101C124.836 85.6437 130.132 76.353 138.8 70.1478C133.053 72.0693 124.772 82.4636 118.209 88.6437Z" fill="#334BDD"/>
<path d="M108.136 18.7015C98.3282 14.1373 87.1037 12.7124 76.4017 14.2135C67.0579 15.5228 60.1735 18.7911 54.1334 26.2759C51.373 29.6973 49.2875 33.5749 46.937 37.2722C44.1689 41.6269 41.8861 45.2364 37.3547 48.1201C44.3626 46.5269 48.4183 37.5483 51.8459 32.0707C57.2761 23.3921 65.7897 17.5963 75.9694 16.152C108.303 11.5629 128.488 35.7416 131.481 40.1015C127.886 32.9031 120.386 24.404 108.136 18.7015Z" fill="#334BDD"/>
<path d="M118.736 48.9533C116.278 52.3773 119.219 57.2039 123.312 56.8961C121.959 56.4852 120.392 55.48 119.608 54.3732C118.514 52.8305 118.686 50.3336 120.053 48.9576C122.162 46.8347 125.08 47.3185 127.774 49.3852C126.275 45.9576 121.012 45.7841 118.736 48.9533Z" fill="#334BDD"/>
</svg>
