<svg width="149" height="64" viewBox="0 0 149 64" fill="none" xmlns="http://www.w3.org/2000/svg">
<path d="M45.6592 39.6405C45.6592 39.6405 43.591 43.2498 44.6816 45.4911C45.6696 47.5178 46.0238 47.0831 46.3821 49.7058C46.6826 51.9031 48.4514 53.6644 50.2086 53.7564C51.9649 53.8484 53.7988 52.2271 55.3889 54.0964C56.9061 55.8791 59.5889 56.4538 62.3957 55.7524C64.641 55.1911 66.079 53.9471 69.8113 54.9218C74.9389 56.2591 77.8285 50.0818 77.8285 50.0818L45.6592 39.6405Z" fill="#2A34F2"/>
<path d="M50.4909 14.5966C51.582 13.4886 52.3424 12.2939 52.4924 11.1339C52.7221 9.34859 53.5418 8.35927 55.3888 8.44727C56.9794 8.52193 58.3762 8.23257 59.433 7.32057C60.4898 6.40857 61.8461 6.26859 63.6445 7.16992C65.3112 8.00459 66.6137 6.96726 67.5106 5.44193C68.4018 3.92593 71.1262 3.15524 73.0096 3.48724C77.1226 4.21524 77.8956 4.84057 81.2013 3.18724C82.907 2.33391 85.156 2.15391 87.0033 2.18858C86.807 2.06458 86.618 1.95526 86.408 1.80993C84.8596 0.732596 80.657 -0.67676 77.3309 0.785906C73.8445 2.31791 71.2918 -0.132741 69.8112 0.00592586C66.8002 0.289926 67.5246 2.5446 64.9294 3.41393C62.3366 4.27927 60.4153 2.01127 58.3346 3.3126C56.2538 4.61393 55.1814 5.49791 52.407 5.26058C49.2252 4.98725 49.4794 9.07926 47.1866 10.4713C44.7798 11.9339 46.8018 15.3352 46.1461 17.7526C45.2648 21.0006 49.2904 23.2539 49.2904 23.2539L51.7413 22.8353C51.3298 22.0033 48.6784 16.4352 50.4909 14.5966Z" fill="#2A34F2"/>
<path d="M95.8279 13.2043C95.8279 13.2043 94.0945 11.8776 95.1205 10.2456C95.5112 9.62564 97.0965 9.59228 97.4304 7.92161C97.644 6.85495 97.1497 5.90297 96.7289 5.31364C96.2091 5.06964 95.6763 4.85631 95.1205 4.71364C91.3549 3.75097 89.6757 3.87495 87.0033 2.18828C85.156 2.15361 82.9071 2.33361 81.2013 3.18695C77.8956 4.84028 77.1227 4.21495 73.0096 3.48695C71.1263 3.15495 68.4019 3.92563 67.5107 5.44163C66.6137 6.96697 65.3112 8.00429 63.6445 7.16963C61.8461 6.26829 60.4899 6.40828 59.4331 7.32028C58.3763 8.23228 56.9795 8.52164 55.3888 8.44697C53.5419 8.35897 52.7221 9.34829 52.4924 11.1336C52.3424 12.2936 51.582 13.4883 50.4909 14.5963C48.6784 16.435 51.3299 22.003 51.7413 22.835L104.788 13.799C104.788 13.799 104.581 13.4016 104.21 12.7896L95.8279 13.2043Z" fill="#EF8C20"/>
<path d="M97.4305 7.92142C97.0966 9.59209 95.5113 9.62544 95.1206 10.2454C94.0946 11.8774 95.8279 13.2041 95.8279 13.2041L104.21 12.7894C103.089 10.9374 100.386 7.03211 96.729 5.31344C97.1498 5.90278 97.6441 6.85475 97.4305 7.92142Z" fill="#FCC000"/>
<path d="M51.3411 20.9902C51.3411 20.9902 52.0796 16.4783 54.342 16.1076C56.6045 15.7369 58.2149 14.6236 58.7629 13.6769C59.3092 12.7303 60.5119 11.0276 62.5149 11.1276C64.5191 11.2276 67.0244 10.4716 67.9253 8.52223C68.866 6.49023 70.6805 6.36757 71.0316 7.92223C71.2092 8.71023 71.0963 9.51558 69.8113 10.4716C68.5269 11.4289 69.1853 12.8716 68.3264 13.6769C66.7739 15.1329 64.0187 14.5969 63.7035 16.1076C63.5327 16.9249 63.6447 17.9902 63.6447 17.9902L51.3411 20.9902Z" fill="#1D77D8"/>
<path d="M71.7319 15.79C71.7319 15.79 72.1835 12.6887 75.3393 10.4714C77.5131 8.94339 80.7835 8.92737 82.8205 7.92337C84.8575 6.91937 86.6601 4.51406 88.6642 4.7154C90.6679 4.9154 91.9351 6.71938 88.5637 7.47005C85.6257 8.12605 84.5007 10.5447 81.6903 11.6274C79.397 12.5114 80.3965 14.4514 80.3965 14.4514L71.7319 15.79Z" fill="#1D77D8"/>
<path d="M53.8139 22.7391C54.7217 22.7978 55.7457 22.4071 56.7223 22.4684C58.9155 22.6058 61.0144 23.1684 62.5952 21.1191C63.4077 20.0644 63.6415 18.7684 63.6447 17.4444C58.9133 18.5351 54.6619 19.7124 51.3411 20.7084C51.7357 21.7871 52.3915 22.6471 53.8139 22.7391Z" fill="#1B97DB"/>
<path d="M129.159 30.6761C133.209 32.1975 138.832 31.3361 143.129 30.3028L142.967 30.3014C142.967 30.3014 140.853 27.8908 137.487 24.9574C137.839 22.5761 138.169 16.1281 131.886 14.2294C127.884 13.0201 125.422 14.5694 123.982 16.2908C123.532 16.1108 123.085 15.9254 122.629 15.7694C121.955 15.5374 121.269 15.3348 120.584 15.1321C119.929 19.5334 120.2 27.3108 129.159 30.6761Z" fill="#FEDB00"/>
<path d="M13.6389 49.3403C12.5639 47.5176 13.792 45.2949 12.8931 43.3869C11.5509 40.5403 7.63527 39.8203 9.09777 35.3003C9.93631 32.7083 10.8999 28.391 9.06548 26.1763C7.13736 23.8496 6.73579 21.6696 8.63996 19.4176C9.81912 18.023 13.4363 16.099 13.6389 14.3083C14.2165 9.19897 16.9196 8.02696 20.1124 6.36696C16.9228 5.91896 13.6415 6.28161 10.4181 7.92295C7.86392 9.22295 7.39933 11.327 6.31027 14.5963C5.57069 16.8176 1.89464 17.8963 0.914439 20.1963C-0.702749 23.9896 1.52745 27.4616 1.80193 30.231C2.20297 34.2776 -0.487124 35.807 0.0785014 38.9256C0.583709 41.711 4.74464 43.8963 5.90975 46.203C6.27277 46.9216 6.57641 47.5909 6.85455 48.2189C9.22329 49.0043 11.5196 49.4816 13.8389 49.627L13.6389 49.3403Z" fill="#2A34F2"/>
<path d="M44.5169 31.0191C46.0315 31.4737 47.1388 33.6644 47.6101 35.1418C47.7659 35.6284 48.0945 36.8204 48.6175 37.8431C49.6799 38.2484 50.7409 38.6537 51.7987 39.0591C52.518 38.3524 52.918 37.1418 53.1571 36.8004C53.7519 35.9538 54.3711 35.5431 55.3888 35.3124C55.6528 35.2538 55.9153 35.2151 56.1773 35.1884L56.4232 35.1751C56.6044 35.1631 56.7856 35.1564 56.9664 35.1591L57.2347 35.1698C57.4143 35.1791 57.594 35.1938 57.7737 35.2151L58.008 35.2431C58.2268 35.2751 58.444 35.3151 58.6617 35.3604L58.7628 35.3804C60.8289 35.8418 62.8519 36.8831 64.9295 37.4018L64.9429 37.4044C65.158 37.4578 65.3743 37.5044 65.5913 37.5458L65.6773 37.5604C65.8888 37.5991 66.1013 37.6311 66.3137 37.6551C67.0961 37.7404 67.8872 37.7271 68.6956 37.5431C71.3243 36.9418 72.0637 34.4497 74.018 32.9871C75.3112 32.0191 76.982 31.4871 78.6003 31.5684C81.3497 31.7071 83.6085 33.5178 84.8404 35.9058C85.9399 38.0378 86.2112 40.1498 85.944 42.2031V42.2044C85.8935 42.5911 85.8216 42.9764 85.7347 43.3591L85.7039 43.4857C85.62 43.8391 85.5216 44.1911 85.4091 44.5404L85.3743 44.6498C85.0195 45.7218 84.5471 46.7738 83.9852 47.7964C88.6628 48.5458 93.3643 49.1591 98.068 49.7124C101.174 50.0778 104.391 50.5644 107.637 50.9404L107.621 50.9271C106.436 49.4338 108.944 47.0844 109.986 46.3498C111.425 45.3351 113.038 44.8884 114.74 44.5284C116.05 44.2511 116.715 44.3137 117.316 43.0577C117.285 43.1231 117.553 41.8657 117.671 41.6871C118.878 39.8537 122.585 41.6738 124.137 42.3084C126.534 43.2884 128.847 44.1377 131.452 44.3871C132.53 44.4911 133.811 44.3711 134.979 44.5458C135.809 43.8711 136.629 43.2058 137.445 42.5938C134.839 41.7351 131.592 41.4578 129.923 40.9164C126.431 39.7858 122.903 38.5377 119.503 37.1537L119.266 37.0564L119.269 37.0524C117.564 36.3364 116.045 35.4364 115.25 33.6404C114.78 32.5804 114.649 31.4978 114.651 30.3818C114.655 27.7524 113.896 26.4417 112.109 24.5564C110.311 22.6591 110.699 20.1804 110.658 17.7111C110.633 16.2311 110.596 14.6378 111.017 13.2044C110.181 13.1058 109.341 13.0204 108.496 12.9524C107.566 15.2417 107.12 16.8351 107.575 19.3618C107.962 21.5124 108.97 24.2378 109.33 26.3951C109.686 28.5271 109.488 30.9244 107.74 32.4351C106.083 33.8671 104.086 33.0591 102.221 32.3231C100.135 31.5004 98.4263 31.5658 96.3137 30.8951C95.2768 30.5671 94.2429 30.0778 93.5185 29.2324C90.5852 25.8138 95.9273 21.4484 98.4273 24.3844C99.6997 25.8804 102.224 25.5231 100.727 22.0978C100.027 20.4924 97.7956 19.5018 96.2065 19.3178C94.6669 19.1378 92.9727 18.6791 91.4513 18.1857C89.6913 17.6137 90.4799 15.8538 91.3429 15.4111C93.0763 14.5218 94.5784 14.3657 95.8028 12.8564C92.6809 13.0257 89.5424 13.3138 86.408 13.6764C85.5273 15.9191 84.7904 18.3804 85.4243 20.7151C85.8205 22.1764 87.32 23.4031 86.7309 25.0111C85.8961 27.2938 82.8841 27.9671 81.618 25.8618C80.6497 24.2524 81.6492 22.8217 78.3695 22.4897C77.9383 22.4457 77.4721 22.5431 76.9987 22.6404C76.3257 22.7778 75.6383 22.9164 75.0169 22.6498C74.2689 22.3284 74.1096 22.2231 74.0956 21.4404C74.0784 20.4658 75.2383 19.7204 75.9419 19.2991C76.956 18.6924 78.0424 18.4031 78.8987 17.5178C79.7175 16.6698 80.1383 15.5831 80.3965 14.4511C78.5519 14.7098 76.7137 14.9831 74.8904 15.2644C73.8295 15.4271 72.7763 15.6031 71.732 15.7897C72.2085 17.0471 72.1601 18.4938 71.6695 19.7498C71.0653 21.2964 69.9284 21.8898 68.9752 23.1484C68.3279 24.0031 67.5852 24.7111 68.5096 25.7831C71.0571 28.7351 69.2867 30.0604 68.0831 31.0951C66.3566 32.5778 63.1413 32.8031 61.0377 32.1604C57.7711 31.1631 56.1929 25.7244 52.4487 28.8458C47.8555 32.6738 46.9883 26.3711 46.8019 22.1298C45.4768 22.3138 44.2815 22.6498 43.8393 22.7418C43.6419 23.5724 43.4023 24.4084 43.2107 25.2591C42.5325 28.2631 42.1273 30.3017 44.5169 31.0191Z" fill="#1B97DB"/>
<path d="M122.816 49.5753C122.835 48.7207 123.78 46.7807 122.479 46.1073C122.199 45.9633 121.175 45.8927 120.925 47.7887C120.598 50.258 119.259 51.3447 116.626 51.482C116.36 51.4953 116.088 51.4967 115.82 51.506C118.35 51.5207 120.857 51.3433 123.302 50.8673C122.829 50.494 122.802 50.258 122.816 49.5753Z" fill="#1B97DB"/>
<path d="M146.573 36.0815C146.573 36.0815 149.579 33.9642 148.191 32.3162C147.821 32.4189 147.399 32.4335 146.873 32.2669C144.469 31.5015 141.664 32.9669 137.751 35.0429C134.499 36.7655 131.785 35.2229 128.585 34.0415C127.035 33.4682 126.361 33.8442 124.917 33.9989C124.423 34.0522 122.408 34.4295 120.765 34.3682C120.555 35.3802 120.011 36.2735 119.269 37.0522L119.503 37.1535C122.903 38.5375 126.076 39.4015 129.568 40.5322C131.26 41.0802 134.767 41.5669 137.491 42.5615L137.813 42.3522C140.204 39.0762 144.579 36.9935 146.573 36.0815Z" fill="#FEDB00"/>
<path d="M119.503 37.1543L119.269 37.053L119.266 37.057L119.503 37.1543Z" fill="#FEDB00"/>
<path d="M115.819 51.5059C116.088 51.4965 116.36 51.4952 116.626 51.4819C119.259 51.3445 120.598 50.2578 120.925 47.7885C121.175 45.8925 122.199 45.9632 122.479 46.1072C123.78 46.7805 122.835 48.7205 122.816 49.5752C122.802 50.2579 122.828 50.4939 123.302 50.8672C124.063 50.7192 124.82 50.5525 125.568 50.3432C129.081 49.3565 132.099 46.8832 134.978 44.5459C133.81 44.3712 132.53 44.4898 131.452 44.3872C128.846 44.1378 126.534 43.2885 124.137 42.3085C122.585 41.6739 118.878 39.8538 117.67 41.6872C117.553 41.8658 117.285 43.1232 117.316 43.0578C116.715 44.3138 116.05 44.2512 114.74 44.5285C113.038 44.8885 111.425 45.3352 109.986 46.3499C108.944 47.0845 106.436 49.4338 107.62 50.9272L107.637 50.9405C110.36 51.2552 113.103 51.4885 115.819 51.5059Z" fill="#FEDB00"/>
<path d="M14.2164 19.1922C10.708 27.3402 10.5117 33.0322 14.2164 40.8922C15.3705 43.3415 15.6762 46.7868 16.5913 49.6455C18.9669 49.5468 21.4112 49.1508 24.0429 48.4348C32.2585 46.2028 38.37 41.5162 44.1404 36.1575C45.644 36.7108 47.133 37.2762 48.6174 37.8428C48.0945 36.8202 47.7658 35.6282 47.6101 35.1415C47.1388 33.6642 46.0314 31.4735 44.5169 31.0188C42.1273 30.3015 42.5325 28.2628 43.2106 25.2588C43.4022 24.4082 43.6418 23.5722 43.8393 22.7415C42.1628 20.6148 31.7658 8.00149 20.1122 6.36683C15.3242 8.85616 16.3856 14.1562 14.2164 19.1922Z" fill="#FFA131"/>
<path d="M65.9874 43.1286C67.2931 43.414 68.6578 43.4406 69.9775 43.2393C71.59 42.9926 73.0499 42.3753 74.4108 41.494C74.7874 41.25 75.2634 40.9206 75.7816 40.586C72.027 39.7526 68.7248 38.7313 66.3144 37.6553H66.3139C66.1015 37.6313 65.889 37.5993 65.6775 37.5606L65.5915 37.546C65.3744 37.5047 65.1582 37.4593 64.9431 37.4046L64.9296 37.402C62.852 36.882 60.8291 35.8433 58.763 35.3807L58.6619 35.3606C58.4442 35.3153 58.227 35.2753 58.0082 35.2433L57.7739 35.2153C57.5942 35.194 57.4144 35.1793 57.2348 35.17L56.9666 35.1593C56.7858 35.1566 56.6046 35.1633 56.4234 35.1753L56.1775 35.1886C55.9155 35.2153 55.653 35.254 55.389 35.3127C54.3712 35.5433 53.752 35.954 53.1572 36.8006C52.9182 37.142 52.5182 38.3526 51.7988 39.0593C54.0972 39.938 56.3942 40.8006 58.7072 41.6233C59.1578 41.5273 59.615 41.458 60.089 41.4513C62.1931 41.4167 63.9884 42.69 65.9874 43.1286Z" fill="#FFA131"/>
<path d="M13.6389 14.3085C13.4362 16.0992 9.81905 18.0232 8.63989 19.4179C6.73572 21.6699 7.13729 23.8498 9.06541 26.1765C10.8998 28.3912 9.93624 32.7085 9.0977 35.3005C7.6352 39.8205 11.5508 40.5405 12.893 43.3872C13.7919 45.2952 12.5638 47.5178 13.6389 49.3405L13.8389 49.6272C14.7487 49.6845 15.6665 49.6845 16.5914 49.6459C15.6763 46.7872 15.3706 43.3418 14.2165 40.8925C10.5118 33.0325 10.7081 27.3405 14.2165 19.1925C16.3857 14.1565 15.3243 8.85651 20.1123 6.36717C16.9195 8.02717 14.2165 9.19918 13.6389 14.3085Z" fill="#FFA131"/>
<path d="M64.9429 37.4046C65.1579 37.4592 65.3742 37.5046 65.5913 37.5459C65.3742 37.5046 65.1579 37.4579 64.9429 37.4046Z" fill="#FFA131"/>
<path d="M58.7629 35.381C60.8291 35.8437 62.852 36.8823 64.9296 37.4023C62.852 36.8837 60.8291 35.8424 58.7629 35.381Z" fill="#FFA131"/>
<path d="M85.3742 44.6496L85.409 44.5403C85.521 44.1909 85.62 43.8389 85.7038 43.4856L85.7346 43.3589C85.821 42.9763 85.8934 42.5909 85.944 42.2043V42.2029C84.1585 42.0269 82.3893 41.7936 80.6674 41.5163L80.6762 41.7963C80.633 43.5216 79.8924 45.2723 78.821 46.9016C80.5361 47.2176 82.2538 47.5189 83.9757 47.7949C84.5372 46.7723 85.02 45.7229 85.3742 44.6496Z" fill="#FFA131"/>
<path d="M137.445 42.594C138.415 42.9126 139.297 43.31 139.975 43.834C139.323 43.3287 138.455 42.914 137.491 42.562L137.445 42.594Z" fill="#EF8C20"/>
<path d="M77.331 48.8574C77.1394 49.0787 76.9462 49.2974 76.7466 49.5107C76.9471 49.2987 77.1388 49.0774 77.331 48.8574Z" fill="#1B97DB"/>
<path d="M78.8211 46.9018C78.6181 47.2098 78.4029 47.5152 78.1785 47.8125C78.4045 47.5152 78.6175 47.2112 78.8211 46.9018Z" fill="#1B97DB"/>
<path d="M69.8961 45.0277C72.8543 45.737 75.8319 46.349 78.821 46.9023C79.8923 45.273 80.633 43.5223 80.6762 41.797C80.8033 36.769 76.3361 40.2477 74.4106 41.4943C73.0497 42.3757 71.5898 42.993 69.9773 43.2397C68.6575 43.441 67.2929 43.4143 65.9871 43.129C63.9882 42.6903 62.1929 41.417 60.0887 41.4517C58.0117 41.4837 56.1898 42.469 54.3418 43.3877C55.7689 42.6823 57.1825 41.9423 58.707 41.6237C62.357 42.9197 66.0527 44.1063 69.8961 45.0277Z" fill="#1B97DB"/>
<path d="M78.1643 47.8312C77.9487 48.1178 77.7238 48.3992 77.4924 48.6738C77.7252 48.3992 77.9471 48.1178 78.1643 47.8312Z" fill="#1B97DB"/>
<path d="M53.1436 43.9619C53.5466 43.7819 53.9441 43.5859 54.342 43.3872C53.9441 43.5846 53.5466 43.7819 53.1436 43.9619Z" fill="#EF8C20"/>
<path d="M76.7466 49.5109C76.479 49.7949 76.2061 50.0735 75.9285 50.3389C76.2066 50.0735 76.4799 49.7962 76.7466 49.5109Z" fill="#EF8C20"/>
<path d="M75.9285 50.3389C76.2061 50.0735 76.479 49.7949 76.7466 49.5109C76.9462 49.2975 77.1394 49.0789 77.331 48.8575L77.4925 48.6735C77.7238 48.3989 77.9487 48.1175 78.1643 47.8309L78.1785 47.8122C78.4029 47.5149 78.6181 47.2095 78.8212 46.9015C75.8321 46.3482 72.8545 45.7362 69.8962 45.0269C66.0529 44.1055 62.3572 42.9189 58.7072 41.6229C57.1826 41.9415 55.769 42.6815 54.342 43.3868C53.9441 43.5855 53.5466 43.7815 53.1436 43.9615C58.1124 45.7922 64.4472 47.8882 70.5982 49.2602C72.1753 49.6122 73.9722 49.9762 75.9285 50.3389Z" fill="#1D77D8"/>
<path d="M83.8669 48.002L83.9852 47.7966L83.9757 47.7953L83.8669 48.002Z" fill="#EF8C20"/>
<path d="M81.6904 51.333C81.9274 51.013 82.158 50.6863 82.3862 50.357C82.1591 50.6863 81.9274 51.013 81.6904 51.333Z" fill="#EF8C20"/>
<path d="M83.7395 48.223C83.5816 48.4977 83.4187 48.7684 83.2515 49.0391C83.4196 48.7684 83.5816 48.4977 83.7395 48.223Z" fill="#EF8C20"/>
<path d="M13.2039 54.2128C15.3946 54.4781 17.5519 54.4061 19.6466 54.0968C17.6466 52.9394 15.1305 51.5448 13.8389 49.6274C11.5196 49.4821 9.22324 49.0047 6.85449 48.2194C8.36595 51.6381 9.0248 53.7074 13.2039 54.2128Z" fill="#192CDB"/>
<path d="M50.0913 39.4738C50.8033 39.7325 51.3601 39.4898 51.7986 39.0591C50.7409 38.6538 49.6798 38.2485 48.6174 37.8432C48.9997 38.5912 49.482 39.2525 50.0913 39.4738Z" fill="#1D77D8"/>
<path d="M123.311 50.8768L123.302 50.8675C120.857 51.3435 118.35 51.5208 115.819 51.5062C113.714 51.5715 111.543 51.4835 109.457 51.3822C108.883 51.3542 108.064 51.4542 107.637 50.9408C104.391 50.5648 101.174 50.0782 98.068 49.7128C93.3638 49.1595 88.6628 48.5461 83.9852 47.7968L83.867 48.0022L83.7394 48.2235C83.5815 48.4981 83.4195 48.7688 83.2514 49.0395L83.069 49.3288C82.9071 49.5821 82.741 49.8328 82.5716 50.0822L82.3862 50.3568C82.158 50.6861 81.9274 51.0128 81.6904 51.3328C95.8706 53.6061 114.741 55.4502 124.238 53.7795C126.54 53.3755 128.593 52.6768 130.41 51.8102C129.897 51.5422 129.377 51.2981 128.828 51.1581C127.309 50.7701 124.584 51.8675 123.311 50.8768Z" fill="#1D77D8"/>
<path d="M134.979 44.546C135.525 44.6287 136.051 44.7674 136.513 45.038C137.123 45.3927 137.54 45.8953 137.756 46.458C138.655 45.5207 139.388 44.626 139.975 43.834C139.297 43.31 138.415 42.9127 137.445 42.594C136.629 43.206 135.809 43.8714 134.979 44.546Z" fill="#1D77D8"/>
<path d="M146.573 36.082C144.578 36.994 140.205 39.0766 137.813 42.3526L137.49 42.562C138.454 42.914 139.322 43.3287 139.974 43.834C141.181 42.2073 141.764 41.0407 141.764 41.0407L141.905 41.0153C142.726 40.87 146.954 39.8767 147.968 38.378C149.128 36.662 146.573 36.082 146.573 36.082Z" fill="#FCC000"/>
<path d="M115.819 51.5058C113.103 51.4885 110.36 51.2552 107.637 50.9405C108.064 51.4538 108.883 51.3538 109.457 51.3818C111.543 51.4832 113.714 51.5712 115.819 51.5058Z" fill="#FEDB00"/>
<path d="M136.513 45.0376C136.051 44.7669 135.525 44.6282 134.979 44.5456C132.099 46.8829 129.081 49.3562 125.569 50.3429C124.821 50.5522 124.063 50.7189 123.302 50.8669L123.311 50.8762C124.584 51.8669 127.309 50.7696 128.828 51.1576C129.377 51.2976 129.897 51.5416 130.41 51.8096C133.54 50.3162 135.963 48.3242 137.756 46.4576C137.54 45.8949 137.123 45.3922 136.513 45.0376Z" fill="#FCC000"/>
<path d="M50.0913 39.474C49.482 39.2527 48.9997 38.5914 48.6174 37.8434C47.133 37.2767 45.644 36.7113 44.1404 36.158C38.37 41.5167 32.2585 46.2034 24.0429 48.4354C21.4112 49.1514 18.9669 49.5474 16.5913 49.646C17.1986 51.5447 18.071 53.1847 19.6465 54.0967C32.9997 52.1287 43.7798 40.226 43.7798 40.226C43.7798 40.226 47.6158 41.9287 53.1434 43.962C54.9909 43.13 56.758 42.0313 58.707 41.6233C56.394 40.8007 54.097 39.938 51.7986 39.0593C51.3601 39.49 50.8033 39.7327 50.0913 39.474Z" fill="#EF8C20"/>
<path d="M16.5914 49.646C15.6665 49.6847 14.7487 49.6847 13.8389 49.6273C15.1305 51.5447 17.6466 52.9393 19.6466 54.0967C18.0711 53.1847 17.1987 51.5447 16.5914 49.646Z" fill="#EF8C20"/>
<path d="M82.5717 50.0824C82.741 49.833 82.9071 49.5823 83.069 49.329L83.2514 49.0397C83.4186 48.769 83.5815 48.4983 83.7394 48.2237L83.867 48.0023L83.9758 47.7957C82.2539 47.5197 80.5357 47.2183 78.8211 46.9023C78.0029 48.145 76.9962 49.3183 75.9285 50.3397C77.7247 50.6743 79.6597 51.0077 81.6905 51.333C81.9274 51.013 82.1591 50.6863 82.3862 50.357L82.5717 50.0824Z" fill="#EF8C20"/>
<path d="M116.974 18.1483C115.841 18.299 114.322 20.1537 117.389 20.715C117.598 20.7537 117.826 20.787 118.073 20.811C119.472 20.9523 118.951 22.5643 117.749 22.9297C115.541 23.603 115.969 25.3643 117.869 25.8537C119.422 26.255 121.167 26.891 121.981 27.6363C123.159 28.715 123.249 30.6003 121.415 30.875C121.279 30.895 121.04 30.8883 120.75 30.8817C120.581 30.879 120.394 30.875 120.2 30.8763C120.839 32.1697 120.98 33.3323 120.765 34.3683C122.408 34.4297 124.423 34.0523 124.917 33.999C126.361 33.8443 127.035 33.4683 128.585 34.0417C131.785 35.223 134.499 36.7657 137.751 35.043C141.664 32.967 144.469 31.5017 146.873 32.267C147.399 32.4337 147.821 32.419 148.191 32.3163C146.779 30.4963 143.844 30.3177 143.129 30.303C138.832 31.3363 133.209 32.1977 129.159 30.6763C120.2 27.311 119.928 19.5337 120.584 15.1323C119.93 14.9403 119.27 14.763 118.607 14.5963C118.464 16.2643 118.528 18.119 116.974 18.1483Z" fill="#1B97DB"/>
<path d="M119.587 29.8167C119.832 30.1807 120.03 30.5313 120.2 30.8767C120.394 30.8753 120.581 30.8793 120.75 30.882C121.04 30.8887 121.279 30.8953 121.415 30.8753C123.249 30.6007 123.159 28.7153 121.981 27.6367C121.168 26.8913 119.422 26.2553 117.869 25.854C115.969 25.3646 115.541 23.6033 117.749 22.93C118.951 22.5647 119.472 20.9527 118.073 20.8113C117.823 20.786 117.597 20.754 117.389 20.7153C114.256 20.142 115.324 18.1807 116.974 18.1487C118.515 17.9447 118.464 16.2647 118.607 14.5967C116.132 13.9713 113.6 13.5087 111.017 13.2047C110.596 14.638 110.633 16.2313 110.658 17.7113C110.692 19.7593 110.449 21.8087 111.385 23.5327C114.697 24.9513 117.663 26.958 119.587 29.8167Z" fill="#FEDB00"/>
<path d="M116.974 18.1482C115.324 18.1802 114.255 20.1415 117.389 20.7148C114.323 20.1535 115.841 18.2988 116.974 18.1482Z" fill="#FEDB00"/>
<path d="M107.593 19.6809C107.138 17.1542 107.566 15.2422 108.496 12.9528C104.345 12.6142 100.092 12.6248 95.8029 12.8568C94.5785 14.3662 93.0764 14.5222 91.3431 15.4115C90.48 15.8542 89.6915 17.6142 91.4515 18.1862C92.9728 18.6795 94.6671 19.1382 96.2067 19.3182C97.3911 19.4555 98.7499 19.5715 99.7911 20.6368C102.463 20.9608 105.42 21.5022 108.286 22.3955C108.013 21.4715 107.751 20.5542 107.593 19.6809Z" fill="#FEDB00"/>
<path d="M86.408 13.6765C84.3992 13.9085 82.3935 14.1698 80.3966 14.4512C80.1383 15.5832 79.7175 16.6698 78.8987 17.5178C78.0424 18.4032 76.956 18.6925 75.9419 19.2992C75.2383 19.7205 74.0784 20.4658 74.0956 21.4405C74.0987 21.6005 74.1132 21.7165 74.1315 21.8271C77.6799 20.7938 81.4586 20.2405 85.2899 20.0445C84.943 17.9138 85.6118 15.7058 86.408 13.6765Z" fill="#FFA131"/>
<path d="M68.2947 24.0854C68.4712 23.7761 68.7296 23.4721 68.9753 23.1481C69.9285 21.8895 71.0655 21.2961 71.6696 19.7495C72.1603 18.4935 72.2087 17.0468 71.7321 15.7895C68.9415 16.2841 66.2228 16.8508 63.6447 17.4441C63.6415 18.7681 63.4077 20.0641 62.5952 21.1188C61.0144 23.1681 58.9155 22.6055 56.7223 22.4681C56.2332 22.4375 55.7316 22.5201 55.2395 22.6028C54.7488 22.6855 54.2671 22.7681 53.8139 22.7388C52.3915 22.6468 51.7357 21.7868 51.3411 20.7081C49.5233 21.2521 47.9884 21.7401 46.802 22.1295C46.9884 26.3708 47.8556 32.6735 52.4488 28.8455C56.1931 25.7241 57.7712 31.1628 61.0379 32.1601L61.1603 32.1895C60.8077 28.8375 64.5269 25.9894 68.2947 24.0854Z" fill="#FFA131"/>
<path d="M84.8404 35.906C83.6086 33.518 81.3498 31.7073 78.6003 31.5687C78.4919 31.5633 78.3836 31.5593 78.2747 31.5593C76.7602 31.5593 75.2247 32.0846 74.018 32.9873C72.0638 34.45 71.3243 36.942 68.6956 37.5433C68.194 37.658 67.6992 37.706 67.2091 37.706H67.2086C67.6992 37.706 68.194 37.658 68.6956 37.5433C71.3243 36.942 72.0638 34.45 74.018 32.9873C75.2247 32.0846 76.7602 31.5593 78.2747 31.5593C78.3836 31.5593 78.4919 31.5633 78.6003 31.5687C81.3498 31.7073 83.6086 33.518 84.8404 35.906ZM115.249 33.6393C114.78 32.5807 114.649 31.4967 114.651 30.382C114.65 31.39 114.862 32.6287 115.249 33.6393ZM63.4951 32.5007C62.6643 32.5007 61.8571 32.3953 61.1612 32.198C61.1607 32.1953 61.1607 32.1926 61.1602 32.19C61.8602 32.39 62.6727 32.4966 63.508 32.4966C64.981 32.4966 66.5247 32.1646 67.6451 31.4246C66.5222 32.1673 64.9722 32.5007 63.4951 32.5007ZM67.6476 31.4233C67.6519 31.4206 67.656 31.418 67.6596 31.4153C67.6555 31.418 67.6519 31.4206 67.6476 31.4233ZM96.3738 23.4167C97.1186 23.4167 97.8492 23.706 98.4274 24.3847C98.8862 24.9247 99.5091 25.2233 100.046 25.2233C100.211 25.2233 100.368 25.1953 100.51 25.1367C100.367 25.1993 100.208 25.2286 100.04 25.2286C99.5076 25.2286 98.8888 24.9273 98.4274 24.3847C97.8492 23.706 97.1186 23.4167 96.3738 23.4167ZM109.302 26.2353C109.081 24.9993 108.669 23.6913 108.286 22.3953C108.301 22.4006 108.316 22.4047 108.331 22.41C108.701 23.722 109.091 25.0567 109.302 26.2353ZM68.4722 25.7393C68.4711 25.738 68.4695 25.7367 68.4686 25.734C68.4695 25.7353 68.4711 25.738 68.4722 25.7393ZM112.109 24.5566C111.797 24.2273 111.551 23.8806 111.357 23.5206C111.366 23.5246 111.376 23.5287 111.385 23.5327C111.577 23.8873 111.802 24.2326 112.109 24.5566ZM75.017 22.65C74.4159 22.3913 74.1946 22.2726 74.1243 21.83C74.1263 21.83 74.129 21.8286 74.1315 21.8273C74.2055 22.2606 74.4216 22.394 75.017 22.65ZM100.727 22.098C100.472 21.5113 100.011 21.006 99.4519 20.594L99.791 20.6367C100.147 21.0007 100.465 21.4726 100.727 22.098Z" fill="#77D2FA"/>
<path d="M93.5059 42.5938C93.4798 42.5938 93.4549 42.5938 93.4294 42.5938C90.9653 42.5911 88.4403 42.4511 85.9439 42.2031C86.0065 41.7218 86.0398 41.2378 86.0393 40.7498C86.0382 39.1591 85.6819 37.5378 84.8403 35.9058C83.6085 33.5178 81.3497 31.7071 78.6002 31.5684C78.4918 31.5631 78.3835 31.5591 78.2746 31.5591C76.7601 31.5591 75.2246 32.0844 74.0179 32.9871C72.0637 34.4497 71.3242 36.9418 68.6955 37.5431C68.1939 37.6578 67.6991 37.7058 67.2085 37.7058C66.909 37.7058 66.6111 37.6871 66.3142 37.6551C64.6429 36.9097 63.3981 36.1391 62.7314 35.3897C61.7497 34.2871 61.2699 33.2191 61.1611 32.1978C61.857 32.3951 62.6642 32.5004 63.495 32.5004C64.9721 32.5004 66.5221 32.1671 67.645 31.4244C67.6461 31.4244 67.6465 31.4231 67.6475 31.4231C67.6518 31.4204 67.6554 31.4178 67.6595 31.4151C67.6622 31.4138 67.6647 31.4111 67.6674 31.4098C67.6694 31.4084 67.6721 31.4071 67.6742 31.4058C67.6783 31.4018 67.6825 31.3991 67.6866 31.3964C67.6877 31.3964 67.6882 31.3951 67.6893 31.3951C67.8273 31.3018 67.959 31.2018 68.083 31.0951C68.8351 30.4484 69.8085 29.6884 69.8111 28.4884C69.8127 27.7684 69.4647 26.8898 68.5095 25.7831C68.5079 25.7804 68.5059 25.7791 68.5038 25.7764C68.5027 25.7751 68.5018 25.7738 68.5013 25.7724C68.5002 25.7724 68.4991 25.7711 68.4981 25.7698C68.497 25.7684 68.4961 25.7671 68.4945 25.7658C68.4939 25.7644 68.4929 25.7631 68.4923 25.7631C68.4913 25.7618 68.4898 25.7604 68.4887 25.7591C68.4882 25.7577 68.4871 25.7564 68.4866 25.7564C68.4841 25.7524 68.4809 25.7498 68.4783 25.7458H68.4778C68.4767 25.7444 68.4751 25.7431 68.4742 25.7404C68.4737 25.7404 68.4731 25.7391 68.4721 25.7391C68.471 25.7378 68.4694 25.7351 68.4685 25.7338C68.4679 25.7338 68.4674 25.7324 68.4669 25.7324C68.4653 25.7311 68.4642 25.7284 68.4627 25.7271C68.4622 25.7271 68.4617 25.7257 68.4611 25.7257C68.457 25.7204 68.4527 25.7151 68.4486 25.7098C68.4481 25.7098 68.4475 25.7084 68.447 25.7084C68.4461 25.7071 68.4445 25.7044 68.4434 25.7031C68.4429 25.7031 68.4423 25.7018 68.4418 25.7018C68.4403 25.6991 68.4393 25.6978 68.4382 25.6964C68.4371 25.6964 68.4366 25.6951 68.4361 25.6938C68.4351 25.6924 68.4341 25.6911 68.433 25.6897C68.4309 25.6884 68.4294 25.6858 68.4278 25.6844C68.4273 25.6831 68.4262 25.6818 68.4251 25.6804C68.4242 25.6791 68.4231 25.6778 68.4226 25.6764C68.4215 25.6751 68.4205 25.6751 68.4199 25.6738C68.4189 25.6724 68.4179 25.6711 68.4169 25.6698C68.4163 25.6684 68.4153 25.6671 68.4147 25.6671C68.4131 25.6644 68.4117 25.6631 68.4101 25.6604C68.4095 25.6604 68.4095 25.6604 68.4095 25.6604C67.9461 25.0524 68.0237 24.5617 68.2945 24.0857C69.9111 23.2697 71.5346 22.6257 72.8465 22.1911C73.2637 22.0524 73.6991 21.9538 74.1242 21.8298C74.1945 22.2724 74.4158 22.3911 75.0169 22.6498C75.2751 22.7604 75.5455 22.8018 75.821 22.8018C76.2079 22.8018 76.6059 22.7204 76.9986 22.6404C77.3918 22.5591 77.7798 22.4791 78.147 22.4791C78.2221 22.4791 78.2961 22.4817 78.3694 22.4897C81.6491 22.8217 80.6497 24.2524 81.6179 25.8618C82.1439 26.7364 82.9699 27.1311 83.8169 27.1311C85.0095 27.1311 86.2429 26.3471 86.7309 25.0111C86.8251 24.7538 86.8663 24.5058 86.8663 24.2658C86.8679 23.0044 85.757 21.9431 85.4242 20.7151C85.4221 20.7084 85.4199 20.7018 85.4185 20.6951C85.3611 20.4791 85.3251 20.2618 85.2898 20.0444C86.5049 19.9818 87.7231 19.9524 88.9387 19.9524C92.5131 19.9524 96.0658 20.2031 99.4309 20.5911L99.4518 20.5938C100.011 21.0058 100.472 21.5111 100.727 22.0978C101.484 23.9031 101.166 24.8538 100.51 25.1364C100.368 25.1951 100.211 25.2231 100.046 25.2231C99.509 25.2231 98.8861 24.9244 98.4273 24.3844C97.8491 23.7058 97.1185 23.4164 96.3737 23.4164C94.5611 23.4164 92.6622 25.1271 92.6622 27.0751C92.6617 27.7858 92.9147 28.5298 93.5185 29.2324C94.2429 30.0778 95.2767 30.5671 96.3137 30.8951C98.4262 31.5658 100.431 31.8884 102.517 32.7124C103.479 33.0911 104.399 33.3871 105.291 33.3871C106.126 33.3871 106.938 33.1284 107.74 32.4351C109.03 31.3204 109.476 29.7218 109.478 28.1031C109.479 27.5298 109.423 26.9538 109.33 26.3951C109.321 26.3418 109.312 26.2884 109.302 26.2351C109.091 25.0564 108.701 23.7218 108.331 22.4098C109.359 22.7311 110.372 23.0991 111.357 23.5204C111.551 23.8804 111.797 24.2271 112.108 24.5564C113.888 26.4351 114.649 27.7418 114.651 30.3511C114.651 30.3618 114.651 30.3724 114.651 30.3818C114.649 31.4964 114.78 32.5804 115.249 33.6391C115.29 33.7484 115.334 33.8537 115.379 33.9577C116.173 35.7511 117.574 36.3657 119.266 37.0564C117.043 39.3884 113.068 40.6964 111.115 41.1217C106.801 42.0617 98.6549 42.5938 93.5059 42.5938Z" fill="#32B2EF"/>
<path d="M80.6675 41.5166C78.981 41.2459 77.3424 40.9326 75.7815 40.5859C76.8659 39.8859 78.1394 39.1699 79.1138 39.1699C80.0034 39.1699 80.6451 39.7673 80.6675 41.5166Z" fill="#32B2EF"/>
<path d="M120.2 30.8762C118.857 30.8895 117.178 31.1761 118.621 33.6188C118.926 34.1375 119.778 34.3322 120.765 34.3682C120.98 33.3322 120.839 32.1695 120.2 30.8762Z" fill="#1B97DB"/>
<path d="M120.765 34.3682C119.778 34.3322 118.926 34.1375 118.62 33.6188C118.229 32.9561 118.067 32.4522 118.067 32.0682C118.065 31.0402 119.222 30.8855 120.2 30.8762C120.656 31.8002 120.859 32.6588 120.859 33.4508C120.859 33.7668 120.826 34.0722 120.765 34.3682Z" fill="#32B2EF"/>
<path d="M118.621 33.6193C117.178 31.1766 118.857 30.89 120.2 30.8767C120.03 30.5313 119.832 30.1807 119.587 29.8167C117.663 26.958 114.697 24.9513 111.385 23.5327C111.578 23.8873 111.802 24.2326 112.109 24.5566C113.896 26.442 114.655 27.7527 114.651 30.382C114.649 31.498 114.91 32.898 115.38 33.958C116.173 35.7513 117.574 36.366 119.266 37.0566C120.009 36.2766 120.554 35.382 120.765 34.3687C119.778 34.3327 118.926 34.138 118.621 33.6193Z" fill="#FEDB00"/>
<path d="M118.621 33.6193C117.178 31.1766 118.857 30.89 120.2 30.8767C120.03 30.5313 119.832 30.1807 119.587 29.8167C117.663 26.958 114.697 24.9513 111.385 23.5327C111.578 23.8873 111.802 24.2326 112.109 24.5566C113.896 26.442 114.655 27.7527 114.651 30.382C114.649 31.498 114.91 32.898 115.38 33.958C116.173 35.7513 117.574 36.366 119.266 37.0566C120.009 36.2766 120.554 35.382 120.765 34.3687C119.778 34.3327 118.926 34.138 118.621 33.6193Z" fill="#FFE66C"/>
<path d="M100.727 22.0975C102.172 25.5455 99.7003 25.8788 98.4274 24.3842C95.9274 21.4482 90.5852 25.8135 93.5186 29.2322C94.243 30.0775 95.2768 30.5668 96.3138 30.8948C98.4263 31.5655 100.431 31.8882 102.517 32.7108C104.381 33.4468 106.083 33.8668 107.74 32.4348C109.488 30.9242 109.686 28.5268 109.33 26.3948C109.117 25.1135 108.686 23.7468 108.286 22.3948C105.42 21.5015 102.463 20.9602 99.791 20.6362C100.147 21.0002 100.465 21.4722 100.727 22.0975Z" fill="#FEDB00"/>
<path d="M100.727 22.0975C102.172 25.5455 99.7003 25.8788 98.4274 24.3842C95.9274 21.4482 90.5852 25.8135 93.5186 29.2322C94.243 30.0775 95.2768 30.5668 96.3138 30.8948C98.4263 31.5655 100.431 31.8882 102.517 32.7108C104.381 33.4468 106.083 33.8668 107.74 32.4348C109.488 30.9242 109.686 28.5268 109.33 26.3948C109.117 25.1135 108.686 23.7468 108.286 22.3948C105.42 21.5015 102.463 20.9602 99.791 20.6362C100.147 21.0002 100.465 21.4722 100.727 22.0975Z" fill="#FFE66C"/>
<path d="M75.0171 22.6504C76.0744 23.1037 77.3248 22.385 78.3691 22.4904C81.6493 22.8224 80.6499 24.253 81.6181 25.8624C82.8843 27.9677 85.8963 27.2957 86.7311 25.0117C87.3196 23.4037 85.8207 22.1771 85.4244 20.7157C85.3633 20.4931 85.3264 20.2691 85.29 20.0451C81.4587 20.2411 77.68 20.7944 74.1316 21.8277C74.2056 22.261 74.4217 22.3944 75.0171 22.6504Z" fill="#FFA131"/>
<path d="M75.0171 22.6504C76.0744 23.1037 77.3248 22.385 78.3691 22.4904C81.6493 22.8224 80.6499 24.253 81.6181 25.8624C82.8843 27.9677 85.8963 27.2957 86.7311 25.0117C87.3196 23.4037 85.8207 22.1771 85.4244 20.7157C85.3633 20.4931 85.3264 20.2691 85.29 20.0451C81.4587 20.2411 77.68 20.7944 74.1316 21.8277C74.2056 22.261 74.4217 22.3944 75.0171 22.6504Z" fill="#FFBE78"/>
<path d="M68.0831 31.095C69.2867 30.0603 71.0571 28.735 68.5097 25.783C67.9362 25.119 68.0055 24.5937 68.2946 24.0857C64.5269 25.9897 60.8077 28.8377 61.1602 32.1897C63.2638 32.7897 66.3873 32.551 68.0831 31.095Z" fill="#FFA131"/>
<path d="M68.0831 31.095C69.2867 30.0603 71.0571 28.735 68.5097 25.783C67.9362 25.119 68.0055 24.5937 68.2946 24.0857C64.5269 25.9897 60.8077 28.8377 61.1602 32.1897C63.2638 32.7897 66.3873 32.551 68.0831 31.095Z" fill="#FFBE78"/>
<path d="M84.8409 35.9058C83.6085 33.5178 81.3497 31.7071 78.6002 31.5685C76.9819 31.4871 75.3111 32.0191 74.0179 32.9871C72.0637 34.4498 71.3242 36.9418 68.6955 37.5431C67.8871 37.7271 67.0965 37.7404 66.3142 37.6551C68.7246 38.7311 72.0267 39.7524 75.7814 40.5858C77.8554 39.2471 80.6205 37.8485 80.6674 41.5165C82.3893 41.7938 84.1579 42.0271 85.9439 42.2031C86.2111 40.1498 85.9398 38.0378 84.8409 35.9058Z" fill="#FFA131"/>
<path d="M84.8409 35.9058C83.6085 33.5178 81.3497 31.7071 78.6002 31.5685C76.9819 31.4871 75.3111 32.0191 74.0179 32.9871C72.0637 34.4498 71.3242 36.9418 68.6955 37.5431C67.8871 37.7271 67.0965 37.7404 66.3142 37.6551C68.7246 38.7311 72.0267 39.7524 75.7814 40.5858C77.8554 39.2471 80.6205 37.8485 80.6674 41.5165C82.3893 41.7938 84.1579 42.0271 85.9439 42.2031C86.2111 40.1498 85.9398 38.0378 84.8409 35.9058Z" fill="#FFBE78"/>
<path d="M27.8441 13.6155C19.0591 7.62088 16.5451 11.8635 16.8957 12.8475C18.5337 17.4449 16.0675 18.5129 13.8419 18.7915C10.0555 19.2675 8.69668 22.2395 10.9409 23.8489C13.2509 25.5049 12.9326 28.0355 11.7097 29.4435C11.0133 30.2449 10.1925 31.8182 11.5112 32.9435C13.8493 34.9395 17.8373 33.7675 19.8857 33.6849C25.3451 33.4635 32.6181 33.0995 38.0779 32.8795C40.8633 32.7675 42.2873 30.5355 41.869 27.0035C41.0738 20.2875 28.5743 14.1129 27.8441 13.6155Z" fill="#FFBE78"/>
<path d="M134.427 20.115C134.049 17.5417 131.646 15.5217 128.99 15.6883C125.969 15.8777 123.029 19.4323 124.732 23.2537C126.654 27.5643 131.098 26.6563 132.396 25.339C133.869 23.843 134.631 21.5004 134.427 20.115Z" fill="#FCC000"/>
<path d="M134.887 21.7806C134.887 24.1739 132.946 26.1152 130.552 26.1152C128.158 26.1152 126.217 24.1739 126.217 21.7806C126.217 19.3859 128.158 17.4446 130.552 17.4446C132.946 17.4446 134.887 19.3859 134.887 21.7806Z" fill="#2A34F2"/>
<path d="M105.602 49.6068C105.602 49.6068 108.011 45.2641 107.875 42.0348C107.768 39.4801 106.523 37.4508 103.94 36.6241C100.347 35.4721 97.3353 36.6855 94.6758 39.2801C94.6023 39.2641 87.9633 38.3255 83.4545 42.8335C82.3883 43.9001 78.4201 49.3401 81.1405 52.4148C82.3034 53.7308 81.8607 55.2121 83.0039 56.9761C83.9925 58.5028 86.4081 58.3401 87.8884 61.4214C89.0222 63.7841 92.681 61.7841 94.7503 62.9241C98.0233 64.7268 100.834 63.2521 103.341 61.0708C106.545 58.2828 105.602 49.6068 105.602 49.6068Z" fill="#2A34F2"/>
<path d="M127.037 29.3632C124.352 27.9792 122.165 24.6552 121.175 21.2965C120.435 18.7858 120.558 16.0698 120.584 15.1325C119.339 21.1165 121.634 26.3499 125.759 29.2805C127.804 30.7325 130.38 31.5045 132.822 31.6099C136.376 31.7619 139.716 31.4298 143.129 30.3032C139.975 30.6512 131.965 31.9045 127.037 29.3632Z" fill="#2A34F2"/>
<path d="M148.191 32.3162C146.929 31.7962 143.104 31.8401 140.844 33.0735C138.98 34.0908 137.468 35.1842 135.216 35.3162C133.307 35.4282 131.759 34.7175 130.014 34.1295C128.745 33.7028 127.649 33.5708 126.319 33.7015C125.04 33.8255 123.04 34.2935 121.937 34.2521C121.019 34.2188 119.24 33.6748 118.658 32.6041C118.309 31.9615 119.458 31.3161 120.084 31.2895C122.753 31.1775 122.842 30.2335 122.979 29.6361C123.362 27.9548 121.819 26.9055 120.484 26.2908C119.8 25.9761 118.921 25.7535 118.174 25.5215C116.929 25.1348 116.052 24.7255 117.061 23.8321C117.755 23.2175 119.195 22.5455 119.059 21.3708C118.984 20.7188 117.087 20.2188 116.535 19.7561C115.879 19.2055 116.623 18.7175 117.607 18.2295C118.884 17.5948 118.977 15.6601 118.607 14.5961C118.47 15.2828 118.451 16.9561 117.587 17.5575C116.318 18.4401 115.38 18.3361 115.38 19.5295C115.38 20.4881 117.503 20.8441 117.794 21.3335C118.292 22.1708 117.123 22.8748 116.691 23.2015C116.424 23.4041 116.038 23.7801 115.942 24.3108C115.639 26.0015 118.054 26.3695 118.977 26.5948C120.029 26.8508 121.164 27.4588 121.738 28.3215C122.313 29.1841 121.795 30.4255 120.438 30.6281C119.736 30.7321 118.207 30.5388 117.85 31.7961C117.469 33.1388 119.047 34.1482 120.161 34.6148C123.059 35.8308 125.537 33.6121 128.52 34.4455C131.287 35.2175 134.277 36.7428 137.176 35.7628C138.404 35.3468 139.331 34.5721 140.395 33.8628C142.831 32.2388 147.493 32.6802 148.191 32.3162Z" fill="#2A34F2"/>
<path d="M139.975 43.834C138.308 41.7593 131.872 41.0847 128.284 39.9087C126.488 39.3207 124.303 38.666 122.533 38.0033C120.537 37.2553 117.314 36.4007 116.091 34.546C115.111 33.0607 115.192 30.954 114.821 29.2367C114.483 27.6673 114.151 26.442 112.759 24.9033C111.255 23.2393 111.197 21.2286 111.007 19.1873C110.814 17.134 110.911 15.106 111.017 13.2047C110.283 14.5847 110.317 17.2327 110.43 19.618C110.53 21.722 111.037 23.298 111.839 24.75C113.024 26.8953 113.771 26.806 114.212 29.6873C114.495 31.5353 114.62 32.9353 115.38 34.6713C116.366 36.926 122.339 38.686 124.881 39.474C132.422 41.81 137.38 42.486 139.975 43.834Z" fill="#2A34F2"/>
<path d="M133.191 21.6685C133.191 23.0365 132.082 24.1445 130.715 24.1445C129.347 24.1445 128.238 23.0365 128.238 21.6685C128.238 20.3005 129.347 19.1925 130.715 19.1925C132.082 19.1925 133.191 20.3005 133.191 21.6685Z" fill="white"/>
<path d="M132.396 21.7424C132.396 22.4597 131.815 23.041 131.098 23.041C130.381 23.041 129.8 22.4597 129.8 21.7424C129.8 21.0264 130.381 20.445 131.098 20.445C131.815 20.445 132.396 21.0264 132.396 21.7424Z" fill="#2A34F2"/>
<path d="M131.696 21.4222C131.696 21.7515 131.429 22.0195 131.098 22.0195C130.769 22.0195 130.501 21.7515 130.501 21.4222C130.501 21.0915 130.769 20.8235 131.098 20.8235C131.429 20.8235 131.696 21.0915 131.696 21.4222Z" fill="white"/>
<path d="M111.936 34.5229C111.406 34.1842 110.523 34.2202 109.97 34.4869C109.684 34.6256 109.536 34.8776 109.513 35.1469C109.46 35.3269 109.458 35.5323 109.579 35.7803C110.064 36.7749 111.645 36.6922 112.201 35.8256C112.498 35.3642 112.402 34.8229 111.936 34.5229Z" fill="#FEDB00"/>
<path d="M105.799 34.2101C105.269 33.8701 104.386 33.9061 103.834 34.1741C103.548 34.3128 103.399 34.5634 103.376 34.8341C103.323 35.0141 103.321 35.2194 103.442 35.4661C103.927 36.4621 105.508 36.3781 106.064 35.5128C106.361 35.0501 106.266 34.5101 105.799 34.2101Z" fill="#FEDB00"/>
<path d="M113.436 36.2542C112.334 36.2542 111.83 37.2916 111.724 37.5342C111.47 38.1169 111.496 38.8369 111.991 39.2876C112.421 39.6782 113.18 39.7956 113.608 39.3769C115.44 37.5823 114.141 36.2542 113.436 36.2542Z" fill="#FEDB00"/>
<path d="M109.735 37.662C109.514 37.0193 108.367 36.158 107.705 36.4753C106.414 37.0953 107.9 38.5513 108.451 38.8113C109.272 39.198 110.029 38.522 109.735 37.662Z" fill="#FEDB00"/>
<path d="M110.745 40.5249C110.624 40.2062 110.186 40.0022 109.913 40.3049C108.873 41.4595 108.388 43.0369 109.675 43.4355C110.245 43.6129 110.765 43.2555 110.954 42.7222C111.201 42.0302 110.993 41.1835 110.745 40.5249Z" fill="#FEDB00"/>
<path d="M108.496 12.9525C107.18 14.6845 106.647 16.8072 107.205 19.1872C108.243 23.6205 110.769 28.1285 107.669 31.9659C105.96 34.0819 103.483 32.3032 100.981 31.6285C99.02 31.0992 94.6085 30.5832 93.3341 28.7725C90.9689 25.4139 96.2289 22.2726 98.2732 24.5752C98.6117 24.9566 99.5695 25.3112 100.136 25.3392C100.904 25.3765 101.274 24.8992 101.376 24.5459C101.977 22.4619 100.229 20.5752 98.6809 19.8712C96.8295 19.0285 93.1356 18.8352 91.4195 17.8965C90.1913 17.2245 90.6309 16.0965 91.8961 15.5325C94.0497 14.5712 95.2929 13.7512 95.8028 12.8565C94.2872 14.2872 92.1747 14.7259 91.0315 15.4072C90.7107 15.6006 90.2325 16.1112 90.1471 16.6152C89.9304 17.8952 91.0263 18.3139 92.0164 18.6459C93.5289 19.1526 95.1795 19.2632 96.7112 19.7299C97.8523 20.0779 98.7279 20.4512 99.5409 21.1965C101.188 22.7059 101.085 23.4539 100.85 24.1512C100.568 24.9886 99.7413 25.1846 97.9643 23.7806C96.7732 22.8392 95.3237 23.0805 94.0685 23.9632C92.7377 24.8992 91.6175 26.7552 92.4716 28.5232C93.12 29.8645 94.9607 30.4872 96.2289 30.9525C97.8247 31.5379 99.6664 31.7525 101.274 32.2632C102.451 32.6365 103.608 33.4752 104.866 33.6232C106.618 33.8285 108.196 32.8539 108.882 31.2779C110.819 26.8339 108.462 22.2325 107.707 18.2712C107.332 16.3125 108.001 14.2459 108.496 12.9525Z" fill="#2A34F2"/>
<path d="M86.3477 22.0857C85.8343 20.6364 85.0644 19.6524 85.2223 18.0591C85.3499 16.7697 86.0097 14.9044 86.4081 13.6764C84.7133 15.5671 84.5087 18.5377 85.3332 20.9951C85.5837 21.7417 86.2509 23.4284 86.404 24.1444C86.7983 25.9924 84.9728 26.6711 84.2248 26.8191C82.1603 27.2257 81.6129 25.5124 81.2671 24.7751C81.0395 24.2911 80.7248 23.2244 80.3551 22.8364C79.9639 22.4257 78.8545 22.0951 78.1931 22.1404C76.5977 22.2497 74.6056 22.7884 74.5133 21.3337C74.4431 20.2377 76.6837 19.1404 77.2244 18.7751C78.3363 18.0257 80.0373 17.0698 80.3967 14.4511C79.7671 15.6938 78.8759 17.2218 77.6363 17.9164C76.7119 18.4338 75.504 19.0484 74.6441 19.6991C73.9504 20.2244 73.6316 21.0804 73.9081 21.9564C74.1561 22.7417 74.7144 22.8484 75.5644 22.9498C76.4244 23.0511 77.2067 22.5791 78.0665 22.7631C79.2837 23.0217 79.866 23.4417 80.4248 24.5004C80.6357 24.8991 81.1857 26.2297 81.4676 26.6124C82.5744 28.1151 85.4545 27.3831 86.592 25.9924C87.4821 24.9044 86.7764 23.2951 86.3477 22.0857Z" fill="#2A34F2"/>
<path d="M68.7004 23.775C68.8832 23.3643 70.002 22.495 70.392 22.1483C71.94 20.7696 73.1414 18.8723 71.7321 15.7896C71.9357 17.9696 72.041 18.8976 70.6805 20.9016C70.0681 21.8043 68.2816 22.8643 67.9181 23.8309C67.802 24.1416 67.7722 24.2456 67.816 24.6203C67.9998 26.1936 69.8857 26.8016 69.7014 28.4576C69.4504 30.7163 66.3248 31.755 64.7258 32.079C62.3248 32.5656 60.1681 31.6816 58.3633 30.1763C57.0613 29.091 56.0952 27.5976 54.2629 27.8336C52.9102 28.0069 51.629 29.5176 50.3368 29.7309C47.6124 30.1816 47.2613 23.8429 46.802 22.1283C46.6629 24.3016 47.0081 25.8843 47.5186 27.5896C47.8056 28.5456 48.4769 29.7683 49.3712 30.1003C51.2222 30.7896 53.267 27.7949 55.2394 28.3216C56.8466 28.7496 57.892 31.1896 59.8394 32.0123C62.0608 32.9496 64.5077 32.819 65.4206 32.6416C65.7446 32.579 69.5572 31.7283 70.1176 29.1856C70.3842 27.9736 69.9952 27.2336 69.3681 26.1589C68.8466 25.2669 68.2274 24.8336 68.7004 23.775Z" fill="#2A34F2"/>
<path d="M62.7431 20.3517C61.5739 22.3997 60.8337 22.4463 59.1411 22.5117C58.6103 22.5317 57.2119 22.149 56.0603 22.389C55.1671 22.5743 54.2305 22.701 53.4744 22.5677C51.9827 22.3063 51.9072 21.781 51.3411 20.709C51.3925 23.2597 53.8395 23.1183 56.042 22.7423C57.1373 22.5557 58.652 22.8223 59.302 22.8223C60.6233 22.8236 61.49 22.625 62.3853 21.569C63.3759 20.3997 63.8843 18.9757 63.6447 17.445C63.5212 18.3877 63.1857 19.5757 62.7431 20.3517Z" fill="#2A34F2"/>
<path d="M83.2108 33.1872C81.7269 31.9792 80.8248 31.5339 78.1014 31.4219C76.1498 31.3406 74.4638 32.3659 73.0853 33.6406C71.3072 35.2859 69.8482 37.2086 67.3108 37.2259C65.4905 37.2392 63.5238 36.5872 61.6373 35.9619C59.7977 35.3526 57.0056 33.7886 53.8493 35.6673C52.4696 36.4886 52.2072 39.0659 50.4436 38.8686C48.6332 38.6659 48.1884 35.7179 47.5748 34.2579C47.2785 33.5512 47.0138 32.6886 46.5296 32.0793C45.9556 31.3566 44.9457 31.0153 44.1748 30.5006C42.09 29.1113 43.3676 25.2793 43.8394 22.7419C43.0441 24.6539 42.0165 27.5219 42.6878 29.5872C43.2222 31.2326 44.7873 31.0086 45.8624 32.2246C47.4488 34.0192 48.105 40.5552 51.1972 39.5272C52.3086 39.1579 52.8905 37.7286 53.4144 37.0952C56.1785 33.7512 60.4362 36.3633 64.8009 37.5833C66.7774 38.1353 68.3832 37.7926 70.3414 36.9819C73.2696 35.7713 73.5681 31.7886 78.6081 31.9846C80.19 32.0473 81.8072 32.5179 82.9977 33.5659C84.6905 35.0579 85.6717 38.7099 86.0446 40.8926C86.3102 38.2779 84.8722 34.5406 83.2108 33.1872Z" fill="#2A34F2"/>
<path d="M81.1676 41.2269C80.8873 39.1482 79.9206 38.5335 77.9509 39.1575C75.1733 40.0389 73.1129 42.3109 70.1264 42.8842C66.9332 43.4975 65.1228 42.4669 62.3586 41.3962C59.0868 40.1282 53.943 42.6922 53.1436 43.9615C55.9348 42.6922 58.8514 40.9762 62.6597 42.2975C64.5004 42.9362 65.619 43.5095 67.3441 43.7415C69.9077 44.0869 72.7826 42.8935 75.0577 41.3775C77.2556 39.9122 78.7577 39.5682 79.2091 39.6682C80.4643 39.9469 80.7805 40.7695 80.4487 42.5789C80.2842 43.4789 79.566 45.2855 79.0586 46.0362C78.0201 47.5722 76.8238 49.2855 75.9285 50.3389C77.4061 49.3989 81.6201 44.5882 81.1676 41.2269Z" fill="#2A34F2"/>
<path d="M132.335 44.2535C130.025 44.0509 127.637 43.2416 125.415 42.4456C123.217 41.6576 121.181 40.8842 119.539 40.7242C118.961 40.6669 117.967 40.9922 117.49 41.8189C117.081 42.5242 117.219 43.3349 116.255 43.8776C115.956 44.0456 112.622 44.8229 111.708 45.2762C110.139 46.0549 105.142 49.4522 107.957 51.2696C108.569 51.6656 109.855 51.5842 110.965 51.6282C112.835 51.7029 114.991 51.7469 116.219 51.6709C117.408 51.5976 118.857 51.6282 119.79 50.7509C120.332 50.2416 120.819 48.8562 121.186 47.3202C121.41 46.3855 122.09 45.9242 122.648 46.5176C123.597 47.5269 122.551 48.7456 122.724 50.0349C122.949 51.7229 124.809 51.4522 125.496 51.3829C127.309 51.2016 128.828 51.1576 130.41 51.8096C129.595 51.1282 128.799 51.1189 127.74 51.0069C127.219 50.9509 126.646 50.9456 126.124 50.9776C125.78 51.0149 125.348 51.0402 125.09 51.0629C124.387 51.1256 122.582 51.1482 123.176 48.6016C123.274 48.1842 123.513 47.4776 123.421 47.0442C123.346 46.6869 123.119 46.3509 122.855 46.1509C122.483 45.8682 121.716 45.7216 121.073 46.7162C120.719 47.2642 120.657 48.3629 120.413 48.9322C119.58 50.8722 118.386 51.2509 115.66 51.3842C114.475 51.4416 112.623 51.3762 110.918 51.2802C109.5 51.2002 108.217 51.3042 107.691 50.4002C106.66 48.6309 110.81 46.0949 111.88 45.5842C113.935 44.6029 116.338 44.7682 117.212 43.6509C117.416 43.3882 117.679 42.3429 117.876 42.0296C118.365 41.2549 118.961 41.0762 119.948 41.3122C121.694 41.7269 123.49 42.2776 125.172 42.9176C126.035 43.2469 127.877 43.7882 128.764 44.0442C130.629 44.5829 132.977 44.5656 134.963 44.7162C136.227 44.8136 137.193 45.5002 137.756 46.4576C137.428 44.1602 134.091 44.4069 132.335 44.2535Z" fill="#2A34F2"/>
<path d="M128.884 13.0444C126.035 13.3257 122.612 15.6497 123.811 18.8831C123.813 18.8911 123.935 16.7324 125.008 15.6351C126.45 14.1591 129.125 13.6671 130.91 14.0697C133.657 14.6871 135.379 16.055 137.104 19.1924C136.929 15.3844 131.976 12.7404 128.884 13.0444Z" fill="#2A34F2"/>
<path d="M39.9414 34.1281C38.9348 33.9175 38.1072 34.9281 38.3441 35.7921C38.3712 35.9588 38.4405 36.1268 38.5638 36.2921C38.9326 36.7855 39.619 36.9535 40.1857 36.7241C41.402 36.2321 41.2118 34.3948 39.9414 34.1281Z" fill="#2A34F2"/>
<path d="M39.0611 24.3072C38.0549 24.0965 37.2273 25.1059 37.4642 25.9699C37.4913 26.1365 37.5606 26.3045 37.6846 26.4699C38.0527 26.9632 38.7398 27.1312 39.3059 26.9019C40.5221 26.4099 40.3319 24.5725 39.0611 24.3072Z" fill="#2A34F2"/>
<path d="M39.2216 29.2623C38.7186 29.2623 38.156 29.725 38.02 30.173C35.7154 30.581 26.0951 30.2743 23.7555 30.2317C20.8238 30.1797 12.6721 29.901 12.8971 31.273C13.006 31.9343 15.332 31.649 16.5419 31.5917C19.6799 31.441 33.8055 31.121 38.0779 30.9143C38.4831 31.985 40.0424 32.0223 40.3862 30.9597C40.6154 30.253 40.2695 29.261 39.2216 29.2623Z" fill="#2A34F2"/>
<path d="M36.8139 39.8912C35.7275 40.4605 27.1915 43.9032 24.727 44.8525C21.3134 46.1672 18.5239 47.0725 18.6614 47.8352C18.8338 48.7978 23.3234 47.0445 24.7696 46.4432C25.777 46.0245 28.202 44.9472 29.2786 44.4645C31.8248 43.3232 34.789 42.0578 37.0926 40.3072C37.7191 39.8312 37.3582 39.6072 36.8139 39.8912Z" fill="#2A34F2"/>
<path d="M35.9676 35.1767C32.0264 35.406 25.2228 36.3927 21.7483 36.842C19.8166 37.0913 14.2166 37.7153 14.2166 38.8313C14.2166 39.6273 20.7952 38.2673 24.4696 37.7113C27.5239 37.2487 32.4092 36.67 35.8911 35.5913C36.5426 35.3887 36.2696 35.158 35.9676 35.1767Z" fill="#2A34F2"/>
<path d="M36.2592 21.5178C35.2097 20.8831 26.9009 16.9244 24.4988 15.8258C21.1728 14.3044 18.4436 13.2298 18.6274 12.4764C18.8586 11.5271 23.2321 13.5524 24.6394 14.2404C25.6186 14.7191 27.9738 15.9444 29.0186 16.4911C31.4905 17.7884 34.3712 19.2311 36.5633 21.1204C37.1592 21.6338 36.7853 21.8351 36.2592 21.5178Z" fill="#2A34F2"/>
<path d="M35.1257 26.1728C31.206 25.7021 24.4757 24.3008 21.0352 23.6394C19.1226 23.2728 13.571 22.3048 13.6393 21.1914C13.6882 20.3981 20.171 22.1581 23.8038 22.9381C26.8242 23.5874 31.6648 24.4634 35.0742 25.7541C35.7132 25.9954 35.4257 26.2088 35.1257 26.1728Z" fill="#2A34F2"/>
<path d="M20.0191 22.6074C19.9457 22.5941 19.8483 22.5794 19.7124 22.5594L20.0191 22.6074Z" fill="#2A34F2"/>
<path d="M94.5405 42.6416C91.3905 42.3282 88.3143 42.7389 86.0763 44.9562C85.2039 45.8202 84.2722 47.3055 83.8711 48.5202C83.3799 50.0109 83.5466 50.8042 84.6571 51.3642C86.8971 52.4935 85.7842 53.1295 85.3373 54.1642C85.1446 54.6095 85.0623 55.0829 85.4081 55.4589C85.9263 56.0215 86.7299 55.4669 87.3279 55.5229C90.2133 55.7975 87.7258 57.7936 89.5034 58.9149C90.4383 59.5056 91.2618 58.8416 92.0946 58.7029C95.1181 58.2002 93.969 60.1189 95.7154 60.9069C96.5133 61.2669 97.269 61.0042 97.8029 60.3922C98.5143 59.5775 97.9566 58.1269 99.8738 58.3895C100.378 58.4589 101.005 58.9562 101.488 58.6522C102.452 58.0482 102.746 57.0562 103.03 55.9509C104.506 50.1936 100.589 43.2442 94.5405 42.6416Z" fill="#FEDB00"/>
<path d="M94.8092 44.03C93.5796 43.7074 93.5051 44.7487 90.7619 45.7167C88.8051 46.4074 86.7644 46.87 85.2332 47.9354C84.7509 48.2714 84.6004 48.6447 85.3483 48.2954C87.4405 47.3207 89.6176 46.9981 91.8321 46.3514C93.0472 45.9954 94.2072 45.7634 95.0133 44.7487C95.2895 44.4021 94.9649 44.0714 94.8092 44.03Z" fill="#2A34F2"/>
<path d="M96.6852 47.4275C96.5221 47.9142 96.3284 49.0182 96.1732 49.4742C95.7773 50.6395 95.4456 51.5235 94.8576 52.3862C94.0106 53.6275 92.9596 54.5488 92.0737 55.7582C91.4194 56.6502 92.0642 56.4622 92.194 56.3662C93.3164 55.5422 94.4956 54.1022 95.2513 53.1022C95.9221 52.2168 97.5882 49.8128 97.7122 47.7462C97.7628 46.9222 96.9232 46.7128 96.6852 47.4275Z" fill="#2A34F2"/>
<path d="M98.0223 55.1524C98.03 55.0164 97.8857 54.8804 97.7353 54.9338C97.18 55.1284 96.7504 55.8658 96.5097 56.4511C96.0577 57.5485 96.2248 57.8538 96.3681 57.9805C96.7701 58.3311 97.2988 57.4218 97.4431 57.0938C97.7972 56.2871 97.9879 55.7791 98.0223 55.1524Z" fill="#2A34F2"/>
<path d="M101.14 50.2457C100.923 49.5737 100.136 49.0044 99.7414 49.5737C99.3638 50.1191 99.441 50.9031 99.441 51.5404C99.441 52.3297 99.4399 53.1564 99.4222 53.4004C99.331 54.6404 99.3784 55.3057 99.018 56.5977C98.9044 57.0031 99.0284 57.1124 99.2904 56.7817C99.4654 56.5604 99.7856 55.7124 99.8544 55.3537C100.029 54.4337 100.296 53.6244 100.474 52.7044C100.566 52.2337 101.295 50.7257 101.14 50.2457Z" fill="#2A34F2"/>
<path d="M87.8336 52.5538C87.1685 53.1298 87.4794 53.1659 88.1694 53.0485C88.7518 52.9499 89.897 52.4712 91.1189 51.0792C91.4117 50.7459 91.8492 50.3512 91.9262 49.8725C92.0242 49.2712 91.2825 49.7739 90.1232 50.6392C89.1445 51.3685 88.2518 52.1925 87.8336 52.5538Z" fill="#2A34F2"/>
<path d="M55.7528 10.8475C55.3372 11.1942 55.3279 11.6035 55.2065 12.0875C54.8008 12.6888 54.2399 12.6315 53.9096 13.0822C53.2341 14.0062 54.7711 14.7782 55.4336 14.0715C55.7399 13.7462 55.818 13.4235 56.2137 13.1502C56.8799 12.6889 57.144 12.2408 57.2549 11.8875C57.5815 10.8475 57.1055 9.71688 55.7528 10.8475Z" fill="#1D77D8"/>
<path d="M61.9856 8.42445C61.5861 8.17912 61.0659 8.23648 60.6804 8.48181C60.4961 8.59914 60.3352 8.75114 60.2295 8.9418C59.7852 9.73914 59.1831 9.7538 59.1513 10.2071C59.1263 10.5605 59.4377 10.8618 59.7877 10.8471C60.0451 10.8351 60.2763 10.6431 60.5185 10.5725C60.844 10.4791 61.1883 10.4738 61.5112 10.3658C62.3533 10.0858 62.9216 9.00045 61.9856 8.42445Z" fill="#1D77D8"/>
<path d="M65.7309 8.13214C65.2784 7.9148 63.7033 8.37215 63.9742 9.28149C64.1622 9.91215 65.2413 9.78682 65.6409 9.51749C66.1237 9.19349 66.3762 8.44147 65.7309 8.13214Z" fill="#1D77D8"/>
<path d="M75.2429 5.5752C75.0013 5.20053 74.5299 5.2192 74.1299 5.17653C72.3841 4.9912 71.8669 5.22985 71.7487 5.79518C71.6804 6.12318 71.8721 6.39252 72.1799 6.50186C72.4388 6.59252 72.7299 6.58185 72.9951 6.66185C73.3268 6.76318 73.6279 6.92587 73.9747 6.98054C74.7221 7.0992 75.7929 6.42586 75.2429 5.5752Z" fill="#1D77D8"/>
<path d="M79.8549 5.41971C79.2503 4.88904 76.9419 5.88506 77.2112 6.6424C77.5289 7.5384 78.5315 7.58773 79.0809 7.34373C79.7257 7.0584 80.5965 6.06771 79.8549 5.41971Z" fill="#1D77D8"/>
<path d="M83.0561 4.17522C82.7165 4.01922 80.9504 4.51389 81.1764 5.41256C81.3529 6.11122 82.5744 5.91921 83.0321 5.62854C83.5889 5.27387 83.7504 4.49522 83.0561 4.17522Z" fill="#1D77D8"/>
<path d="M87.0181 3.6312C86.7384 2.85653 84.5764 3.41388 84.617 3.97921C84.6686 4.70855 85.4534 4.76588 85.866 4.74054C86.3649 4.70988 87.2534 4.28587 87.0181 3.6312Z" fill="#1D77D8"/>
<path d="M51.4352 44.4669C50.2424 44.2642 48.7461 45.7922 48.7461 46.5616C48.7461 47.0602 49.0216 47.6376 49.5653 47.6976C50.1856 47.7669 52.4216 46.8256 52.3366 45.5403C52.3008 44.9949 51.945 44.5536 51.4352 44.4669Z" fill="#EF8C20"/>
<path d="M55.8624 46.5981C55.6354 46.0221 54.7691 46.0488 54.3114 46.2288C53.6967 46.4675 53.2306 46.9995 52.7906 47.5381L52.551 47.7248C51.616 48.3315 50.578 48.6475 49.79 49.4768C49.4524 49.8315 48.9644 50.3368 49.34 50.8355C49.8499 51.5115 50.7015 50.8435 51.1676 50.5182C52.4124 49.6528 53.6442 48.7675 54.8822 47.8915C55.2639 47.6221 56.1046 47.2115 55.8624 46.5981Z" fill="#EF8C20"/>
<path d="M59.2123 47.2341C58.9566 46.7447 58.4039 46.7101 58.0211 47.0554C57.5962 47.4407 55.4727 50.0181 54.7508 50.8461C54.3247 51.3328 54.6508 52.2794 55.3076 51.4794C56.2799 50.2928 57.3686 50.1194 58.2686 49.2687C58.7815 48.7847 59.631 48.0314 59.2123 47.2341Z" fill="#EF8C20"/>
<path d="M61.0757 48.6994C60.2612 49.0394 58.0814 51.2661 59.1304 51.7434C59.6814 51.9954 60.168 51.3994 60.4694 51.0261C60.9518 50.4314 61.2814 49.7474 61.4794 49.0101C61.5366 48.7954 61.306 48.6021 61.0757 48.6994Z" fill="#EF8C20"/>
<path d="M64.5712 49.5756C64.4014 49.2316 63.9717 49.3196 63.704 49.469C63.4186 49.629 61.954 51.7676 62.2826 52.2956C62.479 52.6116 62.9045 52.6809 63.2269 52.5263C63.7394 52.2809 64.7701 49.977 64.5712 49.5756Z" fill="#EF8C20"/>
</svg>
