<svg width="139" height="66" viewBox="0 0 139 66" fill="none" xmlns="http://www.w3.org/2000/svg">
<path d="M34.2934 16.3216C36.4001 13.7696 42.9401 12.2029 47.9041 11.3509C40.7414 10.0616 31.0254 9.5896 28.4361 13.8416C25.5201 18.6323 31.6014 23.8296 34.1428 25.7109C32.7908 23.3349 31.5308 19.6696 34.2934 16.3216Z" fill="#1B97DB"/>
<path d="M57.276 14.1634C52.9786 14.8448 40.8786 16.9221 37.9586 19.1688C34.3933 21.9141 37.2906 26.2848 37.2906 26.2848L37.2866 26.3008C39.7866 26.1088 43.9453 25.7275 46.532 25.1408C50.42 24.2581 62.144 18.1208 62.144 18.1208C62.144 18.1208 61.5053 16.2421 57.276 14.1634Z" fill="#E8571F"/>
<path d="M37.9588 19.1687C40.8788 16.922 52.9788 14.8447 57.2761 14.1633C56.5388 13.802 55.6948 13.434 54.7241 13.0687C53.3081 12.5354 50.8175 11.8767 47.9041 11.3514C42.9401 12.2034 36.4001 13.77 34.2935 16.322C31.5308 19.67 32.7908 23.3354 34.1428 25.7114C34.7748 26.1807 35.1881 26.4434 35.1881 26.4434C35.1881 26.4434 36.0281 26.3967 37.2868 26.3007L37.2908 26.2847C37.2908 26.2847 34.3935 21.914 37.9588 19.1687Z" fill="#383838"/>
<path d="M37.9148 55.7347C40.1788 58.1467 46.8068 59.2947 51.8148 59.8294C44.7495 61.5721 35.0815 62.6601 32.2281 58.5801C29.0121 53.9868 34.7521 48.4121 37.1681 46.3734C35.9708 48.8294 34.9455 52.5681 37.9148 55.7347Z" fill="#1B97DB"/>
<path d="M60.988 56.4268C56.656 56.0214 44.4494 54.7161 41.3934 52.6601C37.6587 50.1468 40.2734 45.6001 40.2734 45.6001L40.268 45.5854C42.7747 45.6174 46.9507 45.7348 49.568 46.1561C53.5054 46.7895 65.5947 52.1681 65.5947 52.1681C65.5947 52.1681 65.0774 54.0841 60.988 56.4268Z" fill="#E8571F"/>
<path d="M41.3933 52.6607C44.4493 54.7167 56.6559 56.0221 60.9879 56.4274C60.2759 56.8354 59.4573 57.2568 58.5119 57.6834C57.1319 58.3048 54.6879 59.1207 51.8146 59.8301C46.8066 59.2954 40.1786 58.1474 37.9146 55.7354C34.9453 52.5688 35.9706 48.8301 37.1679 46.3741C37.7693 45.8661 38.1653 45.5768 38.1653 45.5768C38.1653 45.5768 39.0066 45.5701 40.2679 45.5861L40.2733 45.6007C40.2733 45.6007 37.6586 50.1474 41.3933 52.6607Z" fill="#383838"/>
<path d="M74.3773 5.97093C70.8786 8.30826 72.2893 12.7216 72.6626 13.7109L99.7213 10.7789C99.7213 10.7789 96.156 7.11225 91.2026 3.22692C90.4586 2.64292 89.6506 2.1376 88.7933 1.70827C82.4573 1.7536 77.5813 3.83093 74.3773 5.97093Z" fill="#E8571F"/>
<path d="M72.0654 2.40274C65.624 5.9654 72.5787 13.7188 72.5787 13.7188L72.6627 13.7107C72.2894 12.7214 70.8787 8.30807 74.3774 5.97074C77.5814 3.83074 82.4574 1.75341 88.7934 1.70807C83.9507 -0.715926 77.5387 -0.625265 72.0654 2.40274Z" fill="#383838"/>
<path d="M79.8294 60.8031C75.9214 59.2444 76.384 54.6338 76.5427 53.5898L103.619 50.8284C103.619 50.8284 100.895 55.1578 96.8574 59.9884C96.2507 60.7138 95.5653 61.3764 94.8173 61.9737C88.6093 63.2484 83.408 62.2297 79.8294 60.8031Z" fill="#E8571F"/>
<path d="M78.3108 64.7755C71.2682 62.6289 76.4575 53.5995 76.4575 53.5995L76.5428 53.5902C76.3842 54.6342 75.9215 59.2449 79.8295 60.8035C83.4081 62.2302 88.6095 63.2489 94.8175 61.9742C90.5841 65.3542 84.2935 66.5982 78.3108 64.7755Z" fill="#383838"/>
<path d="M61.3867 17.3393C54.9227 19.85 48.9134 22.346 44.1654 23.9326C40.0987 25.2926 36.8934 26.0606 34.2454 26.4206C35.1427 28.718 36.308 32.3286 36.9947 36.89C37.5454 40.5473 37.168 44.0553 36.584 46.8193C39.468 46.7993 41.444 47.2753 44.6347 47.7299C50.6267 48.5846 58.1827 50.5606 65.74 52.3486C66.3907 47.9633 66.9574 42.258 66.7014 36.638C66.312 28.1273 63.0734 20.6846 61.3867 17.3393Z" fill="#FF6E2E"/>
<path d="M103.817 32.8621C103.039 23.1181 110.888 15.4661 114.136 12.7421C108.756 10.6915 102.313 9.04078 95.1201 8.83144C88.3641 8.63544 80.2521 10.6715 72.1748 13.3888C73.7481 15.7288 75.8588 18.7408 78.1161 21.6141C82.7655 27.5288 90.4041 34.8314 90.4041 34.8314C90.4041 34.8314 81.3681 41.6128 77.8455 47.8914C76.7215 49.8981 76.3508 51.9688 76.3641 53.8608C85.3828 54.7674 91.8628 54.8128 97.9495 54.5928C103.177 54.4034 109.572 52.3981 115.453 50.1941C109.609 47.4394 104.531 41.7808 103.817 32.8621Z" fill="#FF6E2E"/>
<path d="M127.979 19.7809C126.597 18.9156 124.797 17.8129 122.627 16.6436C119.871 18.1262 114.472 23.1355 112.151 27.8689C108.544 35.2222 116.093 42.9782 118.792 46.2169C119.531 47.1036 121.409 47.1022 121.941 47.6436C122.208 47.5356 122.472 47.4289 122.732 47.3236C130.076 44.3489 138.255 38.5516 138.059 33.2569C137.872 28.1622 136.035 24.8356 127.979 19.7809Z" fill="#FF6E2E"/>
<path d="M34.2454 26.4205C29.0494 27.1245 26.0014 26.2498 22.8054 25.1578C24.8188 27.3178 27.7921 31.4512 27.8988 37.1085C28.0148 43.2272 27.3374 45.5845 25.4814 47.9512C29.0668 47.1432 32.7081 46.8445 36.5841 46.8192C37.1681 44.0552 37.5454 40.5472 36.9948 36.8898C36.3081 32.3285 35.1428 28.7178 34.2454 26.4205Z" fill="#FEDB00"/>
<path d="M114.611 27.768C116.563 22.8694 120.572 19.3387 122.627 16.6427C120.227 15.3494 117.373 13.9734 114.136 12.7414C110.888 15.4654 103.039 23.1174 103.817 32.8614C104.531 41.78 109.609 47.4387 115.453 50.1934C117.725 49.3427 119.921 48.4614 121.941 47.6427C121.409 47.1014 120.779 46.412 120.039 45.5254C117.341 42.2867 110.956 36.9387 114.611 27.768Z" fill="#FEDB00"/>
<path d="M75.0854 17.5697C74.0054 16.0684 73.0107 14.6324 72.1747 13.3884C68.5281 14.6137 64.8921 15.9791 61.3867 17.3391C61.8267 18.2124 62.3734 19.3697 62.9467 20.7471C63.8854 20.4151 64.8267 20.0871 65.7681 19.7657C68.2401 18.9191 71.5347 18.1431 75.0854 17.5697Z" fill="#FEDB00"/>
<path d="M66.5933 44.411C66.4053 47.2884 66.088 50.0084 65.74 52.3484C67.1213 52.675 68.7027 52.967 70.5827 53.203C72.6253 53.4617 74.5453 53.6777 76.364 53.8604C76.3507 51.9684 76.7213 49.8977 77.8453 47.891C79.112 45.635 81.0907 43.3177 83.104 41.2697C78.992 43.0364 74.516 44.039 70.048 44.3243C68.9 44.3977 67.7467 44.4164 66.5933 44.411Z" fill="#FEDB00"/>
<path d="M66.7013 36.6378C66.4133 30.3485 64.5693 24.6471 62.9467 20.7471C58.86 22.1951 54.824 23.7978 51.14 26.0685C47.944 28.0391 42.5707 30.9698 42.9747 35.4258C43.3613 39.7004 47.7373 41.5245 51.3427 42.4125C56.3 43.6338 61.4613 44.3885 66.5933 44.4111C66.7573 41.8951 66.82 39.2591 66.7013 36.6378Z" fill="#FF8555"/>
<path d="M97.8508 19.3029C94.7601 15.9682 84.0948 16.1149 75.0854 17.5695C76.0388 18.8935 77.0588 20.2669 78.1161 21.6135C82.7654 27.5282 90.4041 34.8309 90.4041 34.8309C90.4041 34.8309 86.6975 37.6189 83.1041 41.2695C88.0815 39.1322 92.5228 35.8695 95.7468 31.3482C97.8894 28.3415 101.059 22.7642 97.8508 19.3029Z" fill="#FF8555"/>
<path d="M90.4041 34.8312C90.4041 34.8312 82.7654 27.5286 78.1161 21.6139C77.0588 20.2673 76.0388 18.8939 75.0854 17.5699C71.5348 18.1432 68.2401 18.9192 65.7681 19.7659C64.8268 20.0872 63.8854 20.4153 62.9468 20.7473C64.5694 24.6473 66.4134 30.3486 66.7014 36.6379C66.8201 39.2593 66.7574 41.8953 66.5934 44.4113C67.7468 44.4166 68.9001 44.3979 70.0481 44.3246C74.5161 44.0392 78.9921 43.0366 83.1041 41.2699C86.6974 37.6193 90.4041 34.8312 90.4041 34.8312Z" fill="#FFE66C"/>
<path d="M14.0601 37.1707C15.7161 42.4001 20.9801 46.2414 24.2974 48.2188C24.6228 48.1454 24.9441 48.0707 25.2628 47.9974L25.4814 47.9507C27.3374 45.5841 28.0148 43.2267 27.8988 37.1081C27.7921 31.4507 24.8187 27.3174 22.8054 25.1574L22.7041 25.1228C19.0761 26.9721 12.2121 31.3387 14.0601 37.1707Z" fill="#FF6E2E"/>
<path d="M5.32142 37.4181C4.57876 29.9327 9.57343 25.5101 14.3588 23.0114C1.88809 21.5981 -1.16657 31.4074 0.362763 39.0807C2.1921 48.2554 8.69742 50.0407 15.1388 49.7167C10.9001 47.2287 5.88809 43.1221 5.32142 37.4181Z" fill="#1B97DB"/>
<path d="M14.3587 23.0115C9.57336 25.5101 4.57869 29.9328 5.32136 37.4181C5.88803 43.1221 10.9 47.2288 15.1387 49.7168C18.184 49.5621 21.3587 48.8915 24.2974 48.2195C20.98 46.2421 15.716 42.4008 14.06 37.1715C12.212 31.3395 19.076 26.9728 22.704 25.1235C22.3454 24.9995 21.9854 24.8755 21.62 24.7488C18.888 23.8088 16.48 23.2515 14.3587 23.0115Z" fill="#383838"/>
<path d="M89.1042 32.0694C86.1695 33.0934 81.7122 38.9521 83.3935 42.5774C85.1508 46.3654 89.1042 50.3681 93.5415 49.9481C96.4762 48.0921 99.9308 44.6841 99.9308 44.6841C99.9308 44.6841 97.5895 43.7027 96.4695 40.5907C95.3509 37.4787 96.6628 35.0001 96.6628 35.0001C96.6628 35.0001 92.4695 33.0774 89.1042 32.0694Z" fill="#E8571F"/>
<path d="M84.4574 41.9658C83.2454 37.3112 86.9747 33.9712 89.104 32.0698C87.8547 31.6952 86.7174 31.4458 85.9547 31.4685C82.2934 31.5818 75.2387 35.7552 78.4894 44.0738C81.7614 52.4432 88.7227 52.2952 92.1774 50.7058C92.6067 50.5085 93.068 50.2472 93.5414 49.9485C91.44 48.8298 86.2067 48.6792 84.4574 41.9658Z" fill="#383838"/>
<path d="M126.851 22.8737C124.628 21.4883 121.905 21.5003 120.013 23.1723C117.223 25.639 117.807 30.1603 120.988 31.9683C124.083 33.7283 128.132 32.019 129.116 28.603C129.879 25.955 128.732 24.047 126.851 22.8737Z" fill="#E8571F"/>
<path d="M129.537 27.1708C129.537 29.5441 127.612 31.4668 125.24 31.4668C122.867 31.4668 120.943 29.5441 120.943 27.1708C120.943 24.7975 122.867 22.8735 125.24 22.8735C127.612 22.8735 129.537 24.7975 129.537 27.1708Z" fill="white"/>
<path d="M128.108 27.3229C128.108 28.5189 127.139 29.4883 125.943 29.4883C124.747 29.4883 123.777 28.5189 123.777 27.3229C123.777 26.1269 124.747 25.1576 125.943 25.1576C127.139 25.1576 128.108 26.1269 128.108 27.3229Z" fill="#383838"/>
<path d="M126.851 26.5179C126.851 26.9619 126.489 27.3232 126.044 27.3232C125.6 27.3232 125.24 26.9619 125.24 26.5179C125.24 26.0726 125.6 25.7112 126.044 25.7112C126.489 25.7112 126.851 26.0726 126.851 26.5179Z" fill="white"/>
<path d="M66.7641 34.0713C66.0761 28.1926 64.3721 22.49 61.3867 17.3393C62.5747 20.986 65.1267 28.6886 65.7401 34.8446C66.3321 40.778 66.3041 44.794 65.7401 52.3486C67.7227 46.7246 67.4467 39.9113 66.7641 34.0713Z" fill="#383838"/>
<path d="M34.2454 26.4207C35.38 30.6753 37.0267 38.322 36.584 46.8193C39.2974 40.9673 35.9907 28.342 34.2454 26.4207Z" fill="#383838"/>
<path d="M22.7041 25.1232C25.1374 27.9885 26.8641 31.8432 27.2761 35.9325C27.6761 39.9018 27.6228 44.4112 25.4814 47.9512C30.5534 42.2658 29.5334 29.7005 22.7041 25.1232Z" fill="#383838"/>
<path d="M78.9148 21.7374C76.5721 18.8281 74.5775 16.1961 72.1748 13.3881C73.3335 16.0494 83.0121 30.0121 87.6641 32.2188C86.8455 30.4001 81.3348 24.7427 78.9148 21.7374Z" fill="#383838"/>
<path d="M79.5535 45.3217C77.4388 46.635 75.7202 50.1937 76.3642 53.8604C76.5375 52.5817 77.1068 50.8323 77.4988 49.591C77.8908 48.3483 78.7762 46.9324 79.5535 45.3217Z" fill="#383838"/>
<path d="M104.713 32.0707C104.372 24.5947 108.484 18.196 114.136 12.7414C99.78 20.0267 100.165 43.6267 115.453 50.1934C109.235 45.3214 105.048 39.396 104.713 32.0707Z" fill="#383838"/>
<path d="M117.387 23.4329C118.853 21.0169 121.207 18.6702 122.627 16.6436C118.223 18.7329 113.804 26.3275 112.887 31.2942C111.728 37.5729 116.728 44.4836 121.941 47.6436C120.164 45.7382 117.829 42.6476 116.072 40.1902C113.783 36.9929 113.231 34.0502 114.249 30.1649C114.9 27.6755 116.049 25.6355 117.387 23.4329Z" fill="#383838"/>
</svg>
