<svg width="146" height="94" viewBox="0 0 146 94" fill="none" xmlns="http://www.w3.org/2000/svg">
<path d="M109.178 68.6387C107.304 72.4574 105.273 77.972 98.3449 81.972C91.4156 85.972 84.1436 87.48 84.1436 87.48C84.1436 87.48 92.0116 91.1187 103.845 85.6387C117.378 79.3707 121.012 68.6387 121.012 68.6387H109.178Z" fill="#FEDB00"/>
<path d="M57.0622 29.2507C57.0622 29.2507 59.5462 17.5987 54.6902 9.21999C53.0209 6.33732 51.0102 3.48397 49.0875 0.97064C42.7849 2.02931 38.0435 3.83201 34.6769 5.80534C27.2862 10.1387 26.9382 14.1386 28.4742 21.1386C30.0102 28.1386 34.4555 36.6533 34.4555 36.6533L40.1049 36.2507L102.956 31.7573L57.0622 29.2507Z" fill="#4354F7"/>
<path d="M123.064 29.2502C123.064 29.2502 112.146 16.0702 102.956 11.2635C95.5423 7.38751 87.8437 3.09814 71.4637 1.92614C64.8637 1.45547 55.3077 1.89947 50.021 2.2208C51.649 4.41414 53.289 6.7995 54.6903 9.2195C59.5463 17.5982 57.0623 29.2502 57.0623 29.2502L102.956 31.7568L124.965 30.1835L125.069 30.1755L123.064 29.2502Z" fill="#FCC000"/>
<path d="M71.4637 1.92643C87.8437 3.09843 95.5423 7.3878 102.956 11.2638C112.146 16.0705 123.064 29.2505 123.064 29.2505L125.069 30.1758L124.356 26.5064C124.356 26.5064 121.91 21.0291 109.468 13.4531L109.524 13.4851C109.524 13.4851 95.981 4.03048 78.8543 1.41048C66.4117 -0.492183 56.629 -0.294889 49.0876 0.970444C49.397 1.37444 49.7103 1.79976 50.021 2.2211C55.3076 1.89976 64.8637 1.45577 71.4637 1.92643Z" fill="#4354F7"/>
<path d="M36.581 55.0187L35.109 54.5854C35.7717 53.4547 36.2023 52.8241 36.2023 52.8241L34.7823 52.3907C34.7823 52.3907 26.261 62.3894 25.0943 72.5561C23.993 82.1574 28.7917 89.7227 46.0103 92.3894C63.2303 95.0561 77.897 90.3481 87.7903 83.2988C95.8303 77.5694 100.298 73.7747 100.298 73.7747L36.581 55.0187Z" fill="#4354F7"/>
<path d="M91.9622 76.8518C86.0396 80.7984 80.8889 84.7438 74.0183 87.0558C67.4396 89.2691 60.4409 90.2131 53.5129 89.7638C46.7996 89.3291 38.6702 87.7317 33.1769 83.6037C29.3956 80.7624 28.7329 76.3064 29.4689 71.7291C30.0049 76.6224 33.9476 81.1198 38.2382 83.1624C45.0782 86.4211 55.4196 89.2011 62.8356 86.6104C63.1582 86.4984 63.1342 85.9477 62.7489 85.9771C55.5196 86.5224 48.8049 85.4597 41.9249 83.2064C38.3676 82.0411 35.0022 80.3611 32.8356 77.1958C30.9769 74.4811 30.5289 71.6478 30.1889 68.5531C30.5902 67.1424 31.0876 65.7571 31.6289 64.4357C32.4556 69.0384 34.3409 74.8837 38.1409 77.6077C39.7409 78.7557 41.7342 79.1584 43.6022 79.6531C46.9329 80.5358 50.2742 81.3958 53.6529 82.0824C63.8929 84.1678 76.2902 84.9704 85.2756 78.5704C85.5489 78.3757 85.3169 77.9771 85.0129 78.1211C75.3662 82.6664 65.6529 83.1598 55.2343 81.1918C52.6943 80.7118 50.1769 80.1171 47.6702 79.4891C45.4102 78.9224 42.7356 78.5624 40.6076 77.5811C35.4049 75.1811 33.4516 68.1811 32.2996 62.8771C32.8796 61.5891 33.4822 60.3958 34.0609 59.3304C34.6476 65.0291 38.0516 73.2904 44.2516 74.4238C47.6383 75.0438 51.3129 76.9078 54.7836 76.7824C56.9369 76.7051 59.0716 75.7997 59.7982 73.6691C59.9382 73.2557 59.3262 72.8731 59.0409 73.2278C55.3369 77.8331 49.8849 73.9997 45.2636 73.3091C38.5942 72.3131 36.4902 63.9077 34.5636 58.4037C34.8662 57.6797 35.2436 57.1064 35.8062 56.1958C35.8916 56.0571 35.7223 55.8957 35.5849 55.9757C34.3196 56.7131 32.8169 59.1131 32.2209 60.3598C28.3542 68.4318 26.7449 75.3171 29.2556 80.6478C32.3329 87.1838 42.4982 89.4224 48.8969 90.4264C56.5662 91.6318 64.5022 91.1398 71.9649 88.9931C79.1329 86.9318 87.4876 83.2411 92.3529 77.3584C92.5703 77.0971 92.2902 76.6331 91.9622 76.8518Z" fill="#FFA131"/>
<path d="M24.2663 50.3447C19.2223 50.8607 14.7156 53.6967 10.6542 56.5327C8.27825 58.1914 6.00225 59.9794 3.81958 61.8727C6.04891 66.0914 10.0103 68.8047 10.0103 68.8047C10.0103 68.8047 20.1356 56.2474 25.5769 53.8007C25.1903 52.6487 24.9076 51.4847 24.7036 50.3234C24.5569 50.334 24.4129 50.33 24.2663 50.3447Z" fill="#FCC000"/>
<path d="M143.789 54.8608C143.69 54.7928 143.554 54.7142 143.401 54.6288C139.466 59.1635 135.01 63.8288 127.946 63.6488C120.521 63.4595 113.012 58.9168 113.646 51.1715C113.804 49.2435 114.456 46.5822 116.028 43.8062C111.845 46.3048 111.017 51.7755 111.4 54.7488C111.824 58.0448 112.368 61.2595 110.08 64.1022C108.47 66.1022 106.188 67.4688 103.877 68.5275C94.8329 72.6742 84.4676 73.9555 74.6329 72.7608C64.5063 71.5315 54.9823 67.5622 46.9263 61.3289C41.9529 57.4809 36.7143 52.6622 30.5649 50.9262C30.6889 52.2742 30.8436 53.3862 30.9809 54.2208C39.2409 57.7355 43.1276 71.3555 60.7596 77.7155C70.9356 81.3862 85.1769 80.4102 98.4396 77.6342C107.177 75.8062 115.494 73.2062 121.933 70.6102C134.092 65.7075 140.992 59.8555 143.925 57.0022C144.904 56.0515 144.678 55.4715 143.789 54.8608Z" fill="#FCC000"/>
<path d="M28.0488 53.4492C28.0488 53.4492 28.1035 52.1879 28.1702 50.4345C27.8275 50.3865 27.4835 50.3479 27.1355 50.3226C27.5728 52.1479 28.0488 53.4492 28.0488 53.4492Z" fill="#FCC000"/>
<path d="M28.3968 34.9866C28.3968 34.9866 26.4581 40.8746 26.4275 44.9159C26.4128 46.7879 26.7594 48.7479 27.1354 50.3226C27.4834 50.3479 27.8274 50.3866 28.1701 50.4346C28.2448 48.4919 28.3381 45.9439 28.3968 43.8052C28.5075 39.7372 28.3968 34.9866 28.3968 34.9866Z" fill="#FEDB00"/>
<path d="M24.2662 50.3451C24.4128 50.3304 24.5568 50.3344 24.7035 50.3237C23.6035 44.0424 24.9168 37.8557 25.9675 34.3104L25.9382 34.3064C18.9328 32.7104 8.36217 16.4717 8.36217 16.4717C8.36217 16.4717 1.97551 21.1864 0.212841 32.8451C-1.54983 44.5024 8.36217 40.805 3.34351 51.805C1.61684 55.593 2.3355 59.065 3.8195 61.873C6.00216 59.9797 8.27817 58.1917 10.6542 56.5331C14.7155 53.6971 19.2222 50.8611 24.2662 50.3451Z" fill="#FEDB00"/>
<path d="M144.884 49.5418C143.996 47.9725 141.202 43.0778 136.121 37.3138C135.373 36.4658 134.576 35.5992 133.728 34.7205C132.006 32.9405 130.08 31.1151 127.93 29.3085C127.29 28.7698 126.622 28.2351 125.942 27.7018C125.429 27.2991 124.892 26.9031 124.356 26.5058C125.025 29.5351 125.81 32.8085 126.436 34.5978C127.802 38.5085 126.22 39.0285 125.069 38.2645C122.646 36.6525 124.064 33.1805 123.064 29.2498C122.064 25.3192 117.397 23.5978 117.397 23.5978C117.397 23.5978 117.064 29.0578 117.064 34.2645C117.064 39.4712 120.397 40.5138 122.93 43.4845C125.465 46.4552 123.396 52.5805 129.037 51.8845C134.68 51.1885 132.733 55.1805 127.146 54.2205C122.913 53.4952 124.48 45.5272 119.73 43.5632C114.944 41.5845 114.813 39.3578 115.146 33.5978C115.382 29.5232 115.244 23.7271 115.141 20.6738C111.589 18.7791 107.698 17.0685 103.422 15.6751C99.0209 14.2405 94.2396 13.1218 89.0289 12.4712C72.5103 10.4098 59.0103 14.7578 50.3036 22.1378C44.3076 27.2191 37.3503 32.5538 31.2729 34.0858C30.9516 37.0352 30.4863 41.5138 30.3969 43.4845C30.2663 46.3725 30.3796 48.9045 30.5649 50.9258C36.7143 52.6618 41.9529 57.4805 46.9263 61.3285C54.9823 67.5618 64.5063 71.5312 74.6329 72.7605C84.4676 73.9552 94.8329 72.6738 103.877 68.5272C106.188 67.4685 108.47 66.1018 110.08 64.1018C112.368 61.2591 111.824 58.0445 111.4 54.7485C111.017 51.7752 111.845 46.3045 116.028 43.8058C114.456 46.5818 113.804 49.2431 113.646 51.1711C113.012 58.9165 120.521 63.4592 127.946 63.6485C135.01 63.8285 139.466 59.1632 143.401 54.6285C142.454 54.1112 140.678 53.3605 140.678 53.3605C140.678 53.3605 143.101 52.3645 143.828 51.8858C144.364 51.5312 145.41 50.4738 144.884 49.5418Z" fill="#FEDB00"/>
<path d="M115.146 33.5985C114.813 39.3585 114.943 41.5852 119.73 43.5639C124.479 45.5279 122.913 53.4959 127.146 54.2212C132.733 55.1812 134.679 51.1892 129.037 51.8852C123.395 52.5812 125.465 46.4559 122.93 43.4852C120.397 40.5145 117.063 39.4719 117.063 34.2652C117.063 29.0585 117.397 23.5985 117.397 23.5985C117.397 23.5985 122.063 25.3199 123.063 29.2505C124.063 33.1812 122.646 36.6532 125.069 38.2652C126.219 39.0292 127.802 38.5092 126.435 34.5985C125.81 32.8092 125.025 29.5358 124.356 26.5065C121.592 24.4545 118.526 22.4798 115.141 20.6745C115.244 23.7278 115.382 29.5239 115.146 33.5985Z" fill="#4354F7"/>
<path d="M28.1703 50.434C28.1036 52.1874 28.049 53.4487 28.049 53.4487C28.049 53.4487 27.5729 52.1474 27.1356 50.322C26.3409 50.262 25.5303 50.2607 24.7036 50.3234C24.9076 51.4847 25.1903 52.6487 25.577 53.8007C26.197 53.522 26.7609 53.3674 27.2369 53.3847C28.6023 53.4354 29.833 53.7327 30.981 54.2207C30.8436 53.386 30.689 52.274 30.565 50.926C29.7836 50.7047 28.9836 50.546 28.1703 50.434Z" fill="#2A34F2"/>
<path d="M3.81958 55.0557C3.81958 55.0557 6.53025 52.0343 14.0943 49.6383C19.0943 48.0556 26.4276 48.2223 26.4276 48.2223C26.4276 48.2223 21.9276 46.805 16.9276 47.2223C11.9276 47.6383 4.44092 50.5557 4.44092 50.5557L3.81958 55.0557Z" fill="#FCC000"/>
<path d="M3.81966 42.0692C3.81966 42.0692 8.34099 42.5439 14.053 43.2225C19.437 43.8625 27.0103 44.3945 27.0103 44.3945C27.0103 44.3945 21.0877 42.2225 16.0943 41.5585C9.177 40.6385 1.677 38.7225 1.677 38.7225L3.81966 42.0692Z" fill="#FCC000"/>
<path d="M5.35558 19.848C5.35558 19.848 7.30759 24.5307 11.2609 28.256C18.5943 35.1693 27.0103 37.2227 27.0103 37.2227C27.0103 37.2227 18.7396 36.4973 13.9276 32.8893C8.26092 28.6387 3.81958 22.5307 3.81958 22.5307L5.35558 19.848Z" fill="#FCC000"/>
<path d="M0.484863 31.2813C0.484863 31.2813 5.01152 35.4373 10.5102 37.2227C18.2155 39.7227 26.4275 40.7227 26.4275 40.7227C26.4275 40.7227 15.4182 36.8933 10.0102 34.5507C4.44086 32.1387 1.26086 29.2507 1.26086 29.2507L0.484863 31.2813Z" fill="#FCC000"/>
<path d="M24.7035 50.3241C25.5302 50.2614 26.3408 50.2628 27.1355 50.3228C26.7595 48.7481 26.4128 46.7881 26.4275 44.9161C26.4582 40.8747 28.3968 34.9868 28.3968 34.9868C28.3968 34.9868 28.5075 39.7374 28.3968 43.8054C28.3382 45.9441 28.2448 48.4921 28.1702 50.4347C28.9835 50.5467 29.7835 50.7054 30.5648 50.9268C30.3795 48.9054 30.2662 46.3734 30.3968 43.4854C30.4862 41.5148 30.9515 37.0361 31.2728 34.0868C29.4035 34.5588 27.6155 34.6814 25.9675 34.3107C24.9168 37.8561 23.6035 44.0428 24.7035 50.3241Z" fill="#4354F7"/>
<path d="M26.4277 44.9159C26.397 48.9599 28.049 53.4492 28.049 53.4492C28.049 53.4492 28.285 47.8745 28.397 43.8052C28.5077 39.7372 28.397 34.9866 28.397 34.9866C28.397 34.9866 26.4583 40.8746 26.4277 44.9159Z" fill="white"/>
<path d="M104.429 38.368C101.281 30.9307 91.4543 27.824 86.1597 26.612C65.3437 21.844 49.2943 29.348 40.5436 37.1173C39.6756 37.8867 38.6143 39.548 38.053 41.0334C35.1436 48.7414 44.4103 55.0747 49.633 57.5133C64.0183 64.2307 84.157 66.692 97.765 56.5493C103.085 52.584 107.462 45.532 104.429 38.368Z" fill="#FFE66C"/>
<path d="M135.493 44.2864C135.493 46.8331 133.428 48.8984 130.881 48.8984C128.333 48.8984 126.268 46.8331 126.268 44.2864C126.268 41.7384 128.333 39.6731 130.881 39.6731C133.428 39.6731 135.493 41.7384 135.493 44.2864Z" fill="white"/>
<path d="M133.773 44.4367C133.773 45.7447 132.713 46.8047 131.405 46.8047C130.097 46.8047 129.037 45.7447 129.037 44.4367C129.037 43.13 130.097 42.0687 131.405 42.0687C132.713 42.0687 133.773 43.13 133.773 44.4367Z" fill="#4354F7"/>
<path d="M132.733 43.8053C132.733 44.4187 132.235 44.916 131.622 44.916C131.009 44.916 130.511 44.4187 130.511 43.8053C130.511 43.192 131.009 42.6947 131.622 42.6947C132.235 42.6947 132.733 43.192 132.733 43.8053Z" fill="white"/>
<path d="M101.457 43.414C101.661 37.702 102.849 32.2233 101.776 26.534C101.268 23.8446 101.081 20.842 100.12 18.6673C100.857 25.9006 99.3689 35.4766 98.9156 42.17C98.4729 48.7006 98.2862 55.8073 100.089 61.902C101.238 65.782 102.244 68.2153 103.189 72.1953C104.053 67.2073 103.889 63.1233 103.312 57.806C102.774 52.858 101.272 48.5486 101.457 43.414Z" fill="white"/>
<path d="M103.189 72.1956C102.577 67.8476 101.795 65.8382 100.646 61.9569C98.8435 55.8636 98.4728 48.7009 98.9155 42.1702C99.3688 35.4769 100.857 25.9009 100.119 18.6675C101.081 20.8422 101.267 23.8449 101.775 26.5342C102.849 32.2235 101.661 37.7022 101.457 43.4142C101.272 48.5489 102.774 52.8582 103.311 57.8062C103.889 63.1236 104.053 67.2076 103.189 72.1956ZM103.287 40.8369C103.734 34.7022 104.53 29.2409 103.017 23.2742C101.958 19.1022 99.8968 11.2636 95.7568 6.24626C98.6168 12.4316 99.2688 24.2782 98.5675 29.4342C97.8381 34.7995 97.1875 40.0769 97.0542 45.5756C96.9328 50.5996 97.0755 55.7796 98.3635 60.4596C99.6701 65.2009 102.13 70.6569 103.097 75.6289C104.877 70.0862 105.449 64.0289 105.173 59.1476C104.813 52.7982 102.811 47.3476 103.287 40.8369Z" fill="#4354F7"/>
<path d="M91.6184 44.916C91.8237 39.204 93.8584 30.372 92.785 24.6814C92.2784 21.992 89.2677 15.6894 88.3037 13.5147C89.0437 20.748 88.4624 36.792 88.0077 43.4854C87.565 50.0174 87.973 57.0694 89.777 63.1627C90.925 67.0441 91.9304 69.4761 92.877 73.4561C93.741 68.4681 93.577 64.3841 92.9997 59.0667C92.4624 54.1187 91.4344 50.052 91.6184 44.916Z" fill="white"/>
<path d="M92.8768 73.456C92.2648 69.108 91.4821 67.0986 90.3341 63.2186C88.5288 57.124 88.1608 49.9626 88.6035 43.4306C89.0568 36.7373 89.5782 23.3039 88.8408 16.0706C89.8035 18.2453 91.9408 22.7906 92.1742 27.3479C92.4688 33.1319 91.3488 38.9626 91.1422 44.6746C90.9595 49.8093 92.4621 54.1186 92.9995 59.0666C93.5768 64.384 93.7408 68.468 92.8768 73.456ZM92.9742 42.0986C93.4208 35.9626 94.6875 26.4639 92.4288 20.7373C90.0981 14.8306 88.4328 7.84795 83.5635 2.68128C87.5448 9.59861 87.7262 23.0173 87.6182 30.9039C87.5448 36.3186 86.8742 41.3386 86.7422 46.8359C86.6195 51.8613 86.7622 57.0413 88.0515 61.7213C89.3568 66.4613 91.8168 71.9173 92.7848 76.8906C94.5648 71.348 95.1355 65.2893 94.8595 60.4079C94.5008 54.0586 92.4995 48.608 92.9742 42.0986Z" fill="#4354F7"/>
<path d="M80.6089 43.377C80.8035 36.6663 80.1155 30.2503 79.5715 23.593C79.3342 20.701 79.6915 17.6089 79.1822 14.7649C78.9422 13.4263 78.4302 12.297 77.7862 11.2636C79.2982 19.465 76.6729 29.5143 76.3035 37.053C75.6689 50.0223 76.8289 64.4516 83.0449 75.8623C79.6849 65.1956 80.2835 54.553 80.6089 43.377Z" fill="white"/>
<path d="M83.0449 75.8621C76.8289 64.4514 75.6689 50.0221 76.3035 37.0528C76.6729 29.5141 79.2982 19.4648 77.7862 11.2634C78.4302 12.2968 78.9422 13.4261 79.1822 14.7647C79.6915 17.6087 79.3342 20.7008 79.5715 23.5928C80.1155 30.2501 80.8035 36.6661 80.6089 43.3768C80.2835 54.5528 79.6849 65.1954 83.0449 75.8621ZM82.1502 36.9114C82.0355 30.3048 81.3436 23.7554 80.8596 17.1594C80.4796 11.9594 76.0915 3.35542 71.5195 0.970089C77.4795 8.93142 77.1489 18.7248 76.4755 23.9288C75.6089 30.6141 74.5262 37.2648 74.6582 44.0394C74.8902 55.9234 77.1129 72.4288 84.7089 79.2461C83.0329 72.2621 81.6969 65.5434 81.6382 58.2568C81.5822 51.1354 82.2729 44.0341 82.1502 36.9114Z" fill="#4354F7"/>
<path d="M69.0836 43.377C69.2782 36.6663 68.5902 30.2503 68.0462 23.593C67.8089 20.701 68.1662 17.6089 67.6569 14.7649C67.4169 13.4263 66.9049 12.297 66.2595 11.2636C67.7715 19.465 65.1476 29.5143 64.7782 37.053C64.1436 50.0223 65.3022 64.4516 71.5195 75.8623C68.1595 65.1956 68.7582 54.553 69.0836 43.377Z" fill="white"/>
<path d="M71.5196 75.8621C65.3023 64.4514 64.1437 50.0221 64.7783 37.0528C65.1477 29.5141 67.7717 19.4648 66.2597 11.2634C66.905 12.2968 67.417 13.4261 67.657 14.7647C68.1663 17.6087 67.809 20.7008 68.0463 23.5928C68.5903 30.2501 69.2783 36.6661 69.0837 43.3768C68.7583 54.5528 68.1596 65.1954 71.5196 75.8621ZM70.625 36.9114C70.5116 30.3048 69.533 23.7687 69.3343 17.1594C69.213 13.0887 65.3477 3.84742 59.313 0.970089C65.6463 9.51809 65.6237 18.7248 64.9503 23.9288C64.0837 30.6141 63.001 37.2648 63.133 44.0394C63.365 55.9234 65.5877 72.4288 73.1837 79.2461C71.509 72.2621 70.1717 65.5434 70.113 58.2568C70.057 51.1354 70.7476 44.0341 70.625 36.9114Z" fill="#4354F7"/>
<path d="M62.389 74.4619C58.9997 64.8459 57.0357 54.1259 57.037 44.5912C57.0383 38.2312 57.6877 33.4659 57.7063 27.1046C57.7157 23.8072 57.685 20.5486 56.8343 17.3819C56.585 16.4539 56.2717 15.5659 55.933 14.6952C55.8663 15.6406 55.7703 16.5792 55.669 17.4899C54.821 25.0472 54.2757 32.2539 53.9023 39.8819C53.2903 52.3726 54.8663 65.6459 62.389 74.4619Z" fill="white"/>
<path d="M53.8076 4.70345L53.8143 4.78613H53.8676L53.8076 4.70345Z" fill="#2A34F2"/>
<path d="M55.933 14.6955C56.2717 15.5662 56.585 16.4542 56.8343 17.3822C57.685 20.5489 57.7156 23.8075 57.7063 27.1049C57.6876 33.4662 57.0383 38.2315 57.037 44.5915C57.0356 54.1262 58.9996 64.8462 62.389 74.4622C54.8663 65.6462 53.2903 52.3729 53.9023 39.8822C54.2756 32.2542 54.821 25.0475 55.669 17.4902C55.7703 16.5795 55.8663 15.6408 55.933 14.6955ZM53.553 25.9329C52.5463 33.1889 51.7797 40.5315 52.1437 47.9102C52.6703 58.5649 55.425 71.3555 63.845 77.8115C62.3277 71.1195 58.7916 57.1195 58.7916 41.2302C58.7916 35.0862 59.8037 27.6089 58.845 21.5475C56.4663 6.5142 50.757 3.12619 49.0876 0.970187C49.0876 0.970187 51.985 6.51153 52.5076 8.5142C55.161 18.6889 54.1356 21.7262 53.553 25.9329Z" fill="#4354F7"/>
<path d="M49.7182 68.3691C46.8969 60.3638 45.2608 51.4372 45.2622 43.4985C45.2635 38.2025 45.8022 34.2345 45.8182 28.9385C45.8275 26.1918 45.8008 23.4785 45.0928 20.8425C44.8848 20.0691 44.6248 19.3291 44.3422 18.6038C44.2875 19.3918 44.2075 20.1745 44.1222 20.9305C43.4168 27.2252 42.9622 33.2252 42.6515 39.5772C42.1422 49.9771 43.4542 61.0305 49.7182 68.3691Z" fill="white"/>
<path d="M42.5742 10.2845L42.5782 10.3525H42.6222L42.5742 10.2845Z" fill="#2A34F2"/>
<path d="M44.3422 18.6032C44.6249 19.3285 44.8849 20.0685 45.0929 20.8418C45.8009 23.4778 45.8276 26.1912 45.8183 28.9378C45.8023 34.2338 45.2636 38.2019 45.2623 43.4979C45.2609 51.4365 46.8969 60.3632 49.7183 68.3685C43.4543 61.0298 42.1423 49.9765 42.6516 39.5765C42.9623 33.2245 43.4169 27.2245 44.1222 20.9299C44.2076 20.1739 44.2876 19.3912 44.3422 18.6032ZM42.3609 27.9619C41.5223 34.0032 40.8836 40.1165 41.1876 46.2592C41.6262 55.1312 43.9196 65.7832 50.9316 71.1592C49.6676 65.5872 46.7236 53.9285 46.7236 40.6992C46.7236 35.5819 47.2849 29.3925 46.7676 24.3098C46.2383 19.1098 44.0116 12.1472 42.6222 10.3525H42.5783C43.3196 19.0765 42.8463 24.4579 42.3609 27.9619Z" fill="#4354F7"/>
<path d="M39.9488 59.8525C37.8648 54.3125 36.6581 48.1352 36.6594 42.6432C36.6594 38.9779 37.0581 36.2325 37.0701 32.5685C37.0754 30.6672 37.0568 28.7899 36.5341 26.9659C36.3808 26.4312 36.1874 25.9192 35.9794 25.4179C35.9381 25.9632 35.8794 26.5032 35.8168 27.0272C35.2968 31.3819 34.9608 35.5339 34.7314 39.9285C34.3554 47.1259 35.3234 54.7739 39.9488 59.8525Z" fill="white"/>
<path d="M34.6743 19.6623L34.6783 19.709H34.7103L34.6743 19.6623Z" fill="#2A34F2"/>
<path d="M35.9795 25.4182C36.1875 25.9196 36.3809 26.4316 36.5342 26.9662C37.0569 28.7902 37.0755 30.6675 37.0702 32.5689C37.0582 36.2329 36.6595 38.9782 36.6595 42.6436C36.6582 48.1356 37.8649 54.3129 39.9489 59.8529C35.3235 54.7742 34.3555 47.1262 34.7315 39.9289C34.9609 35.5342 35.2969 31.3822 35.8169 27.0276C35.8795 26.5036 35.9382 25.9636 35.9795 25.4182ZM34.5169 31.8929C33.8969 36.0742 33.4262 40.3036 33.6502 44.5542C33.9742 50.6929 35.6675 58.0622 40.8435 61.7822C39.9102 57.9262 37.7369 49.8609 37.7369 40.7062C37.7369 37.1662 38.1515 32.8836 37.7702 29.3662C37.3795 25.7689 35.7355 20.9516 34.7102 19.7089H34.6782C35.2249 25.7449 34.8755 29.4689 34.5169 31.8929Z" fill="#4354F7"/>
</svg>
