<svg width="125" height="84" viewBox="0 0 125 84" fill="none" xmlns="http://www.w3.org/2000/svg">
<path d="M68.8851 58.1553C62.3411 54.3019 55.2704 50.8993 47.9397 48.8099C48.0984 48.6926 48.2584 48.5793 48.4197 48.4646C48.6224 48.3219 48.4504 48.0206 48.2251 48.1326C47.8984 48.2953 47.5744 48.4686 47.2544 48.6526C47.1144 48.6686 47.0037 48.7433 46.9291 48.846C44.4651 50.3446 42.5131 52.5219 43.3277 55.6819C44.3024 59.4579 48.4157 62.5353 51.3264 64.7499C54.5211 67.1806 58.6397 68.9713 62.6971 67.7553C66.7797 66.5326 68.3531 62.6819 69.1624 58.8366C69.2184 58.5726 69.1264 58.2979 68.8851 58.1553Z" fill="#FEDB00"/>
<path d="M67.2477 57.4869C67.2477 57.4869 66.8317 60.7256 63.4984 62.3509C60.1651 63.9749 55.5397 62.6003 55.5397 62.6003C55.5397 62.6003 58.6651 62.7589 60.9984 61.9296C63.3317 61.1003 64.4144 58.4056 64.4144 58.4056C64.4144 58.4056 61.0397 61.351 55.7477 60.6416C50.457 59.9336 49.1651 58.7669 49.1651 58.7669C49.1651 58.7669 53.6237 59.7256 56.9571 59.1416C60.2904 58.559 61.4144 57.2669 61.4144 57.2669C61.4144 57.2669 53.3317 58.9749 50.2904 56.3509C47.2477 53.7256 49.581 49.5176 49.581 49.5176L67.2477 57.4869Z" fill="#FCC000"/>
<path d="M98.3105 13.378C94.1519 2.61263 85.7225 0.472618 77.9185 0.0312844C70.1159 -0.408716 70.4066 3.89396 66.6372 6.14196C63.8839 7.78596 59.8025 4.58729 54.3425 5.77396C48.8799 6.96196 51.3586 13.0313 48.7359 17.3646C46.1119 21.6979 42.7919 19.7766 42.1359 24.6979C41.4826 29.6193 47.2706 30.434 47.2706 30.434L49.4172 30.7246C49.4172 30.7246 102.469 24.142 98.3105 13.378Z" fill="#FEDB00"/>
<path d="M95.1344 12.8449C94.1131 9.85693 90.9037 7.44091 88.4637 5.72891C85.3331 3.53158 81.4197 2.28358 77.5864 2.62891C78.8344 3.11691 81.8144 4.14491 83.4837 5.29691C84.813 6.21425 85.5584 7.33691 86.3397 8.55958C82.2304 5.06624 75.8357 4.14223 70.7504 4.91557C72.709 5.38757 75.7664 5.94759 77.7184 6.94092C79.249 7.71959 80.4291 8.86624 81.7291 9.89024C81.5397 9.85024 81.3557 9.79825 81.1637 9.77025C75.9877 7.41825 68.6117 7.3889 63.4144 9.01823C66.9144 9.14223 70.7477 9.80759 73.6517 10.5743C68.5597 9.93159 62.7117 11.4902 58.6077 13.8862C53.477 16.8822 49.2784 22.1409 48.2344 28.0769C48.1971 28.2876 48.3357 28.4596 48.505 28.5222C48.409 28.6702 48.5784 28.8449 48.7437 28.7703C52.4664 27.1076 55.8411 24.9182 59.7291 23.5596C63.4104 22.2729 67.2357 21.3623 70.9971 20.3423C78.9997 18.1689 86.9611 15.8409 95.0691 14.0942C95.7677 13.9422 95.6504 13.0943 95.1344 12.8449Z" fill="#FCC000"/>
<path d="M85.3478 60.1379C81.9025 61.8859 79.5159 63.8792 80.6012 68.7472C81.7012 73.6752 82.5038 77.4712 83.9518 83.2979C92.8865 78.5885 92.3732 65.8365 93.3225 57.1699C90.9478 57.7432 87.7532 58.9179 85.3478 60.1379Z" fill="#F9AC00"/>
<path d="M52.2772 45.0743C56.8532 46.7637 61.1465 49.017 65.4959 51.1383C63.4479 47.4663 61.3692 43.3943 60.8518 42.4743C59.3425 39.7957 57.4359 38.9317 54.7652 37.7863C51.0305 36.185 46.2172 33.8637 44.3959 29.973L44.0999 30.2037C36.6705 35.925 29.5252 31.817 20.0185 27.253C10.5105 22.6903 0.9065 12.665 0.9065 12.665C0.9065 12.665 -0.694808 17.5397 2.63186 24.4823C6.91586 33.4237 0.521167 35.2797 3.87317 45.4797C4.8665 48.5024 4.84118 51.001 4.42518 53.125C12.4545 51.7543 19.8105 48.3583 27.6425 45.6863C35.8932 42.8703 43.9598 42.001 52.2772 45.0743Z" fill="#FEDB00"/>
<path d="M109.572 51.6478C113.905 48.4665 118.592 41.3905 124.388 41.2465C125.596 37.2652 122.494 33.2758 118.272 27.7238C118.097 27.4958 117.909 27.2571 117.721 27.0198C116.566 29.3305 114.188 30.7212 111.937 32.4278C106.705 36.3972 100.222 46.0785 98.7971 51.3758C94.2811 47.3012 92.4398 43.0972 91.2571 39.8638C89.0171 33.7318 86.2917 32.1025 83.0064 29.3718C78.7531 25.8372 75.2331 30.7612 74.1891 35.0438C73.5904 37.5025 72.5451 41.5292 72.2931 44.0412C72.0011 46.9558 71.3944 50.6638 70.7744 53.5825C73.4904 54.7491 76.2771 55.7665 79.2104 56.4705C89.4517 58.9305 100.87 58.0372 109.572 51.6478Z" fill="#FEDB00"/>
<path d="M69.7639 57.4873C70.0692 56.6326 70.4225 55.2326 70.7745 53.582C68.9918 52.818 67.2398 51.99 65.4958 51.138C67.3118 54.398 69.1052 57.3446 69.7639 57.4873Z" fill="#FCC000"/>
<path d="M2.4277 62.93C9.02103 60.914 17.8384 56.122 23.617 52.1913C29.3957 48.258 41.749 48.1153 45.7957 49.0313C49.8397 49.9487 74.3477 64.414 91.7677 63.298C109.188 62.1793 119.985 48.1154 123.334 43.374C123.84 42.6594 124.174 41.9514 124.388 41.246C118.592 41.39 113.905 48.466 109.572 51.6474C100.87 58.0367 89.4517 58.93 79.2104 56.47C76.277 55.766 73.4904 54.7487 70.7744 53.582C70.4224 55.2327 70.069 56.6327 69.7637 57.4873C69.105 57.3447 67.3117 54.398 65.4957 51.138C61.1464 49.0167 56.853 46.7634 52.277 45.074C43.9597 42.0007 35.893 42.87 27.6423 45.686C19.8103 48.358 12.4544 51.754 4.42503 53.1247C3.5397 57.6593 0.861033 60.4713 2.4277 62.93Z" fill="#FCC000"/>
<path d="M54.7651 37.786C57.4358 38.9313 59.3424 39.7953 60.8517 42.474C61.8291 44.21 68.3611 57.1833 69.7638 57.4873C70.6091 55.118 71.8357 48.6007 72.2931 44.0407C72.5451 41.5287 73.5904 37.502 74.1891 35.0433C75.2331 30.7607 78.7531 25.8367 83.0064 29.3713C86.2917 32.102 89.0171 33.7313 91.2571 39.8633C92.4397 43.0966 94.2811 47.3007 98.7971 51.3753C100.222 46.078 106.705 36.3966 111.937 32.4273C114.188 30.7206 116.566 29.33 117.721 27.0193C115.838 24.6326 113.268 21.8246 109.864 19.2593C104.472 29.1193 99.3211 42.598 98.1851 48.5233C93.9651 37.6193 91.7771 23.9327 98.3104 13.378C94.0917 12.0887 89.2144 11.3873 83.5557 11.702C79.5104 11.9273 75.7717 12.6367 72.2931 13.642C69.2704 27.362 69.1611 50.8273 68.8477 53.8193C62.9691 43.2033 57.0837 30.9967 60.1731 18.7687C53.4357 22.5487 48.2331 26.9953 44.3958 29.9727C46.2171 33.8633 51.0304 36.1846 54.7651 37.786Z" fill="#383838"/>
<path d="M68.8478 53.8193C69.1611 50.8273 69.2704 27.362 72.2931 13.642C67.7984 14.9407 63.7664 16.7514 60.1731 18.7687C57.0837 30.9967 62.9691 43.2033 68.8478 53.8193Z" fill="white"/>
<path d="M98.1852 48.5234C99.3212 42.5981 104.472 29.1194 109.864 19.2594C106.752 16.9128 102.933 14.7901 98.3105 13.3781C91.7772 23.9328 93.9652 37.6194 98.1852 48.5234Z" fill="white"/>
<path d="M80.2065 60.3753C76.4158 61.118 73.5772 62.3873 73.2972 67.366C73.0145 72.4073 72.7518 76.2806 72.5598 82.2793C82.4385 80.182 85.4158 67.77 88.6878 59.69C86.2478 59.594 82.8545 59.8566 80.2065 60.3753Z" fill="#FEDB00"/>
<path d="M116.973 33.9951C116.973 35.9444 115.393 37.5244 113.443 37.5244C111.493 37.5244 109.912 35.9444 109.912 33.9951C109.912 32.0444 111.493 30.4631 113.443 30.4631C115.393 30.4631 116.973 32.0444 116.973 33.9951Z" fill="white"/>
<path d="M115.757 33.9956C115.757 35.0582 114.895 35.9209 113.831 35.9209C112.767 35.9209 111.905 35.0582 111.905 33.9956C111.905 32.9302 112.767 32.0676 113.831 32.0676C114.895 32.0676 115.757 32.9302 115.757 33.9956Z" fill="#383838"/>
<path d="M114.97 33.5485C114.97 33.9698 114.629 34.3125 114.206 34.3125C113.785 34.3125 113.442 33.9698 113.442 33.5485C113.442 33.1258 113.785 32.7845 114.206 32.7845C114.629 32.7845 114.97 33.1258 114.97 33.5485Z" fill="white"/>
<path d="M61.3117 5.82038C59.3731 5.19771 57.5878 4.56705 55.4931 4.79639C51.9304 5.18705 50.7611 7.50037 50.1704 10.683C49.7024 13.2004 49.1717 15.7751 47.4451 17.7684C46.0557 19.3724 43.7958 19.8564 42.4931 21.5057C40.5438 23.9764 41.7291 28.5177 44.8424 29.623C42.2064 26.767 41.6891 23.6124 44.5198 21.2977C45.0771 20.8404 45.8344 20.5951 46.4371 20.1951C47.4624 19.5151 48.3291 18.7031 49.0158 17.6737C50.9798 14.7231 50.3371 10.9111 52.0771 8.02972C55.1597 2.92972 60.3664 7.82974 64.6891 7.0444C67.1451 6.59907 69.4104 3.96973 70.7744 2.07106C70.7837 2.0564 66.3317 7.43371 61.3117 5.82038Z" fill="#383838"/>
<path d="M101.822 46.5597C98.0584 42.5251 91.541 40.1637 86.053 40.7264C81.1424 41.2304 79.857 44.0517 81.0584 48.5237C82.3077 53.1811 87.4597 55.8211 92.165 55.3091C96.5477 54.8331 99.9144 52.7264 101.822 46.5597Z" fill="#FCC000"/>
<path d="M56.3225 67.501C53.1465 65.3583 49.6931 63.3023 47.0878 60.457C45.8318 59.0836 44.0891 57.4716 43.5891 55.6556C42.8198 52.861 43.9985 51.4343 46.2571 49.165C35.2585 54.3556 51.1651 66.4756 56.3225 67.501Z" fill="#383838"/>
<path d="M27.9292 30.9502C21.4985 27.0195 5.24786 16.8929 0.521195 12.1422C-0.280138 15.5262 -0.285473 19.6262 1.41986 22.6982C2.87586 25.3209 4.6092 27.0462 4.2932 30.3449C4.07853 32.5729 2.92652 34.6662 2.71586 36.9422C2.28919 41.5462 4.61054 45.2969 4.8972 49.7449C5.18387 54.1942 0.747854 58.3329 1.94652 63.1436C15.7479 58.3329 22.0772 54.0595 26.0772 50.8862C23.8065 51.9035 17.2479 53.1249 5.99854 58.9756C6.49854 56.6156 11.7145 53.0342 26.9132 45.9369C21.9652 45.8636 13.4079 47.9756 7.99854 48.5236C11.0252 46.6356 17.8319 42.3756 25.7479 41.2462C18.3505 40.3836 10.5812 41.3289 6.24785 37.5782C9.24785 37.9756 21.5585 39.1089 27.3319 37.5249C24.9585 37.5916 7.91452 32.8942 6.91452 28.7876C9.91452 30.4636 16.5812 32.0676 27.9292 33.7316C18.3319 30.9502 5.05853 24.6676 4.0612 17.0369C6.37453 19.4022 9.2652 20.7929 11.8319 22.5596C16.4159 25.7169 22.3319 29.6235 27.9292 30.9502Z" fill="#383838"/>
</svg>
