<svg width="125" height="142" viewBox="0 0 125 142" fill="none" xmlns="http://www.w3.org/2000/svg">
<path d="M118.658 98.3367C119.806 92.2394 120.097 85.9647 120.173 80.7474C120.209 78.2674 120.191 75.7621 120.142 73.2514C118.988 70.1887 117.709 66.7927 116.404 63.098C114.446 57.5594 112.837 53.6901 110.567 50.0874C111.245 54.2101 111.816 58.3381 112.308 62.5167C113.058 68.8781 113.243 76.2074 112.417 82.5727C110.79 95.1287 109.511 102.637 108.406 107.637C112.561 104.177 116.009 101.07 118.658 98.3367Z" fill="#383838"/>
<path d="M52.5058 24.7393C52.5058 24.7393 50.061 19.6833 46.1725 15.9059C43.0574 12.8793 39.1256 10.2859 35.1725 8.40592C34.5496 8.10859 33.8668 7.83526 33.1542 7.5806C32.458 8.52193 31.7913 9.53527 31.158 10.6193C35.637 11.7099 40.0657 13.6979 44.9064 17.5699C48.4506 20.4059 52.5058 24.7393 52.5058 24.7393Z" fill="#383838"/>
<path d="M29.2479 14.3189C29.0297 14.7936 28.8131 15.2723 28.6052 15.7656C28.1964 16.7363 27.8421 17.7483 27.5188 18.7816C33.3021 19.1549 39.8479 21.4483 49.7276 27.8496C44.9525 21.9629 34.5323 16.1523 29.2479 14.3189Z" fill="#383838"/>
<path d="M27.2266 134.8C32.2068 141.432 40.9859 143.26 49.761 137.983C59.2579 132.272 62.5131 127.104 69.161 122.754C70.5943 121.815 72.073 121.034 73.5787 120.351L73.5651 120.347C59.4746 123.124 43.235 140.594 27.2266 134.8Z" fill="#383838"/>
<path d="M32.7813 130.174C40.099 129.427 44.9506 126.739 54.8943 122.006C45.2058 124.906 33.7913 126.462 23.4417 125.473C23.7526 127.383 24.2506 129.149 24.9224 130.747C27.7812 130.871 30.899 130.365 32.7813 130.174Z" fill="#383838"/>
<path d="M47.8942 119.23C44.1369 119.542 31.2275 120.347 24.3109 118.739C23.8869 118.639 23.5197 118.531 23.1781 118.419C23.0969 119.495 23.0671 120.54 23.0885 121.554C23.7587 121.642 24.4849 121.727 25.2953 121.835C32.0609 122.739 39.7275 121.496 47.8942 119.23Z" fill="#383838"/>
<path d="M124.868 88.4869C124.838 85.6762 122.832 80.3829 120.142 73.2509C120.191 75.7616 120.209 78.2669 120.173 80.7469C120.128 83.9029 119.998 87.4469 119.654 91.1016C121.245 90.5536 122.881 90.2163 124.548 90.1909C124.753 89.5803 124.873 89.0069 124.868 88.4869Z" fill="#50D666"/>
<path d="M109.308 97.7667C109.664 97.4361 110.028 97.1081 110.4 96.7854C111.012 92.9268 111.678 88.2748 112.417 82.5721C113.243 76.2068 113.058 68.8774 112.308 62.5161C111.816 58.3374 111.245 54.2094 110.567 50.0868C107.797 45.6908 104.04 41.6948 97.4261 35.5628C96.649 34.8428 95.8413 34.1254 95.0132 33.4108C100.888 46.2494 103.887 60.4348 103.453 74.5374C103.183 83.3068 101.914 92.6801 97.9246 100.592C97.0684 102.291 93.9329 106.035 90.8037 108.635C93.2974 108.397 95.7027 107.933 97.784 106.821C102.521 104.293 105.425 101.376 109.308 97.7667Z" fill="#50D666"/>
<path d="M90.8036 108.635C88.4062 108.863 85.927 108.884 83.5713 109.055C84.0729 112.904 87.4349 111.433 90.8036 108.635Z" fill="#3CBC4B"/>
<path d="M124.548 90.1906C122.881 90.2159 121.245 90.5533 119.654 91.1013C119.428 93.4906 119.112 95.9253 118.658 98.3359C121.812 95.0799 123.821 92.3586 124.548 90.1906Z" fill="#3CBC4B"/>
<path d="M54.6281 123.882C49.7964 127.06 44.2338 130.232 38.2254 129.382C38.0734 129.36 37.927 129.311 37.7749 129.284C36.1833 129.694 34.5552 129.992 32.7812 130.174C30.8989 130.364 27.7812 130.871 24.9224 130.747C25.5521 132.246 26.3265 133.602 27.2265 134.8C43.2349 140.594 59.4745 123.124 73.565 120.347L73.5786 120.351C84.9041 115.218 97.9322 116.294 107.628 108.286C107.894 108.066 108.144 107.852 108.406 107.636C109.009 104.907 109.664 101.422 110.399 96.7855C110.028 97.1082 109.664 97.4362 109.308 97.7668C105.424 101.376 102.521 104.294 97.7838 106.822C95.7025 107.934 93.2973 108.398 90.8036 108.635C87.4349 111.434 84.0729 112.904 83.5713 109.055C82.4312 109.136 81.3202 109.255 80.263 109.452C70.3412 111.295 62.9578 118.404 54.6281 123.882Z" fill="#3CBC4B"/>
<path d="M30.7235 102.992C30.8427 101.54 30.9557 100.088 31.0473 98.6349C31.2869 94.8322 31.0249 90.9522 28.4229 88.2229C27.8131 91.9349 27.062 96.3509 26.1719 101.287C27.3448 101.926 28.9088 102.599 30.7235 102.992Z" fill="#3CBC4B"/>
<path d="M25.2954 121.835C24.485 121.727 23.7589 121.641 23.0886 121.553C23.1173 122.92 23.2397 124.227 23.4417 125.472C26.0381 125.721 28.7017 125.807 31.3881 125.753C30.447 124.628 29.9026 123.408 29.6356 122.111C28.1548 122.097 26.7017 122.021 25.2954 121.835Z" fill="#3CBC4B"/>
<path d="M25.4684 105.135C25.208 106.543 24.9376 107.982 24.6575 109.453C26.0428 110.009 27.8975 110.673 29.9933 111.21C30.1365 109.625 30.2788 108.038 30.422 106.453C28.4595 106.121 26.7715 105.618 25.4684 105.135Z" fill="#3CBC4B"/>
<path d="M29.6928 114.74C27.5413 114.357 25.4845 113.828 23.9017 113.365C23.8605 113.576 23.8204 113.785 23.7788 113.996C23.4788 115.521 23.286 116.995 23.1782 118.419C23.5198 118.531 23.887 118.639 24.311 118.739C25.7818 119.08 27.5313 119.307 29.3974 119.46C29.3974 118.86 29.4173 118.253 29.461 117.632C29.5293 116.668 29.6132 115.704 29.6928 114.74Z" fill="#3CBC4B"/>
<path d="M48.8943 111.155C48.8943 111.155 40.9364 112.906 33.9599 111.989C30.2839 111.506 26.8708 110.341 24.6573 109.453C24.4136 110.737 24.1604 112.042 23.9016 113.366C26.526 114.131 30.4459 115.095 33.9599 115.239C43.1443 115.614 48.8943 111.155 48.8943 111.155Z" fill="#383838"/>
<path d="M36.1807 27.8499C42.7276 29.5726 49.7276 35.2393 49.7276 35.2393C49.7276 35.2393 45.6599 27.6539 36.1807 24.7393C32.1708 23.5059 28.9016 23.0806 26.4525 22.9966C26.1724 24.3793 25.9516 25.7939 25.7803 27.2286C28.8287 26.9913 32.7948 26.9593 36.1807 27.8499Z" fill="#383838"/>
<path d="M47.8944 41.0947C47.8944 41.0947 43.2277 35.516 36.1808 33.8494C32.7996 33.0494 28.696 33.2121 25.334 33.5947C25.3023 34.8547 25.2996 36.116 25.3236 37.372C27.0657 37.0227 29.3449 36.7587 32.2277 36.7934C41.5059 36.9054 47.8944 41.0947 47.8944 41.0947Z" fill="#383838"/>
<path d="M46.1031 99.0726C46.1031 99.0726 40.7355 102.791 34.8921 103.285C31.2817 103.589 28.1708 102.377 26.1719 101.287C25.9459 102.538 25.7109 103.823 25.4683 105.135C27.6229 105.931 30.814 106.797 34.5921 106.822C42.8531 106.879 46.1031 99.0726 46.1031 99.0726Z" fill="#383838"/>
<path d="M36.6756 46.46C42.0611 48.2933 47.8944 53.96 47.8944 53.96C47.8944 53.96 45.4418 46.5719 39.169 43.7386C34.7247 41.7306 28.7012 42.1493 25.5559 42.5639C25.6491 43.8666 25.7632 45.1519 25.8944 46.4079C28.7694 45.8493 33.2804 45.304 36.6756 46.46Z" fill="#383838"/>
<path d="M66.4973 45.0813C67.3025 48.656 67.9197 52.2586 68.3839 55.876C71.7396 55.0973 75.2615 55.0573 78.8333 55.3507C75.6349 37.808 66.3057 21.648 53.6281 9.22799C50.0573 5.72933 44.8964 1.84264 39.7749 1.53864C38.5177 2.20797 37.3188 3.08531 36.1807 4.14398C53.1828 8.39464 63.0041 29.592 66.4973 45.0813Z" fill="#383838"/>
<path d="M66.4876 99.2985C65.8334 102.459 65.087 105.595 64.2277 108.693C63.061 112.905 66.9204 112.363 69.4818 108.572C71.5304 105.539 73.2501 102.348 74.686 99.0452C74.0084 99.1239 73.3304 99.1905 72.6517 99.2385C70.7594 99.3679 68.6236 99.4479 66.4876 99.2985Z" fill="#383838"/>
<path d="M78.8333 55.3507C80.6114 55.496 82.4005 55.716 84.1864 55.9706C86.3724 56.2813 88.6901 56.8666 90.8958 57.8066C89.3265 48.8493 85.8344 38.996 79.35 30.1426C76.0312 25.612 71.5692 21.9813 67.5937 18.02C61.0958 11.5467 54.0374 2.96666 44.9505 0.025329C43.1338 0.141329 41.4073 0.670643 39.7749 1.53864C44.8964 1.84264 50.0573 5.72933 53.6281 9.228C66.3057 21.648 75.6349 37.808 78.8333 55.3507Z" fill="#50D666"/>
<path d="M87.3943 96.5721C87.526 96.1641 87.6568 95.7307 87.7869 95.2854C83.6948 97.2867 79.2063 98.5227 74.6859 99.0454C73.25 102.348 71.5303 105.539 69.4817 108.572C66.9203 112.363 63.061 112.905 64.2276 108.693C65.087 105.595 65.8334 102.459 66.4875 99.2987C62.9146 99.0494 59.3407 98.1574 56.9006 95.7787C49.7146 88.7734 49.3828 73.4881 55.561 64.7734C59.2746 59.5361 63.664 56.9734 68.3839 55.8761C67.9198 52.2587 67.3025 48.6561 66.4973 45.0814C63.0041 29.5921 53.1828 8.39473 36.1807 4.14407C35.1156 5.13473 34.1068 6.29207 33.1542 7.58007C33.8667 7.83474 34.5495 8.10806 35.1724 8.40539C39.1255 10.2854 43.0574 12.8787 46.1724 15.9054C50.061 19.6827 52.5058 24.7387 52.5058 24.7387C52.5058 24.7387 48.4506 20.4054 44.9063 17.5694C40.0656 13.6974 35.637 11.7094 31.1579 10.6187C30.4823 11.7774 29.847 13.0161 29.2479 14.3187C34.5323 16.1521 44.9526 21.9627 49.7276 27.8494C39.8479 21.4481 33.3022 19.1547 27.5188 18.7814C27.0922 20.1414 26.7448 21.5534 26.4526 22.9961C28.9016 23.0801 32.1708 23.5054 36.1807 24.7387C45.6599 27.6534 49.7276 35.2387 49.7276 35.2387C49.7276 35.2387 42.7276 29.5721 36.1807 27.8494C32.7948 26.9587 28.8287 26.9907 25.7803 27.2281C25.5312 29.3214 25.3886 31.4534 25.3339 33.5947C28.6959 33.2121 32.7995 33.0494 36.1807 33.8494C43.2276 35.5161 47.8943 41.0947 47.8943 41.0947C47.8943 41.0947 41.5058 36.9054 32.2276 36.7934C29.3448 36.7587 27.0656 37.0227 25.3235 37.3721C25.3568 39.1201 25.4355 40.8574 25.5558 42.5641C28.7011 42.1494 34.7246 41.7307 39.1688 43.7387C45.4416 46.5721 47.8943 53.9601 47.8943 53.9601C47.8943 53.9601 42.061 48.2934 36.6755 46.4601C33.2803 45.3041 28.7692 45.8494 25.8943 46.4081C27.0864 57.8134 29.6636 66.9361 29.6636 66.9361L30.2792 76.3027C30.2792 76.3027 29.6339 80.8521 28.423 88.2227C31.025 90.9521 31.287 94.8321 31.0474 98.6347C30.9558 100.088 30.8427 101.54 30.7235 102.992C32.0022 103.268 33.4006 103.409 34.8922 103.284C40.7355 102.791 46.1031 99.0721 46.1031 99.0721C46.1031 99.0721 42.8531 106.879 34.5922 106.821C33.0995 106.811 31.7036 106.667 30.4219 106.452C30.2787 108.037 30.1364 109.624 29.9932 111.209C31.2459 111.531 32.5844 111.807 33.9599 111.988C40.9364 112.905 48.8943 111.155 48.8943 111.155C48.8943 111.155 43.1443 115.613 33.9599 115.239C32.5651 115.181 31.1083 114.992 29.6927 114.74C29.6131 115.704 29.5292 116.668 29.461 117.632C29.4172 118.253 29.3974 118.86 29.3974 119.46C36.311 120.02 44.9359 119.475 47.8943 119.229C41.425 121.024 35.2782 122.157 29.6355 122.111C29.9026 123.408 30.447 124.628 31.388 125.753C39.4094 125.595 47.6364 124.177 54.8943 122.005C47.3615 125.591 42.75 128.001 37.775 129.284C37.9271 129.311 38.0735 129.36 38.2255 129.381C44.2339 130.232 49.7964 127.06 54.6282 123.881C62.9579 118.404 70.3412 111.295 80.2631 109.452C81.3203 109.255 82.4312 109.136 83.5713 109.055C83.5401 108.813 83.5192 108.553 83.511 108.269C83.4026 104.573 86.25 100.128 87.3943 96.5721Z" fill="#50D666"/>
<path d="M95.0132 33.4112C83.0215 23.0778 66.222 13.5458 59.258 6.77383C54.0887 1.74717 49.2741 -0.25148 44.9507 0.025853C54.0376 2.96719 61.096 11.5472 67.5939 18.0205C71.5693 21.9818 76.0313 25.6125 79.3501 30.1432C85.8345 38.9965 89.3267 48.8498 90.896 57.8072C97.9179 60.8005 103.788 67.4378 100.513 80.6445C99.0496 86.5418 95.4611 90.9058 90.16 94.0232C89.3881 94.4765 88.5928 94.8925 87.7871 95.2858C87.6569 95.7312 87.5262 96.1645 87.3944 96.5725C86.2502 100.128 83.4027 104.574 83.5111 108.27C83.5194 108.554 83.5403 108.814 83.5715 109.055C84.5381 116.479 96.1466 104.119 97.9247 100.592C101.914 92.6805 103.183 83.3072 103.453 74.5378C103.887 60.4352 100.888 46.2498 95.0132 33.4112Z" fill="#383838"/>
<path d="M78.9777 56.0911C78.9356 55.8431 78.8787 55.5978 78.8334 55.3511C75.2615 55.0578 71.7397 55.0978 68.384 55.8764C70.2413 70.3484 69.4329 85.0751 66.4875 99.2991C68.6235 99.4484 70.7594 99.3684 72.6517 99.2391C73.3304 99.1911 74.0083 99.1244 74.6859 99.0458C80.4746 85.7404 81.4698 70.5738 78.9777 56.0911Z" fill="#494949"/>
<path d="M68.384 55.8762C63.6641 56.9735 59.2747 59.5362 55.5611 64.7735C49.3829 73.4882 49.7147 88.7735 56.9007 95.7788C59.3408 98.1575 62.9147 99.0495 66.4876 99.2988C69.4329 85.0748 70.2413 70.3482 68.384 55.8762Z" fill="#64E273"/>
<path d="M78.8335 55.3512C78.8788 55.5979 78.9356 55.8432 78.9778 56.0912C81.4699 70.5739 80.4747 85.7406 74.686 99.0459C79.2064 98.5232 83.695 97.2872 87.7871 95.2859C89.4064 89.7459 90.9138 81.5259 91.5611 76.2392C92.1742 71.2419 92.1204 64.7966 90.896 57.8072C88.6903 56.8672 86.3726 56.2819 84.1866 55.9712C82.4007 55.7166 80.6116 55.4966 78.8335 55.3512Z" fill="#64E273"/>
<path d="M91.5609 76.2385C90.9135 81.5251 89.4062 89.7452 87.7869 95.2852C88.5926 94.8918 89.3879 94.4758 90.1598 94.0225C95.4609 90.9052 99.0494 86.5411 100.512 80.6438C103.788 67.4371 97.9177 60.7998 90.8958 57.8065C92.1202 64.7958 92.1739 71.2411 91.5609 76.2385Z" fill="#494949"/>
<path d="M18.1677 85.3672C18.465 85.0112 18.739 84.6472 19.0073 84.2832C18.4978 83.3019 18.1015 82.3125 17.8202 81.5045C16.3682 77.3325 16.4535 72.6299 18.1155 68.5325C19.077 66.1645 20.7603 63.6165 23.1114 63.0419C21.3666 59.4619 20.1885 54.3219 16.9609 50.7939C12.4322 45.8445 6.76141 41.6552 6.76141 41.6552C6.76141 41.6552 10.8655 50.1459 7.56088 57.5165C3.22754 67.1832 3.98381 68.1299 4.11714 75.7432C4.25048 83.3579 8.46821 84.2525 9.22448 89.9632C9.24781 90.1365 9.25928 90.3152 9.27701 90.4912C9.82128 90.3885 10.3645 90.2792 10.8958 90.1179C13.7114 89.2632 16.2749 87.6299 18.1677 85.3672Z" fill="#50D666"/>
<path d="M33.9598 68.815C33.9598 68.815 27.715 67.6323 25.8161 66.491C23.951 70.1696 23.4114 75.2483 24.1082 79.751C27.3224 78.5323 31.165 78.783 33.9598 76.871V68.815Z" fill="#50D666"/>
<path d="M7.73584 102.573C7.73584 102.573 17.2213 97.4172 22.2942 88.1012C20.8994 87.3572 19.8109 85.8319 19.0073 84.2826C18.739 84.6466 18.465 85.0106 18.1677 85.3666C16.2749 87.6292 13.7114 89.2626 10.8958 90.1173C10.3645 90.2786 9.82131 90.3879 9.27704 90.4906C9.83904 96.0906 7.73584 102.573 7.73584 102.573Z" fill="#3CBC4B"/>
<path d="M33.96 82.6486V76.8713C31.1652 78.7833 27.3225 78.5326 24.1084 79.7513C24.346 81.2833 24.7236 82.75 25.2439 84.0713C28.6783 81.7353 33.96 82.6486 33.96 82.6486Z" fill="#3CBC4B"/>
<path d="M25.8162 66.4909L25.6673 66.4042C24.6069 65.6802 23.8141 64.4842 23.1115 63.0416C20.7605 63.6162 19.0771 66.1642 18.1157 68.5322C16.4537 72.6296 16.3683 77.3322 17.8203 81.5042C18.5465 83.5896 20.0178 86.8882 22.2943 88.1016C22.5651 87.6042 22.8318 87.1029 23.0755 86.5829C23.5922 85.4776 24.3599 84.6722 25.2438 84.0709C23.1927 78.8682 23.3162 71.4216 25.8162 66.4909Z" fill="#383838"/>
<path d="M6.68061 80.6291C4.52181 73.4758 4.78381 67.1824 8.67234 58.7384C11.7843 51.9811 8.78381 44.8491 6.76141 41.6558C6.61914 41.4291 7.86301 49.8091 5.76968 55.1064C1.76874 65.2318 -0.994337 70.5225 0.338997 76.5158C2.57288 86.5545 12.1906 93.6291 4.61968 103.814C7.67234 103.405 11.2109 100.429 11.5245 96.6918C12.0103 90.9025 8.28021 85.9318 6.68061 80.6291Z" fill="#383838"/>
<path d="M119.475 79.9003C119.475 81.3296 118.317 82.4883 116.887 82.4883C115.458 82.4883 114.298 81.3296 114.298 79.9003C114.298 78.4696 115.458 77.3109 116.887 77.3109C118.317 77.3109 119.475 78.4696 119.475 79.9003Z" fill="white"/>
<path d="M118.522 80.1333C118.522 80.8359 117.953 81.4053 117.25 81.4053C116.548 81.4053 115.978 80.8359 115.978 80.1333C115.978 79.4306 116.548 78.8613 117.25 78.8613C117.953 78.8613 118.522 79.4306 118.522 80.1333Z" fill="#383838"/>
<path d="M118.169 79.9C118.169 80.2534 117.881 80.54 117.528 80.54C117.175 80.54 116.887 80.2534 116.887 79.9C116.887 79.5454 117.175 79.2587 117.528 79.2587C117.881 79.2587 118.169 79.5454 118.169 79.9Z" fill="white"/>
<path d="M29.7328 67.9971C29.7328 67.9971 34.3025 67.9118 34.1312 75.2798C33.9598 82.6478 28.3921 82.7905 28.3921 82.7905L26.7432 98.0812C26.7432 98.0812 37.7844 101.823 43.5609 88.7945C49.3385 75.7638 47.8942 60.6825 38.5609 54.4051C30.8344 49.2078 26.3645 49.8371 26.3645 49.8371C26.3645 49.8371 27.3025 56.1838 27.8306 59.0398C28.2469 61.2905 29.7328 67.9971 29.7328 67.9971Z" fill="#383838"/>
</svg>
